<?xml version="1.0" encoding="UTF-8" standalone="no"?>
<!-- Created with Inkscape (http://www.inkscape.org/) -->

<svg
   width="16mm"
   height="16mm"
   viewBox="0 0 16 16"
   version="1.1"
   id="svg1"
   xml:space="preserve"
   inkscape:version="1.3.2 (091e20e, 2023-11-25, custom)"
   sodipodi:docname="ig.svg"
   xmlns:inkscape="http://www.inkscape.org/namespaces/inkscape"
   xmlns:sodipodi="http://sodipodi.sourceforge.net/DTD/sodipodi-0.dtd"
   xmlns="http://www.w3.org/2000/svg"
   xmlns:svg="http://www.w3.org/2000/svg"><sodipodi:namedview
     id="namedview1"
     pagecolor="#ffffff"
     bordercolor="#000000"
     borderopacity="0.25"
     inkscape:showpageshadow="2"
     inkscape:pageopacity="0.0"
     inkscape:pagecheckerboard="0"
     inkscape:deskcolor="#d1d1d1"
     inkscape:document-units="mm"
     inkscape:zoom="5.5685651"
     inkscape:cx="19.663953"
     inkscape:cy="28.104188"
     inkscape:window-width="2160"
     inkscape:window-height="1361"
     inkscape:window-x="-9"
     inkscape:window-y="-9"
     inkscape:window-maximized="1"
     inkscape:current-layer="layer1" /><defs
     id="defs1" /><g
     inkscape:label="Calque 1"
     inkscape:groupmode="layer"
     id="layer1"><path
       id="path1"
       style="stroke-width:0.0583713;fill:#432cf3;fill-opacity:1"
       d="M 12.742891 1.0614339 L 12.833325 1.2025106 L 12.923759 1.3430705 L 12.464872 1.3306681 L 12.005469 1.3182658 L 11.765173 1.3249837 L 11.524878 1.3317017 L 11.524878 1.425236 L 11.524878 1.5187703 L 11.729 1.6024862 L 11.933122 1.686202 L 12.312427 1.6350423 L 12.692249 1.5838826 L 13.341821 1.5725138 L 13.987777 1.561145 L 13.989327 1.5368571 C 13.763206 1.3476668 13.530975 1.2005006 13.283427 1.0769368 L 12.742891 1.0614339 z M 9.4619548 1.1265462 L 9.4619548 1.2283488 L 9.4619548 1.3301514 L 9.1529297 1.3373861 L 8.8439046 1.3446208 L 8.5695028 1.3544393 L 8.2945841 1.3642578 L 8.143689 1.2691732 L 7.9927938 1.1735718 L 7.8408651 1.2200806 L 7.6884196 1.2665894 L 7.7659342 1.3663249 L 7.8434489 1.4660604 L 7.424353 1.4660604 L 7.0062907 1.4660604 L 6.9282593 1.5280721 L 6.8507446 1.5900838 L 7.0233439 1.624707 L 7.1959432 1.6588135 L 6.8698649 1.6639811 L 6.5443034 1.6696655 L 6.7179362 1.5663127 L 6.891569 1.4629598 L 6.8073364 1.4211019 L 6.7231038 1.3797607 L 6.0668132 1.3828613 L 5.4100057 1.3854451 L 5.0301839 1.4004313 L 4.6493286 1.4149007 L 4.591451 1.4614095 L 4.5330566 1.5084351 L 4.113444 1.4939657 L 3.6933146 1.4794963 L 3.6933146 1.5745809 L 3.6933146 1.6696655 L 3.5822103 1.6696655 L 3.471106 1.6696655 L 3.2065226 1.5740641 L 2.9419393 1.4784627 L 2.6964762 1.5430583 L 2.4515299 1.6076538 L 2.3104533 1.5647624 L 2.1688599 1.5218709 L 2.3295736 1.4262695 L 2.4902873 1.3301514 L 2.3647135 1.3306681 C 2.2353407 1.4196474 2.1087811 1.5182663 1.9833415 1.631425 L 2.1936646 1.7631999 L 2.4628988 1.9321818 L 3.455603 1.9089274 L 4.4488241 1.885673 L 4.6824015 1.8391642 L 4.9164958 1.7931722 L 5.0947795 1.8494995 L 5.2725464 1.9053101 L 5.3273234 1.9058268 C 5.8433431 1.8843887 6.3915728 1.8775459 7.683252 1.8763713 L 7.6382935 1.7600993 L 7.5773153 1.6019694 L 7.6651652 1.6019694 L 7.7524984 1.6019694 L 7.9881429 1.7373617 L 8.2232707 1.8732707 L 8.371582 1.8732707 L 8.5193766 1.8732707 L 8.4341105 1.7208252 L 8.3488444 1.567863 L 8.5281616 1.6769002 L 8.7079956 1.7859375 L 9.0165039 1.8339966 L 9.3095093 1.8799886 C 9.3138539 1.8800163 9.3206991 1.8799605 9.3250122 1.8799886 L 9.3250122 1.8236613 L 9.3250122 1.7647502 L 9.1601644 1.6831014 L 8.9953166 1.6019694 L 9.2976237 1.6019694 L 9.5994141 1.6019694 L 9.5994141 1.6324585 L 9.5994141 1.6634644 L 9.4402507 1.8360636 L 9.3994263 1.8805054 C 9.4914975 1.8811757 9.6630604 1.8811467 9.742041 1.8820557 L 9.7559937 1.8706868 L 9.7937174 1.8820557 C 10.04506 1.885137 10.308554 1.8892115 10.495483 1.8954915 L 10.698572 1.8701701 L 10.698572 1.8004069 L 10.698572 1.7306437 L 10.252087 1.6350423 L 9.805603 1.5389242 L 10.114628 1.5363403 L 10.423653 1.5337565 L 10.423653 1.4639933 L 10.423653 1.3947469 L 10.080005 1.3301514 L 9.7368734 1.2655558 L 9.7368734 1.1963094 L 9.7368734 1.1265462 L 9.5994141 1.1265462 L 9.4619548 1.1265462 z M 8.5028402 1.1280965 L 8.5028402 1.1957926 L 8.5028402 1.2640055 L 8.777242 1.2640055 L 9.0521606 1.2640055 L 9.0521606 1.1957926 L 9.0521606 1.1280965 L 8.7777588 1.1280965 L 8.5028402 1.1280965 z M 6.972701 1.1937256 L 6.8450602 1.2329997 L 6.7169027 1.271757 L 6.7169027 1.3017293 L 6.7169027 1.3317017 L 6.9313599 1.3317017 L 7.1453003 1.3317017 L 7.0590007 1.262972 L 6.972701 1.1937256 z M 10.946102 1.2593547 L 10.754382 1.3379028 L 10.56318 1.416451 L 10.56318 1.5136027 L 10.56318 1.6112712 L 10.688236 1.5730306 L 10.81381 1.53479 L 11.073226 1.7110067 L 11.333158 1.8867065 L 11.514543 1.7787028 L 11.69541 1.6712158 L 11.541414 1.6712158 L 11.387419 1.6712158 L 11.387419 1.5740641 L 11.387419 1.4774292 L 11.16676 1.3683919 L 10.946102 1.2593547 z M 10.151318 1.7389119 L 10.219531 1.7389119 L 10.288261 1.7389119 L 10.288261 1.7730184 L 10.288261 1.8066081 L 10.219531 1.8066081 L 10.151318 1.8066081 L 10.151318 1.7730184 L 10.151318 1.7389119 z M 1.9073771 1.8055745 L 1.9073771 2.0169312 L 1.9073771 2.227771 L 1.6169556 2.199349 L 1.6329753 2.471167 L 1.5937012 3.6044312 L 1.5544271 4.7376953 L 1.6190226 4.7376953 L 1.6836182 4.7376953 L 1.6836182 4.9288981 L 1.6836182 5.1201009 L 1.5756144 5.2038167 L 1.4676107 5.2875326 L 1.4050822 5.2089844 L 1.3420369 5.1304362 L 1.3833781 4.9950439 L 1.4247192 4.8591349 L 1.3833781 4.5237549 L 1.3415202 4.1878581 L 1.271757 4.1878581 L 1.2019938 4.1878581 L 1.1063924 4.6343424 L 1.0102743 5.0808268 L 1.0076904 4.7718018 L 1.0051066 4.4627767 L 0.93534342 4.4627767 L 0.86609701 4.4627767 L 0.80150146 4.806425 L 0.73690592 5.1495565 L 0.66765951 5.1495565 L 0.60513102 5.1495565 C 0.60256986 5.2087325 0.60010844 5.2714003 0.59789632 5.3278402 L 0.59789632 5.4244751 L 0.69969889 5.4244751 L 0.80150146 5.4244751 L 0.80873617 5.7335002 L 0.81597087 6.0425252 L 0.82578939 6.3169271 L 0.83560791 6.5918457 L 0.74052327 6.7427409 L 0.64492187 6.8936361 L 0.69143066 7.0455648 L 0.73793945 7.1980103 L 0.83767497 7.1204956 L 0.93741048 7.042981 L 0.93741048 7.4620768 L 0.93741048 7.8801392 L 0.9994222 7.9581706 L 1.0614339 8.0356852 L 1.0960571 7.8630859 L 1.1301636 7.6904867 L 1.1353312 8.0165649 L 1.1410156 8.3421265 L 1.0376628 8.1684937 L 0.9343099 7.9948608 L 0.89245199 8.0790934 L 0.85111084 8.163326 L 0.85421143 8.8196167 L 0.85679525 9.4764242 L 0.87178141 9.8562459 L 0.88625081 10.237101 L 0.9327596 10.294979 L 0.97978516 10.353373 L 0.96531576 10.772986 L 0.95084635 11.193115 L 1.045931 11.193115 L 1.1410156 11.193115 L 1.1410156 11.30422 L 1.1410156 11.415324 L 1.0454142 11.679907 L 0.94981283 11.944491 L 1.0144084 12.189954 L 1.0790039 12.4349 L 1.0361125 12.575977 L 0.99322103 12.71757 L 0.89761963 12.556856 L 0.80563558 12.403377 C 0.8519011 12.57643 0.90280745 12.741452 0.96221517 12.894303 C 0.99906046 12.989108 1.0407908 13.078925 1.083138 13.168705 L 1.065568 12.962 L 1.23455 12.692765 L 1.4035319 12.423531 L 1.3802775 11.430827 L 1.3570231 10.437606 L 1.3105143 10.204028 L 1.2645223 9.9699341 L 1.3208496 9.7916504 L 1.3766602 9.6138835 L 1.3828613 8.4000041 L 1.3895793 7.1866414 L 1.2314494 7.2481364 L 1.0733195 7.3091146 L 1.0733195 7.2212646 L 1.0733195 7.1339315 L 1.2087118 6.8982869 L 1.3446208 6.6631592 L 1.3446208 6.5148478 L 1.3446208 6.3670532 L 1.1921753 6.4523193 L 1.0392131 6.5375854 L 1.1482503 6.3582682 L 1.2572876 6.1784342 L 1.3053467 5.8699259 L 1.3539225 5.5614176 L 1.2950114 5.5614176 L 1.2361003 5.5614176 L 1.1544515 5.7262655 L 1.0733195 5.8911133 L 1.0733195 5.5888062 L 1.0733195 5.2870158 L 1.1038086 5.2870158 L 1.1348145 5.2870158 L 1.3074137 5.4461792 L 1.4805298 5.6058594 L 1.4805298 6.0792155 L 1.4805298 6.5525716 L 1.5864665 6.4704061 L 1.6918864 6.3877238 L 1.6479614 6.9856201 L 1.6035197 7.5829997 L 1.7192749 7.6729167 L 1.8350301 7.7623169 L 1.7559652 7.9545532 L 1.677417 8.1467896 L 1.7342611 8.218103 L 1.7911051 8.2894165 L 1.8060913 8.8144491 L 1.8215942 9.3389648 L 1.7564819 9.13691 L 1.6913696 8.9348551 L 1.6453776 9.0278727 L 1.5988688 9.1214071 L 1.5781982 9.7590942 L 1.5570109 10.396265 L 1.688269 10.327018 L 1.8195272 10.257255 L 1.8195272 10.381795 L 1.8195272 10.506335 L 1.7533813 10.506335 L 1.6867187 10.506335 L 1.7642334 10.849984 L 1.8412313 11.193115 L 1.7626831 11.542965 L 1.6841349 11.892814 L 1.6841349 12.246798 L 1.6841349 12.600264 L 1.5823324 12.429215 L 1.4805298 12.258683 L 1.4805298 12.481409 L 1.4805298 12.704134 L 1.3787272 12.704134 L 1.2769246 12.704134 L 1.2769246 12.841593 L 1.2769246 12.979053 L 1.4882812 12.979053 L 1.6991211 12.979053 L 1.6557129 13.42502 L 1.6117879 13.871505 L 1.6107544 13.930933 L 1.7208252 13.924215 L 3.1631144 13.838432 L 3.7320719 13.858069 C 3.7005714 13.846787 3.6636576 13.835447 3.635437 13.824479 C 3.2866893 13.68897 3.0374936 13.527295 2.7760579 13.265857 C 2.5146233 13.004418 2.3529436 12.755201 2.2174357 12.406478 C 2.1151157 12.143171 1.9933329 11.747392 1.9600871 11.018966 C 1.9241412 10.231094 1.9161621 9.9950026 1.9161621 8.0000285 C 1.9161621 6.0050551 1.9241391 5.7689256 1.9600871 4.9810913 C 1.9933333 4.2526317 2.1151157 3.8568823 2.2174357 3.5935791 C 2.3529436 3.2448612 2.5146233 2.9956359 2.7760579 2.7342 C 2.9650286 2.5452303 3.1488399 2.409022 3.3672363 2.2965007 L 3.3434652 2.291333 L 2.9936157 2.2127848 L 2.6396322 2.2127848 L 2.2861654 2.2127848 L 2.4572144 2.1109823 L 2.6277466 2.0091797 L 2.4050212 2.0091797 L 2.1822957 2.0091797 L 2.1822957 1.9073771 L 2.1822957 1.8055745 L 2.0448364 1.8055745 L 1.9073771 1.8055745 z M 13.585217 1.8153931 L 13.585217 1.8789551 L 13.585217 1.9425171 L 13.859619 1.9425171 L 13.965556 1.9425171 L 13.966073 1.931665 L 13.972274 1.8293457 L 13.859619 1.8252116 L 13.585217 1.8153931 z M 14.099398 1.8339966 L 14.099398 1.929598 L 14.099398 1.9425171 L 14.134538 1.9425171 L 14.134538 1.8892904 L 14.134538 1.8355469 L 14.099398 1.8339966 z M 12.784749 1.859318 L 12.635404 1.9047933 L 12.48606 1.9507853 L 12.48606 1.9807576 L 12.48606 2.0102132 L 12.788367 2.0102132 L 13.090674 2.0102132 L 12.937712 1.9347656 L 12.784749 1.859318 z M 13.447758 1.8665527 L 13.310299 1.9084106 L 13.172839 1.9507853 L 13.172839 1.9807576 L 13.172839 2.0102132 L 13.310299 2.0102132 L 13.447758 2.0102132 L 13.447758 1.938383 L 13.447758 1.8665527 z M 2.7336833 2.0102132 L 2.7336833 2.0401855 L 2.7336833 2.0701579 L 2.8711426 2.1120158 L 3.0086019 2.1543905 L 3.0086019 2.0820435 L 3.0086019 2.0102132 L 2.8711426 2.0102132 L 2.7336833 2.0102132 z M 14.491622 2.0381185 L 14.476119 2.039152 L 14.469401 2.4473958 L 14.458032 3.0969686 L 14.406873 3.4767904 L 14.355713 3.8560954 L 14.439429 4.0602173 L 14.523145 4.2643392 L 14.616679 4.2643392 L 14.710213 4.2643392 L 14.716931 4.0240438 L 14.723649 3.7837484 L 14.711247 3.3243449 L 14.698844 2.8654582 L 14.839404 2.9558919 L 14.980481 3.0463257 L 14.972729 2.7698568 C 14.845829 2.5123046 14.689851 2.2726214 14.491622 2.0381185 z M 14.221354 2.0541382 L 14.099398 2.0613729 L 14.099398 2.2039998 L 14.16296 2.2039998 L 14.226522 2.2039998 L 14.221354 2.0541382 z M 13.957804 2.0696411 L 13.857552 2.0758423 L 12.415263 2.1616252 L 12.407511 2.1611084 C 12.420024 2.1658207 12.436387 2.1709358 12.448336 2.1755778 C 12.797046 2.3111151 13.04576 2.4727655 13.307198 2.7342 C 13.568637 2.9956359 13.730829 3.2448612 13.866337 3.5935791 C 13.874134 3.613642 13.882134 3.6406209 13.890108 3.6623088 L 13.88029 3.3739543 L 13.957804 2.0696411 z M 3.6953817 2.137854 L 3.5579224 2.1802287 L 3.4204631 2.2220866 L 3.4204631 2.2520589 L 3.4204631 2.2701457 C 3.4887089 2.2370347 3.5587524 2.2053807 3.635437 2.1755778 C 3.6529278 2.168782 3.6766666 2.1618436 3.6953817 2.1549072 L 3.6953817 2.137854 z M 1.4722616 2.1853963 C 1.4440735 2.2222607 1.4162956 2.2591749 1.390096 2.2965007 L 1.4221354 2.4003703 L 1.4521077 2.4003703 L 1.4815633 2.4003703 L 1.4815633 2.1864299 L 1.4722616 2.1853963 z M 14.031702 2.3414591 L 14.031702 2.4789185 L 14.031702 2.6163778 L 14.061157 2.6163778 L 14.09113 2.6163778 L 14.133504 2.4789185 L 14.175362 2.3414591 L 14.103532 2.3414591 L 14.031702 2.3414591 z M 14.031702 2.6985433 L 14.031702 3.0008504 L 14.031702 3.3031576 L 14.061157 3.3031576 L 14.09113 3.3031576 L 14.137122 3.1538127 L 14.182597 3.0044678 L 14.107149 2.8515055 L 14.031702 2.6985433 z M 1.1280965 2.7331665 C 1.0673 2.8532432 1.0123624 2.9767154 0.96221517 3.1057536 C 0.93047061 3.187434 0.90301334 3.2749201 0.874882 3.3615519 L 0.8965861 3.3615519 L 0.99012044 3.3615519 L 1.0738363 3.15743 L 1.1575521 2.9533081 L 1.1280965 2.7331665 z M 12.029757 3.1150553 C 11.534582 3.1150553 11.133171 3.5164717 11.133171 4.0116414 C 11.133171 4.5068109 11.534582 4.9082275 12.029757 4.9082275 C 12.52492 4.9082275 12.926343 4.5068109 12.926343 4.0116414 C 12.926343 3.5164717 12.52492 3.1150553 12.029757 3.1150553 z M 1.1425659 3.1910197 L 1.1425659 3.3450155 L 1.1425659 3.4990112 L 1.0454142 3.4990112 L 0.9487793 3.4990112 L 0.83974202 3.7201864 L 0.73070475 3.940328 L 0.80925293 4.1320475 L 0.88780111 4.3232503 L 0.9849528 4.3232503 L 1.0826213 4.3232503 L 1.0443807 4.1981934 L 1.0061401 4.0726196 L 1.1823568 3.8132039 L 1.3580566 3.5532715 L 1.2500529 3.3718872 L 1.1425659 3.1910197 z M 14.370699 4.093807 L 14.263212 4.2746745 L 14.155208 4.4560588 L 14.330908 4.7159912 L 14.507125 4.9754069 L 14.468884 5.1009806 L 14.430644 5.2260376 L 14.528312 5.2260376 L 14.625464 5.2260376 L 14.704012 5.0348348 L 14.78256 4.8431152 L 14.673523 4.6224569 L 14.564486 4.4017985 L 14.467851 4.4017985 L 14.370699 4.4017985 L 14.370699 4.2478027 L 14.370699 4.093807 z M 8.0418864 4.1630534 C 7.8054037 4.1630534 7.5751199 4.187716 7.3504557 4.2286825 L 7.3881795 4.5749146 L 7.4553589 5.1929647 L 7.4305542 5.5888062 C 7.6265572 5.5392396 7.8304902 5.5097412 8.0418864 5.5097412 C 9.4173337 5.5097412 10.532174 6.6245809 10.532174 8.0000285 C 10.532174 8.0396152 10.527799 8.0781992 10.525972 8.117334 L 10.648962 8.117334 L 10.618473 8.3235229 L 10.588501 8.5291951 L 10.633976 8.5291951 L 10.679451 8.5291951 L 10.764201 8.4935384 L 10.847917 8.4578817 L 10.847917 8.3938029 L 10.847917 8.3292074 L 10.784355 8.4000041 L 10.720276 8.470284 L 10.671183 8.470284 L 10.622091 8.470284 L 10.682035 8.3907023 L 10.74198 8.3106038 L 10.754382 8.0000285 L 11.11095 8.0000285 L 11.107332 8.1033813 L 11.098547 8.3245565 L 11.165727 8.9426066 L 11.232906 9.5606567 L 11.202417 10.045898 L 11.2019 10.057784 L 10.976074 10.057784 L 11.017415 10.024194 L 10.932666 9.9466797 L 10.847917 9.8686483 L 10.847917 9.9347941 L 10.847917 10.00094 L 10.772469 10.00094 L 10.695988 10.00094 L 10.644828 10.057784 L 10.47688 10.057784 C 10.44731 10.057784 10.41788 10.055516 10.38903 10.052616 L 10.38903 9.4133789 L 10.480497 9.3808228 L 10.590568 9.3420654 L 10.58075 9.5389526 L 10.570931 9.7358398 L 10.576615 9.8391927 L 10.581783 9.9420288 L 10.655164 9.9420288 L 10.728544 9.9420288 L 10.794173 9.8546956 L 10.860319 9.7668457 L 10.820011 9.6045817 L 10.779704 9.4418009 L 10.770919 9.163265 L 10.761617 8.8852458 L 10.735779 8.856307 L 10.709941 8.8273682 L 10.552327 8.873877 L 10.395231 8.9203857 L 10.38903 9.0397583 L 10.38903 8.8253011 C 10.234854 9.2637232 9.9612934 9.6452788 9.6081991 9.9327271 L 9.650057 10.31875 L 9.7172363 10.9368 L 9.6867472 11.422559 L 9.6857137 11.433927 L 9.4604045 11.433927 L 9.5017456 11.400338 L 9.4169963 11.322823 L 9.3322469 11.245308 L 9.3322469 11.311454 L 9.3322469 11.377083 L 9.2562826 11.377083 L 9.1803182 11.377083 L 9.1291585 11.433927 L 8.9606934 11.433927 C 8.9311184 11.433927 8.9022142 11.43166 8.8733602 11.42876 L 8.8733602 10.789522 L 8.9643107 10.757483 L 9.0748983 10.718726 L 9.0650798 10.915613 L 9.0552612 11.1125 L 9.0604289 11.215336 L 9.0661133 11.318172 L 9.1394938 11.318172 L 9.2128743 11.318172 L 9.2785034 11.230839 L 9.3446493 11.143506 L 9.3038249 10.980725 L 9.264034 10.817944 L 9.255249 10.539925 L 9.2459473 10.261389 L 9.220109 10.23245 L 9.1953044 10.206095 C 9.0933617 10.259667 8.9866724 10.305393 8.8769775 10.344588 L 8.8733602 10.416418 L 8.8733602 10.346139 C 8.7595473 10.3866 8.6415877 10.417802 8.5209269 10.44174 L 8.5658854 10.857735 L 8.6330648 11.475785 L 8.6134277 11.789978 C 10.460473 11.513263 11.878345 9.9241916 11.878345 8.0000285 C 11.878345 6.8173323 11.342446 5.760404 10.501168 5.0565389 L 10.561112 5.60896 L 10.530623 6.0942017 L 10.52959 6.1060872 L 10.304281 6.1060872 L 10.345622 6.0724976 L 10.260872 5.9944661 L 10.176123 5.9169515 L 10.176123 5.9830973 L 10.176123 6.0492432 L 10.100159 6.0492432 L 10.024194 6.0492432 L 9.9730347 6.1060872 L 9.8045695 6.1060872 C 9.7749995 6.1060872 9.7460863 6.1038196 9.7172363 6.1009196 L 9.7172363 5.4611654 L 9.8081868 5.429126 L 9.9187744 5.3903687 L 9.9089559 5.5872559 L 9.8991374 5.7841431 L 9.904305 5.8874959 L 9.9099894 5.990332 L 9.98337 5.990332 L 10.05675 5.990332 L 10.12238 5.9029989 L 10.188009 5.8151489 L 10.147701 5.6528849 L 10.10791 5.4901042 L 10.098608 5.2115682 L 10.089823 4.933549 L 10.063985 4.9046102 L 10.03763 4.8756714 L 9.8805339 4.9221802 L 9.7234375 4.968689 L 9.7172363 5.0880615 L 9.7172363 4.6922201 L 9.7497925 4.7051392 L 9.7497925 4.7785197 L 9.7497925 4.8519002 L 9.9911214 4.8405314 L 10.204028 4.8307129 C 10.127457 4.7783574 10.047256 4.7312801 9.9668335 4.6844686 L 9.9125732 4.7221924 L 9.8386759 4.6105713 C 9.3025127 4.3256695 8.6913889 4.1630534 8.0418864 4.1630534 z M 7.1411662 4.273641 C 6.9707597 4.3147206 6.8047325 4.3667228 6.6440389 4.4297038 L 6.6440389 4.4359049 L 6.8853678 4.4245361 L 7.1266968 4.4136841 L 7.1618368 4.37441 L 7.1969767 4.3356527 L 7.1411662 4.273641 z M 6.6114827 4.4415894 C 5.2015076 5.0090142 4.2049113 6.3871124 4.2049113 8.0000285 C 4.2049113 9.447099 5.0067997 10.706426 6.1898031 11.36003 L 6.1898031 10.992094 L 6.2807536 10.960055 L 6.3908244 10.921297 L 6.3810059 11.118184 L 6.3711873 11.315072 L 6.3768717 11.417908 L 6.378422 11.453564 C 6.4254285 11.476255 6.4714498 11.500455 6.5194987 11.521261 L 6.5288005 11.521261 L 6.5944295 11.433411 L 6.6605754 11.346077 L 6.6202677 11.183297 L 6.5799601 11.020516 L 6.5711751 10.742497 L 6.5618734 10.463961 L 6.5360352 10.435539 L 6.5101969 10.4066 L 6.3531006 10.453109 L 6.1954875 10.499618 L 6.1892863 10.61899 L 6.1892863 10.222632 L 6.2223592 10.236068 L 6.2223592 10.308931 L 6.2223592 10.382312 L 6.4636882 10.37146 L 6.7045003 10.360608 L 6.7401571 10.321334 L 6.775297 10.28206 L 6.692098 10.190076 L 6.6083822 10.098092 L 6.4967611 10.175606 L 6.3846232 10.252604 L 6.3071086 10.136332 L 6.2290771 10.02006 L 6.1892863 10.066052 L 6.1892863 9.6965658 L 6.2223592 9.6965658 C 5.8438944 9.2909866 5.5999001 8.759585 5.5593506 8.1715942 L 5.5448812 8.4000041 L 5.5443644 8.4113729 L 5.3190552 8.4113729 L 5.3603963 8.3777832 L 5.2751302 8.3002686 L 5.1908976 8.2227539 L 5.1908976 8.2888997 L 5.1908976 8.3545288 L 5.1149333 8.3545288 L 5.0384521 8.3545288 L 4.9872925 8.4113729 L 4.8193441 8.4113729 C 4.7897741 8.4113729 4.7608609 8.4091052 4.7320109 8.4062052 L 4.7320109 7.7669678 L 4.8229614 7.7349284 L 4.933549 7.6961711 L 4.9237305 7.8930583 L 4.9139119 8.0899455 L 4.9190796 8.1927816 L 4.9242472 8.2956177 L 4.9976278 8.2956177 L 5.0710083 8.2956177 L 5.1371541 8.2082845 L 5.2027832 8.1204346 L 5.1624756 7.9581706 L 5.122168 7.7953898 L 5.113383 7.5173706 L 5.1040812 7.2388346 L 5.078243 7.2098958 L 5.0524048 7.1814738 L 4.8953084 7.2279826 L 4.7382121 7.2739746 L 4.7320109 7.3938639 L 4.7320109 6.9975057 L 4.7645671 7.0109416 L 4.7645671 7.0838053 L 4.7645671 7.1571859 L 5.005896 7.1458171 L 5.2472249 7.134965 L 5.2823649 7.0956909 L 5.3175049 7.0569336 L 5.2343058 6.9644328 L 5.1511068 6.8729655 L 5.0389689 6.9499634 L 4.9273478 7.027478 L 4.8493164 6.9112061 L 4.7718018 6.7949341 L 4.7320109 6.8409261 L 4.7320109 6.4709229 L 4.8451823 6.4709229 L 4.9914266 6.4709229 L 4.9614543 6.6771118 L 4.9309652 6.882784 L 4.9764404 6.882784 L 5.0224325 6.882784 L 5.106665 6.8471273 L 5.1908976 6.8119873 L 5.1908976 6.7473918 L 5.1908976 6.6827962 L 5.1268188 6.7535929 L 5.0627401 6.8243896 L 5.0136475 6.8243896 L 4.9645549 6.8243896 L 5.0250163 6.7442912 L 5.0849609 6.6641927 L 5.0968465 6.3536174 L 5.4539307 6.3536174 L 5.4497965 6.4569702 L 5.4410116 6.6781453 L 5.5081909 7.2961955 L 5.5614176 7.7809204 C 5.648338 6.786652 6.3200923 5.9616952 7.2305664 5.6477173 L 7.1551188 5.5789876 L 7.0703695 5.5009562 L 7.0703695 5.5676188 L 7.0703695 5.6332479 L 6.9944051 5.6332479 L 6.9184408 5.6332479 L 6.8667643 5.690092 L 6.6988159 5.690092 C 6.6692459 5.690092 6.6403327 5.6878243 6.6114827 5.6849243 L 6.6114827 5.0456868 L 6.7024333 5.0131307 L 6.8130208 4.9748901 L 6.8032023 5.1712606 L 6.7933838 5.3681478 L 6.7985514 5.4715007 L 6.8037191 5.5743368 L 6.8770996 5.5743368 L 6.9504801 5.5743368 L 7.016626 5.4870036 L 7.082255 5.3991536 L 7.0419474 5.2368896 L 7.0021566 5.0741089 L 6.9928548 4.7955729 L 6.9835531 4.5175537 L 6.9582316 4.4886149 L 6.9318766 4.4601929 L 6.7747803 4.5061849 L 6.6176839 4.5526937 L 6.6114827 4.6720662 L 6.6114827 4.4415894 z M 7.1995605 4.4560588 L 7.1918091 4.573881 L 7.1835409 4.6917033 L 7.233667 4.6917033 L 7.2832764 4.6917033 L 7.2832764 4.573881 L 7.2832764 4.4560588 L 7.2414185 4.4560588 L 7.1995605 4.4560588 z M 1.210262 4.5981689 L 1.2443685 4.5981689 L 1.2779582 4.5981689 L 1.2779582 4.6668986 L 1.2779582 4.7356283 L 1.2443685 4.7356283 L 1.210262 4.7356283 L 1.210262 4.6668986 L 1.210262 4.5981689 z M 7.2238485 4.7500977 L 7.2569214 4.8090088 L 7.2894775 4.8684367 L 7.3132487 4.8684367 L 7.3365031 4.8684367 L 7.3365031 4.8090088 L 7.3365031 4.7500977 L 7.2801758 4.7500977 L 7.2238485 4.7500977 z M 7.3365031 4.9035767 L 7.277592 4.968689 L 7.2181641 5.034318 L 7.2543376 5.0983968 L 7.2894775 5.1619588 L 7.3132487 5.1619588 L 7.3365031 5.1619588 L 7.3365031 5.0327677 L 7.3365031 4.9035767 z M 10.303247 4.905127 L 10.297563 4.9898763 L 10.289294 5.1071818 L 10.339421 5.1071818 L 10.389547 5.1071818 L 10.389547 4.9898763 L 10.389547 4.9702393 C 10.361082 4.9481433 10.332343 4.9264302 10.303247 4.905127 z M 14.171745 5.0906453 L 14.139189 5.3526449 C 14.147132 5.5516376 14.153713 5.7527047 14.157792 5.988265 L 14.171228 6.0332235 L 14.158826 6.0487264 C 14.159931 6.1199655 14.159529 6.3087843 14.160376 6.3908244 L 14.205851 6.3489665 L 14.378451 6.1898031 L 14.409456 6.1898031 L 14.439945 6.1898031 L 14.439945 6.4915934 L 14.439945 6.7939006 L 14.358813 6.6290527 L 14.277165 6.4642049 L 14.218254 6.4642049 L 14.160376 6.4642049 C 14.160395 6.4662539 14.160874 6.4704165 14.160893 6.4724731 L 14.207918 6.7727132 L 14.255977 7.0812215 L 14.365015 7.2610555 L 14.474052 7.4403727 L 14.32109 7.3551066 L 14.168644 7.2698405 L 14.168644 7.4176351 L 14.168644 7.5659465 L 14.304036 7.8010742 L 14.439945 8.0367187 L 14.439945 8.1240519 L 14.439945 8.2119019 L 14.281816 8.1509237 L 14.166577 8.1059652 C 14.166261 9.5198536 14.1617 10.050382 14.14384 10.538375 L 14.192415 10.694438 L 14.248743 10.872721 L 14.202751 11.106816 L 14.156242 11.340393 L 14.132987 12.333614 L 14.109733 13.326318 L 14.278715 13.595553 L 14.436845 13.847217 L 14.563452 13.859619 L 14.576371 13.859619 C 14.623423 13.799609 14.668196 13.739227 14.710213 13.678235 L 14.71073 13.555762 L 14.711764 13.29893 L 14.615645 13.459127 L 14.520044 13.620357 L 14.477153 13.478764 L 14.433744 13.337687 L 14.498857 13.092741 L 14.563452 12.847278 L 14.467851 12.582694 L 14.372249 12.318111 L 14.372249 12.207007 L 14.372249 12.095903 L 14.467334 12.095903 L 14.562419 12.095903 L 14.547949 11.675773 L 14.53348 11.25616 L 14.580505 11.197766 L 14.627014 11.139372 L 14.641484 10.759033 L 14.65647 10.379211 L 14.659054 9.722404 L 14.662154 9.0661133 L 14.620813 8.9818807 L 14.578955 8.8976481 L 14.475602 9.0712809 L 14.372249 9.2449137 L 14.377934 8.9193522 L 14.383101 8.5932739 L 14.417208 8.7658732 L 14.451831 8.9384725 L 14.513843 8.8609578 L 14.575854 8.7829264 L 14.575854 8.3643473 L 14.575854 7.9457682 L 14.67559 8.0232829 L 14.775326 8.1007975 L 14.821834 7.9483521 L 14.868343 7.7964233 L 14.772742 7.6455282 L 14.677657 7.494633 L 14.687476 7.2197144 L 14.697294 6.9453125 L 14.704529 6.6362874 L 14.711764 6.3272624 L 14.813566 6.3272624 L 14.915369 6.3272624 L 14.915369 6.1898031 L 14.915369 6.0523437 L 14.845605 6.0523437 L 14.776359 6.0523437 L 14.711764 5.7086955 L 14.647168 5.365564 L 14.577922 5.365564 L 14.508158 5.365564 L 14.505575 5.674589 L 14.502991 5.9836141 L 14.406873 5.5371297 L 14.311271 5.0906453 L 14.241508 5.0906453 L 14.171745 5.0906453 z M 10.329602 5.1660929 L 10.362675 5.2250041 L 10.395231 5.2839152 L 10.419002 5.2839152 L 10.442773 5.2839152 L 10.442773 5.2250041 L 10.442773 5.1660929 L 10.386446 5.1660929 L 10.329602 5.1660929 z M 10.442773 5.3195719 L 10.383346 5.3846842 L 10.323918 5.4503133 L 10.360091 5.5143921 L 10.395231 5.5779541 L 10.419002 5.5779541 L 10.442773 5.5779541 L 10.442773 5.448763 L 10.442773 5.3195719 z M 1.6283244 5.3536784 L 1.6634644 5.5335124 L 1.6991211 5.7138631 L 1.6582967 5.7970622 L 1.6174723 5.8802612 L 1.62264 5.6167114 L 1.6283244 5.3536784 z M 14.235307 5.5009562 L 14.268896 5.5009562 L 14.303003 5.5009562 L 14.303003 5.5696859 L 14.303003 5.6378988 L 14.268896 5.6378988 L 14.235307 5.6378988 L 14.235307 5.5696859 L 14.235307 5.5009562 z M 0.59944661 5.8342692 L 0.59944661 6.1086711 L 0.59944661 6.3835897 L 0.66714274 6.3835897 L 0.73535563 6.3835897 L 0.73535563 6.1091878 L 0.73535563 5.8342692 L 0.66714274 5.8342692 L 0.59944661 5.8342692 z M 14.777909 6.7370565 L 14.777909 7.0114583 L 14.777909 7.286377 L 14.846122 7.286377 L 14.913818 7.286377 L 14.913818 7.0114583 L 14.913818 6.7370565 L 14.846122 6.7370565 L 14.777909 6.7370565 z M 5.3200887 7.1773397 L 5.3118205 7.2951619 L 5.304069 7.4129842 L 5.3541951 7.4129842 L 5.4038045 7.4129842 L 5.4038045 7.2951619 L 5.4038045 7.1773397 L 5.3619466 7.1773397 L 5.3200887 7.1773397 z M 5.3443766 7.4718953 L 5.3774495 7.5302897 L 5.4100057 7.5897176 L 5.4337769 7.5897176 L 5.4570312 7.5897176 L 5.4570312 7.5302897 L 5.4570312 7.4718953 L 5.4007039 7.4718953 L 5.3443766 7.4718953 z M 5.4570312 7.6248576 L 5.3981201 7.6899699 L 5.3386922 7.755599 L 5.374349 7.8196777 L 5.4100057 7.8837565 L 5.4337769 7.8837565 L 5.4570312 7.8837565 L 5.4570312 7.7540487 L 5.4570312 7.6248576 z M 0.80305176 7.7411296 L 0.7343221 7.8274292 L 0.66507568 7.9137288 L 0.70434977 8.0413696 L 0.7431071 8.1695272 L 0.77307943 8.1695272 L 0.80305176 8.1695272 L 0.80305176 7.95507 L 0.80305176 7.7411296 z M 10.47843 8.5147257 C 10.462926 8.5884738 10.443974 8.6610973 10.422103 8.7322835 L 10.422103 8.803597 L 10.663432 8.7922282 L 10.904244 8.7813761 L 10.939901 8.7421021 L 10.975041 8.7033447 L 10.891842 8.6108439 L 10.808126 8.5188599 L 10.695988 8.5963745 L 10.584367 8.6738892 L 10.506852 8.5576172 L 10.47843 8.5147257 z M 14.710213 8.6439168 L 14.710213 8.8578573 L 14.710213 9.0717977 L 14.740186 9.0717977 L 14.770158 9.0717977 L 14.808915 8.9441569 L 14.848189 8.8165161 L 14.778943 8.7302165 L 14.710213 8.6439168 z M 10.977108 8.8237508 L 10.969356 8.9415731 L 10.961088 9.0588786 L 11.011214 9.0588786 L 11.06134 9.0588786 L 11.06134 8.9415731 L 11.06134 8.8237508 L 11.019482 8.8237508 L 10.977108 8.8237508 z M 11.001396 9.1177897 L 11.034469 9.1767008 L 11.067542 9.235612 L 11.090796 9.235612 L 11.114567 9.235612 L 11.114567 9.1767008 L 11.114567 9.1177897 L 11.05824 9.1177897 L 11.001396 9.1177897 z M 11.114567 9.2712687 L 11.055139 9.336381 L 10.996228 9.4020101 L 11.031885 9.4660889 L 11.067542 9.5296509 L 11.090796 9.5296509 L 11.114567 9.5296509 L 11.114567 9.4004598 L 11.114567 9.2712687 z M 6.4207967 9.8882853 L 6.4187297 9.902238 L 6.3887573 10.108427 L 6.4342326 10.108427 L 6.4802246 10.108427 L 6.5644572 10.07277 L 6.6249186 10.046932 C 6.6040375 10.032456 6.5843508 10.016548 6.5639404 10.001457 L 6.5205322 10.049516 L 6.4714396 10.049516 L 6.422347 10.049516 L 6.4828084 9.9694173 L 6.4967611 9.9508138 C 6.4709983 9.9303891 6.4457177 9.9096933 6.4207967 9.8882853 z M 9.4397339 10.057784 C 9.3850902 10.095093 9.3289222 10.130263 9.2712687 10.163204 L 9.3885742 10.158036 L 9.424231 10.118762 L 9.4593709 10.079488 L 9.4397339 10.057784 z M 9.461438 10.199894 L 9.4536865 10.317716 L 9.4454183 10.435539 L 9.4955444 10.435539 L 9.5456706 10.435539 L 9.5456706 10.317716 L 9.5456706 10.199894 L 9.5038127 10.199894 L 9.461438 10.199894 z M 6.9339437 10.227799 L 6.9659831 10.521322 L 7.0331624 11.139372 L 7.0026733 11.62513 L 7.0021566 11.636499 L 6.8249064 11.636499 C 7.1310937 11.738962 7.4544032 11.803508 7.7891886 11.826152 L 7.7891886 11.327991 L 7.8801392 11.295951 L 7.9907267 11.257194 L 7.9809082 11.454081 L 7.9710897 11.650968 L 7.9762573 11.754321 L 7.9803914 11.83442 C 8.0010422 11.834761 8.0211517 11.837004 8.0418864 11.837004 C 8.0767271 11.837004 8.1111382 11.835343 8.145756 11.83442 L 8.1943319 11.769307 L 8.2599609 11.681974 L 8.2196533 11.51971 L 8.1798625 11.35693 L 8.1705607 11.078394 L 8.1617757 10.800374 L 8.1359375 10.771436 L 8.1095825 10.742497 L 7.9524862 10.789006 L 7.7953898 10.835514 L 7.7891886 10.954887 L 7.7891886 10.559045 L 7.8217448 10.571965 L 7.8217448 10.645345 L 7.8217448 10.718726 L 8.0630737 10.707357 L 8.3044027 10.696505 L 8.3395426 10.657231 L 8.3751994 10.618473 L 8.2920003 10.525972 L 8.2511759 10.481531 C 8.2119992 10.484873 8.1720154 10.484716 8.1323201 10.486182 L 8.0961466 10.511503 L 7.9845256 10.589018 L 7.9137288 10.482564 C 7.5633009 10.464179 7.2316173 10.3761 6.9339437 10.227799 z M 6.7773641 10.402466 L 6.7696126 10.520805 L 6.7613444 10.63811 L 6.8114705 10.63811 L 6.8615967 10.63811 L 6.8615967 10.520805 L 6.8615967 10.402466 L 6.8197388 10.402466 L 6.7773641 10.402466 z M 9.4857259 10.49445 L 9.5187988 10.552844 L 9.5518717 10.612272 L 9.5751261 10.612272 L 9.5988973 10.612272 L 9.5988973 10.552844 L 9.5988973 10.49445 L 9.54257 10.49445 L 9.4857259 10.49445 z M 9.5988973 10.647412 L 9.5394694 10.712524 L 9.4805583 10.778153 L 9.516215 10.842232 L 9.5518717 10.906311 L 9.5751261 10.906311 L 9.5988973 10.906311 L 9.5988973 10.776603 L 9.5988973 10.647412 z M 6.8021688 10.697021 L 6.8352417 10.755933 L 6.8677979 10.814844 L 6.8910522 10.814844 L 6.9148234 10.814844 L 6.9148234 10.755933 L 6.9148234 10.697021 L 6.8584961 10.697021 L 6.8021688 10.697021 z M 8.3772664 10.738879 L 8.369515 10.856702 L 8.3612467 10.974007 L 8.4113729 10.974007 L 8.461499 10.974007 L 8.461499 10.856702 L 8.461499 10.738879 L 8.4191243 10.738879 L 8.3772664 10.738879 z M 6.9148234 10.849984 L 6.8559123 10.915613 L 6.7964844 10.981242 L 6.8321411 11.045321 L 6.8677979 11.108883 L 6.8910522 11.108883 L 6.9148234 11.108883 L 6.9148234 10.979692 L 6.9148234 10.849984 z M 8.4015544 11.032918 L 8.4346273 11.091829 L 8.4671834 11.150741 L 8.4909546 11.150741 L 8.5147257 11.150741 L 8.5147257 11.091829 L 8.5147257 11.032918 L 8.4583984 11.032918 L 8.4015544 11.032918 z M 8.5147257 11.186397 L 8.4552979 11.25151 L 8.39587 11.317139 L 8.4320435 11.381217 L 8.4671834 11.444779 L 8.4909546 11.444779 L 8.5147257 11.444779 L 8.5147257 11.315588 L 8.5147257 11.186397 z M 1.6092041 11.191048 L 1.6515788 11.328507 L 1.6934367 11.465967 L 1.723409 11.465967 L 1.7533813 11.465967 L 1.7533813 11.328507 L 1.7533813 11.191048 L 1.6810343 11.191048 L 1.6092041 11.191048 z M 6.6486898 11.44788 L 6.6486898 11.514026 L 6.6486898 11.571903 C 6.6959741 11.590366 6.7436585 11.607995 6.7918335 11.624613 L 6.8181885 11.603426 L 6.7329224 11.525395 L 6.6486898 11.44788 z M 8.2480754 11.783777 L 8.2480754 11.831319 C 8.2641983 11.830465 8.2800649 11.828755 8.2961344 11.827702 L 8.2480754 11.783777 z M 1.4815633 11.877828 L 1.4815633 12.015287 L 1.4815633 12.152747 L 1.5115356 12.152747 L 1.541508 12.152747 L 1.5833659 12.015287 L 1.6257406 11.877828 L 1.5533936 11.877828 L 1.4815633 11.877828 z M 13.783655 12.593547 C 13.663734 12.847974 13.518613 13.054442 13.307198 13.265857 C 13.073117 13.499938 12.845249 13.652567 12.550655 13.779521 L 12.584762 13.787272 L 12.938745 13.787272 L 13.292212 13.787272 L 13.121163 13.889075 L 12.950631 13.990877 L 13.173356 13.990877 L 13.396082 13.990877 L 13.396082 14.09268 L 13.396082 14.194482 L 13.533541 14.194482 L 13.671 14.194482 L 13.671 13.983126 L 13.671 13.772286 L 14.116968 13.815694 L 14.23634 13.82758 L 14.23634 13.744381 L 14.23634 13.606921 L 14.134538 13.606921 L 14.032735 13.606921 L 14.032735 13.384196 L 14.032735 13.161471 L 13.930933 13.332003 L 13.82913 13.503052 L 13.82913 13.149585 L 13.82913 12.795601 L 13.783655 12.593547 z M 13.887524 12.780615 L 13.929899 12.918075 L 13.971757 13.055534 L 14.001729 13.055534 L 14.031702 13.055534 L 14.031702 12.918075 L 14.031702 12.780615 L 13.959355 12.780615 L 13.887524 12.780615 z M 12.569775 13.845667 L 12.569775 13.918014 L 12.569775 13.989844 L 12.707235 13.989844 L 12.844694 13.989844 L 12.844694 13.959871 L 12.844694 13.929899 L 12.707235 13.888041 L 12.569775 13.845667 z M 2.1306193 13.989844 L 2.1306193 14.061674 L 2.1306193 14.133504 L 2.2680786 14.091646 L 2.4055379 14.049272 L 2.4055379 14.019299 L 2.4055379 13.989844 L 2.2680786 13.989844 L 2.1306193 13.989844 z M 2.4877035 13.989844 L 2.6406657 14.065291 L 2.7936279 14.140739 L 2.9429728 14.095264 L 3.0923177 14.049272 L 3.0923177 14.019299 L 3.0923177 13.989844 L 2.7900106 13.989844 L 2.4877035 13.989844 z M 1.6763835 14.05754 C 1.7121285 14.097561 1.7483229 14.137552 1.786971 14.177429 L 1.99316 14.184664 L 1.99316 14.121102 L 1.99316 14.05754 L 1.7187581 14.05754 L 1.6763835 14.05754 z M 13.115479 14.067875 L 12.122774 14.09113 L 11.129553 14.114384 L 10.895976 14.160893 L 10.662398 14.206885 L 10.483598 14.150557 L 10.348722 14.108183 C 9.8995168 14.120802 9.3618006 14.125236 8.0418864 14.125236 C 7.9672941 14.125236 7.9649228 14.124741 7.8951253 14.124719 L 7.9400838 14.239958 L 8.001062 14.398088 L 7.9132121 14.398088 L 7.8258789 14.398088 L 7.5902344 14.262695 L 7.3551066 14.126786 L 7.2067952 14.126786 L 7.0590007 14.126786 L 7.1442668 14.279232 L 7.2295329 14.432194 L 7.0502157 14.323157 L 6.8703817 14.214119 L 6.5618734 14.16606 L 6.2549154 14.117485 C 6.2545707 14.11748 6.2537095 14.117489 6.2533651 14.117485 L 6.2533651 14.176396 L 6.2533651 14.235307 L 6.4182129 14.316956 L 6.5830607 14.398088 L 6.2807536 14.398088 L 5.9789632 14.398088 L 5.9789632 14.367598 L 5.9789632 14.336593 L 6.1381266 14.163993 L 6.1810181 14.117485 C 6.0661213 14.115883 5.9413568 14.113578 5.8451213 14.111283 L 5.8223836 14.12937 L 5.7552043 14.1087 C 5.5767122 14.103829 5.3899485 14.097706 5.2048503 14.089579 L 4.8798055 14.129887 L 4.8798055 14.19965 L 4.8798055 14.269413 L 5.3262899 14.365015 L 5.7727743 14.461133 L 5.4637492 14.463717 L 5.1547241 14.4663 L 5.1547241 14.536064 L 5.1547241 14.60531 L 5.4983724 14.669906 L 5.8415039 14.734501 L 5.8415039 14.803748 L 5.8415039 14.873511 L 5.9789632 14.873511 L 6.1164225 14.873511 L 6.1164225 14.771708 L 6.1164225 14.669906 L 6.4254476 14.662671 L 6.7344727 14.655436 L 7.0088745 14.645618 L 7.2837931 14.635799 L 7.4346883 14.730884 L 7.5855835 14.826485 L 7.7375122 14.779976 L 7.8899577 14.733468 L 7.812443 14.633732 L 7.7349284 14.533997 L 8.1540243 14.533997 L 8.5720866 14.533997 L 8.650118 14.471985 L 8.7276326 14.409973 L 8.5550334 14.37535 L 8.3824341 14.341243 L 8.7085124 14.336076 L 9.0340739 14.330391 L 8.8609578 14.433744 L 8.6868083 14.537097 L 8.7710409 14.578955 L 8.8552734 14.620296 L 9.5115641 14.617196 L 10.168372 14.614612 L 10.548193 14.599626 L 10.929049 14.585156 L 10.986926 14.538647 L 11.045321 14.491622 L 11.464933 14.506091 L 11.885063 14.520561 L 11.885063 14.425476 L 11.885063 14.330391 L 11.996167 14.330391 L 12.107271 14.330391 L 12.372371 14.425993 L 12.636438 14.521594 L 12.881901 14.456999 L 13.126847 14.392403 L 13.267924 14.435295 L 13.409517 14.478186 L 13.248804 14.573787 L 13.08809 14.669906 L 13.344922 14.668872 L 13.602271 14.667839 L 13.743347 14.649235 C 13.788929 14.617217 13.834809 14.586378 13.879773 14.551567 L 13.863753 14.388269 L 13.654464 14.405839 L 13.384713 14.236857 L 13.115479 14.067875 z M 4.2452189 14.11335 L 4.0638346 14.221354 L 3.8829671 14.328841 L 4.0369629 14.328841 L 4.1909587 14.328841 L 4.1909587 14.425993 L 4.1909587 14.522628 L 4.411617 14.631665 L 4.6322754 14.740702 L 4.823995 14.662154 L 5.0151978 14.583606 L 5.0151978 14.486454 L 5.0151978 14.388786 L 4.8901408 14.427026 L 4.7645671 14.465267 L 4.5051514 14.28905 L 4.2452189 14.11335 z M 5.2901164 14.193449 L 5.358846 14.193449 L 5.4270589 14.193449 L 5.4270589 14.227039 L 5.4270589 14.261145 L 5.358846 14.261145 L 5.2901164 14.261145 L 5.2901164 14.227039 L 5.2901164 14.193449 z M 3.6452555 14.313855 L 3.2659505 14.365015 L 2.8861287 14.416174 L 2.236556 14.427543 L 2.0556885 14.430644 C 2.3026112 14.642746 2.5553704 14.806027 2.8277344 14.938623 L 2.8354858 14.938623 L 2.7450521 14.797546 L 2.6546183 14.656986 L 3.113505 14.669389 L 3.5729085 14.681791 L 3.8132039 14.675073 L 4.0534993 14.668355 L 4.0534993 14.574821 L 4.0534993 14.481287 L 3.8493774 14.397571 L 3.6452555 14.313855 z M 8.433077 14.668355 L 8.5193766 14.737085 L 8.6056763 14.806331 L 8.7333171 14.767057 L 8.8614746 14.7283 L 8.8614746 14.698328 L 8.8614746 14.668355 L 8.6470174 14.668355 L 8.433077 14.668355 z M 6.5262166 14.736051 L 6.5262166 14.804264 L 6.5262166 14.87196 L 6.8006185 14.87196 L 7.0755371 14.87196 L 7.0755371 14.804264 L 7.0755371 14.736051 L 6.8011353 14.736051 L 6.5262166 14.736051 z " /><path
       id="path6"
       style="fill:#432cf3;fill-opacity:1;stroke:none;stroke-width:0.0560003"
       d="m 10.082283,5.0770362 -0.01205,0.31043 -0.05995,0.08016 -0.06023,0.07985 h 0.04902 0.0493 l 0.06387,-0.07057 0.06387,-0.07057 v 0.06438 0.06438 l -0.08404,0.03559 -0.08432,0.03559 h -0.04566 -0.04566 l 0.03026,-0.205818 0.03025,-0.206128 h -0.14623 -0.113454 v 0.369854 l 0.03978,-0.04612 0.07788,0.116372 0.0776,0.1163727 0.1117737,-0.07738 0.112053,-0.07737 0.08348,0.09192 0.0832,0.09223 -0.0353,0.039 -0.0353,0.03931 -0.2411947,0.01083 -0.241197,0.01114 v -0.07335 -0.07304 l -0.03278,-0.01331 v 0.396161 l 0.0062,-0.119468 0.157156,-0.04643 0.1571547,-0.04643 0.02605,0.02878 0.02577,0.02878 0.0092,0.278241 0.009,0.278241 0.04006,0.162797 0.04034,0.162488 -0.06583,0.08759 -0.06583,0.08759 h -0.07339 -0.07339 l -0.0053,-0.103064 -0.0053,-0.103063 0.0098,-0.196842 0.0098,-0.196843 -0.110373,0.03869 -0.09104,0.03219 v 0.6394293 c 0.02885,0.0029 0.05783,0.005 0.0874,0.005 h 0.168081 l 0.05127,-0.05664 h 0.0762 0.07592 v -0.06593 -0.06623 l 0.0846,0.07768 0.08488,0.07769 -0.04146,0.03343 h 0.225509 l 8.13e-4,-0.01145 0.03054,-0.4856073 -0.06723,-0.618073 -0.06723,-0.6180727 0.0087,-0.220983 0.0039,-0.103374 z m 0.222987,0.8235817 h 0.04202 0.04202 v 0.11792 0.11761 H 10.33944 10.2893 l 0.0081,-0.11761 z m 0.02437,0.294335 h 0.05659 0.05631 v 0.05881 0.05911 h -0.02353 -0.02353 l -0.03278,-0.05911 z m 0.112894,0.153204 v 0.129371 0.129371 h -0.02353 -0.02353 l -0.03558,-0.06376 -0.03586,-0.06407 0.05939,-0.06561 z" /></g></svg>
