<?xml version="1.0" encoding="UTF-8" standalone="no"?>
<!-- Created with Inkscape (http://www.inkscape.org/) -->

<svg
   width="120"
   height="120"
   viewBox="0 0 120 120"
   version="1.1"
   id="svg1"
   xml:space="preserve"
   inkscape:version="1.3.2 (091e20e, 2023-11-25, custom)"
   sodipodi:docname="ig2N.svg"
   xmlns:inkscape="http://www.inkscape.org/namespaces/inkscape"
   xmlns:sodipodi="http://sodipodi.sourceforge.net/DTD/sodipodi-0.dtd"
   xmlns="http://www.w3.org/2000/svg"
   xmlns:svg="http://www.w3.org/2000/svg"><sodipodi:namedview
     id="namedview1"
     pagecolor="#ffffff"
     bordercolor="#000000"
     borderopacity="0.25"
     inkscape:showpageshadow="2"
     inkscape:pageopacity="0.0"
     inkscape:pagecheckerboard="0"
     inkscape:deskcolor="#d1d1d1"
     inkscape:document-units="px"
     inkscape:zoom="5.7552083"
     inkscape:cx="21.285068"
     inkscape:cy="51.518552"
     inkscape:window-width="2160"
     inkscape:window-height="1361"
     inkscape:window-x="-9"
     inkscape:window-y="-9"
     inkscape:window-maximized="1"
     inkscape:current-layer="layer1" /><defs
     id="defs1" /><g
     inkscape:label="Calque 1"
     inkscape:groupmode="layer"
     id="layer1"><path
       id="rect134"
       style="fill:#3524ac;fill-opacity:1;stroke-width:3.36378;stroke-linejoin:bevel"
       d="M 0,0 V 120 H 120 V 0 Z m 74.048828,3.7382812 c 0.244579,0.084205 1.480389,0.1718943 2.746094,0.1953126 1.383478,0.025597 2.71981,0.125587 3.203125,0.2402343 0.269677,0.06397 3.263142,-0.00257 4.458984,-0.099609 0.342181,-0.027767 0.517107,-0.00915 0.705078,0.078125 0.225233,0.1045747 1.903941,0.2798917 2.396485,0.25 0.679531,-0.04124 2.425307,0.00753 2.646484,0.074219 0.147904,0.044598 0.501267,0.089191 0.783203,0.099609 0.281937,0.010418 1.058916,0.065849 1.728516,0.1230469 0.6696,0.057198 1.7292,0.1071681 2.353515,0.109375 0.848563,0.003 1.209135,0.030822 1.427735,0.1113281 0.160831,0.059231 0.528622,0.1173286 0.818359,0.1289062 0.995689,0.039786 1.808043,0.1297622 1.970703,0.21875 0.251728,0.1377132 0.946481,0.258816 1.421871,0.2480469 0.39813,-0.00902 0.44528,0.00638 0.66211,0.2128906 0.22183,0.2112758 0.26481,0.2242537 0.82032,0.2441406 1.11756,0.040009 1.29482,0.064135 1.58007,0.2128907 0.15768,0.08223 0.48963,0.184452 0.73633,0.2265625 0.24669,0.042111 0.51437,0.1221043 0.59571,0.1796875 0.0813,0.057583 0.34228,0.1488487 0.57812,0.2011719 0.23584,0.052323 0.54262,0.141027 0.68359,0.1972656 0.14097,0.056239 0.45839,0.1240151 0.70508,0.1523437 0.32098,0.036859 0.56507,0.1181269 0.85547,0.2851563 0.22319,0.1283738 0.45298,0.2340655 0.51172,0.234375 0.0588,3.094e-4 0.28073,0.1733794 0.49219,0.3847656 0.21145,0.2113863 0.51328,0.4654778 0.67187,0.5644531 0.31466,0.1963755 1.07057,1.0127398 1.33399,1.4394527 0.091,0.147469 0.32603,0.381914 0.52148,0.521485 0.328,0.234224 0.3661,0.290436 0.49609,0.724609 0.0775,0.258719 0.20008,0.553144 0.27344,0.654297 0.0734,0.101154 0.19036,0.310909 0.25977,0.466797 0.0694,0.155887 0.21181,0.407633 0.3164,0.560547 0.1046,0.152913 0.2469,0.407331 0.31641,0.564453 0.0695,0.157122 0.2086,0.359809 0.30859,0.451172 0.18013,0.164586 0.2923,0.401067 0.36915,0.78125 0.0219,0.108304 0.11017,0.319101 0.19726,0.46875 0.0871,0.149648 0.20388,0.417156 0.25977,0.595703 0.0559,0.178547 0.14194,0.368231 0.1914,0.421875 0.0494,0.05364 0.0898,0.142653 0.0898,0.197265 0,0.05461 0.0361,0.101898 0.0801,0.103516 0.0964,0.0035 0.33297,0.39141 0.39063,0.640625 0.0228,0.09849 0.003,0.388656 -0.0469,0.644531 -0.11053,0.571963 -0.0858,1.445168 0.0527,1.804688 0.0568,0.147474 0.19847,0.427577 0.31445,0.621094 l 0.21094,0.351562 0.0156,1.042969 c 0.015,1.041887 0.0704,1.456968 0.23243,1.730469 0.115,0.194164 0.15523,0.613274 0.19531,2.021484 0.0273,0.958118 0.0538,1.196972 0.13476,1.263672 0.0549,0.04524 0.0816,0.113623 0.0606,0.15039 -0.0209,0.03677 0.01,0.08558 0.0664,0.109375 0.0814,0.0339 0.0973,0.109305 0.0723,0.34961 -0.0175,0.168699 -0.006,0.334819 0.0254,0.36914 0.034,0.03686 0.0157,0.24609 -0.0449,0.509766 -0.0565,0.245488 -0.12893,0.571696 -0.16015,0.724609 -0.0312,0.152915 -0.0864,0.385985 -0.12305,0.519532 -0.0931,0.339219 -0.0829,0.804261 0.0195,0.896484 0.0473,0.04258 0.10219,0.05957 0.12109,0.03906 0.0189,-0.0205 0.16839,-3.09e-4 0.33399,0.04492 0.22552,0.0616 0.31749,0.127171 0.36328,0.257813 0.0877,0.250116 -0.0988,0.80638 -0.38672,1.15625 -0.31693,0.385029 -0.41419,0.614629 -0.36328,0.851562 0.0232,0.107886 0.0582,0.305654 0.0781,0.439453 0.0199,0.1338 0.0788,0.430785 0.13086,0.660157 0.052,0.229371 0.10339,0.484529 0.11524,0.568359 0.0118,0.08383 0.041,0.187356 0.0645,0.228516 0.0235,0.04116 0.0117,0.175333 -0.0254,0.298828 -0.0371,0.123496 -0.0801,0.714709 -0.0977,1.314453 -0.0176,0.599744 -0.0386,1.117411 -0.0449,1.148437 -0.006,0.03103 0.0666,0.239494 0.16211,0.464844 0.0954,0.225349 0.16047,0.451369 0.14258,0.501953 -0.0179,0.05058 -0.005,0.11159 0.0293,0.134766 0.14268,0.09565 -0.0972,1.142578 -0.26172,1.142578 -0.1092,0 -0.13484,0.30857 -0.0664,0.773438 0.0884,0.600049 -0.014,1.833749 -0.19726,2.375 -0.13232,0.39074 -0.13449,0.40907 -0.0234,0.632812 0.0903,0.181939 0.10764,0.329463 0.0801,0.701172 -0.021,0.284283 -0.0686,0.495208 -0.1211,0.53125 -0.0478,0.03282 -0.064,0.05997 -0.0351,0.06055 0.029,5.86e-4 0.0131,0.04331 -0.0352,0.0957 -0.13414,0.145505 -0.12134,2.232169 0.0137,2.232422 0.12519,2.33e-4 0.37801,0.564582 0.38281,0.855469 0.004,0.229552 -0.16535,0.655813 -0.39062,0.986328 -0.10399,0.152572 -0.12477,0.342499 -0.15039,1.365234 -0.0228,0.910032 -0.009,1.281084 0.0645,1.583984 0.0522,0.217472 0.0957,0.546509 0.0957,0.732422 0,0.185915 0.0431,0.583179 0.0977,0.882813 0.14715,0.80897 0.18171,1.58025 0.0957,2.136719 -0.0744,0.481541 -0.0713,0.506318 0.1211,1.007812 0.2303,0.600326 0.25028,0.975215 0.0723,1.425781 -0.0693,0.175393 -0.11403,0.358659 -0.0996,0.40625 0.0144,0.04759 0.039,0.352792 0.0566,0.677735 0.0858,1.588725 0.19086,2.701532 0.27929,2.953125 0.0665,0.189282 0.10327,0.577973 0.11328,1.216797 0.0207,1.320648 0.13996,2.773968 0.23829,2.902343 0.0578,0.07547 0.0861,0.457527 0.0977,1.296875 0.0245,1.772166 0.10154,2.501728 0.29492,2.810547 0.14958,0.238867 0.15838,0.303796 0.15235,1.16211 -0.006,0.830073 0.006,0.931421 0.13867,1.164062 0.13248,0.232521 0.14749,0.35718 0.16992,1.419922 0.0273,1.294503 0.0391,1.392389 0.19141,1.644531 0.0586,0.09704 0.11957,0.356944 0.13672,0.578125 l 0.0312,0.402344 -0.32227,0.347656 c -0.17734,0.191143 -0.35683,0.440002 -0.39844,0.554688 -0.23733,0.65409 -0.49458,1.127489 -0.78711,1.449219 -0.18077,0.198815 -0.40671,0.462736 -0.5039,0.585937 -0.10405,0.131904 -0.2374,0.224609 -0.32422,0.224609 -0.0811,0 -0.20309,0.04522 -0.27149,0.09961 -0.26718,0.212451 -0.0583,1.576962 0.26172,1.708984 0.17696,0.07298 0.28516,0.268421 0.28516,0.513672 0,0.125477 -0.0542,0.207325 -0.18945,0.283203 -0.10468,0.05872 -0.21831,0.162275 -0.25196,0.230469 -0.0853,0.172838 -0.0407,2.179808 0.0527,2.36914 0.0411,0.08323 0.0998,0.134107 0.13086,0.113282 0.0311,-0.02082 0.0961,0.01644 0.14257,0.08398 0.0465,0.06754 0.12716,0.133862 0.17969,0.146484 0.0525,0.01262 0.11427,0.05435 0.13672,0.09375 0.0524,0.09191 -0.006,0.333985 -0.0801,0.333985 -0.0311,0 -0.0566,0.06144 -0.0566,0.134765 0,0.19664 -0.0692,0.356467 -0.13476,0.3125 -0.0736,-0.04936 -0.0712,0.06799 0.0117,0.457032 0.0366,0.172028 0.0691,0.438883 0.0703,0.591797 0.001,0.152913 0.0526,0.449899 0.11523,0.660156 0.0627,0.210257 0.13216,0.583732 0.1543,0.830078 0.0221,0.246347 0.0634,0.465074 0.0918,0.486328 0.0284,0.02125 0.055,0.101277 0.0586,0.177735 0.004,0.07646 0.0236,0.247059 0.0449,0.380859 0.0212,0.1338 0.0543,0.354481 0.0742,0.488281 0.02,0.1338 0.0834,0.296472 0.13867,0.363281 0.0649,0.07848 0.11898,0.350152 0.1543,0.765625 0.0301,0.353705 0.0665,0.752919 0.082,0.886719 0.0155,0.1338 0.0452,0.414743 0.0644,0.625 0.0192,0.210257 0.0489,0.46107 0.0664,0.556641 0.0175,0.09557 0.0466,0.355243 0.0645,0.578125 0.0177,0.222883 0.0442,0.428565 0.0605,0.457031 0.0362,0.06345 -0.14691,0.848054 -0.2207,0.945312 -0.0293,0.03858 -0.10105,0.35161 -0.16016,0.695313 -0.0591,0.343703 -0.14884,0.731703 -0.19922,0.863281 -0.0504,0.131578 -0.1353,0.528936 -0.1875,0.88086 -0.068,0.458506 -0.17524,0.826741 -0.3789,1.302734 -0.15632,0.365347 -0.30284,0.782639 -0.32618,0.927728 -0.0233,0.14509 -0.10786,0.37402 -0.1875,0.50782 -0.38725,0.65058 -0.54687,1.03318 -0.54687,1.3164 0,0.23247 -0.0339,0.32312 -0.16992,0.44336 -0.459,0.40586 -1.21044,1.3127 -1.3711,1.6543 -0.15377,0.32696 -1.60915,1.92295 -2.14258,2.34961 -0.21139,0.16908 -0.44122,0.3753 -0.51171,0.45703 -0.38302,0.44413 -1.53592,1.35446 -1.71485,1.35547 -0.0446,2.6e-4 -0.16772,0.0648 -0.27344,0.14258 -0.10573,0.0778 -0.28952,0.18762 -0.41015,0.24414 -0.12063,0.0565 -0.33678,0.20639 -0.48047,0.33203 -0.42644,0.37288 -0.83886,0.64931 -1.10352,0.74219 -0.40459,0.14199 -0.80058,0.41369 -1.17578,0.80468 -0.40598,0.42308 -0.75372,0.5513 -1.79492,0.66016 -0.42088,0.044 -0.65792,0.10201 -0.76953,0.19141 -0.0888,0.0711 -0.23134,0.1543 -0.31641,0.18359 -0.0851,0.0293 -0.28402,0.12798 -0.4414,0.21875 -0.15739,0.0908 -0.32872,0.16406 -0.38086,0.16406 -0.0521,0 -0.24933,0.0969 -0.43946,0.21485 -0.34217,0.21236 -0.35069,0.21294 -0.77734,0.13086 -0.39598,-0.0762 -0.46321,-0.0698 -0.81641,0.0723 -0.211444,0.085 -0.673744,0.2075 -1.027339,0.27149 -0.353596,0.064 -0.712867,0.16906 -0.798829,0.23437 -0.08596,0.0653 -0.200074,0.1189 -0.253906,0.11914 -0.05383,2.3e-4 -0.185288,0.0523 -0.291015,0.11524 -0.105726,0.063 -0.335508,0.12379 -0.511719,0.13476 -0.176211,0.011 -0.594888,0.0503 -0.929688,0.0879 -0.334799,0.0375 -0.954047,0.10059 -1.376953,0.13867 -0.422905,0.0381 -0.898052,0.12022 -1.05664,0.1836 -0.288453,0.11527 -0.520423,0.14013 -3.330079,0.34765 -0.826863,0.0611 -1.619422,0.14012 -1.761718,0.17578 -0.142295,0.0357 -0.364905,0.0655 -0.494141,0.0664 -0.129236,9.3e-4 -0.370935,0.0653 -0.537109,0.14258 -0.166173,0.0773 -0.574532,0.1695 -0.908203,0.20703 -0.333672,0.0375 -0.641161,0.0921 -0.681641,0.11914 -0.04048,0.0271 -0.490903,0.0501 -1.001953,0.0527 -0.79012,0.004 -0.989301,0.029 -1.328125,0.16015 -0.243596,0.0943 -0.547656,0.1543 -0.783203,0.1543 -0.415484,0 -0.957587,0.079 -1.9375,0.28515 -0.341578,0.0719 -0.734476,0.13086 -0.873047,0.13086 -0.138571,0 -0.367083,0.0439 -0.507813,0.0977 -0.147585,0.0565 -0.646171,0.1154 -1.177734,0.13867 -3.017657,0.13209 -4.387412,0.25649 -5.349609,0.48438 -0.448428,0.1062 -1.071335,0.19774 -1.47461,0.21679 -0.383798,0.0181 -0.812156,0.051 -0.953125,0.0723 -0.670253,0.1014 -4.632937,0.21008 -6.183593,0.16992 -1.804312,-0.0467 -2.195574,-0.0159 -4.486329,0.36524 -0.229073,0.0381 -0.834692,0.0759 -1.345703,0.084 -0.51101,0.008 -1.07379,0.0334 -1.25,0.0547 -0.176211,0.0213 -0.737036,0.0107 -1.248047,-0.0254 -0.51101,-0.0357 -1.289942,-0.0752 -1.730468,-0.0859 -0.452551,-0.011 -0.883576,-0.0564 -0.992188,-0.10547 -0.127801,-0.0577 -0.443375,-0.0795 -0.939453,-0.0644 -0.619255,0.0188 -0.766583,0.004 -0.865234,-0.0898 -0.183311,-0.1749 -0.292198,-0.19179 -1.527344,-0.23632 -0.634358,-0.0229 -1.312029,-0.0605 -1.50586,-0.082 -0.405735,-0.0449 -1.397809,-0.0762 -3.740234,-0.12109 -0.911399,-0.0175 -1.77601,-0.0516 -1.921875,-0.0742 -0.145864,-0.0226 -0.612251,-0.0544 -1.035156,-0.0723 -0.422906,-0.0179 -0.855211,-0.0447 -0.960938,-0.0586 -0.105726,-0.0138 -1.001667,-0.0463 -1.992187,-0.0723 l -1.800781,-0.0469 -0.197266,0.17969 -0.197266,0.17969 -0.246093,-0.14063 c -0.215856,-0.12205 -0.370527,-0.13836 -1.238282,-0.13867 -0.545444,-1.9e-4 -1.179129,0.003 -1.408203,0.01 -0.229074,0.006 -0.605772,-0.0123 -0.835937,-0.043 -0.387562,-0.0518 -0.443574,-0.0421 -0.765625,0.14062 -0.335641,0.19037 -0.376998,0.19624 -1.183594,0.18164 -1.004813,-0.0182 -2.560477,-0.12951 -3.046875,-0.21875 -0.193832,-0.0356 -0.77024,-0.0812 -1.28125,-0.10156 -0.511011,-0.0204 -1.173099,-0.0849 -1.472656,-0.14258 -0.894312,-0.1723 -3.96246,-0.10358 -4.19336,0.0937 -0.171519,0.14659 -1.293024,0.25183 -1.542968,0.14453 -0.111797,-0.048 -0.634585,-0.0924 -1.25,-0.10546 -0.582001,-0.0123 -1.138028,-0.0552 -1.236328,-0.0957 -0.0983,-0.0405 -0.658796,-0.0766 -1.246094,-0.0801 -0.805618,-0.005 -1.112383,-0.0322 -1.25,-0.10937 -0.140299,-0.0787 -0.379938,-0.0964 -1.03711,-0.0801 -0.972092,0.0242 -1.044188,-0.009 -1.18164,-0.50586 -0.0426,-0.15422 -0.213454,-0.44556 -0.378906,-0.64844 -0.165453,-0.20289 -0.379352,-0.48154 -0.476563,-0.61914 -0.202588,-0.28677 -0.500716,-0.45457 -0.796875,-0.44726 -0.254629,0.006 -0.36514,-0.0884 -0.542969,-0.47461 -0.07686,-0.16695 -0.242819,-0.3831 -0.36914,-0.48047 -0.391082,-0.30146 -0.681359,-0.54544 -0.988281,-0.83008 -0.162288,-0.15051 -0.345486,-0.28466 -0.408203,-0.29687 -0.06272,-0.0122 -0.230126,-0.0398 -0.371094,-0.0625 -0.140969,-0.0226 -0.282926,-0.0691 -0.316406,-0.10352 -0.03348,-0.0345 -0.128641,-0.0625 -0.210938,-0.0625 -0.123445,0 -0.138101,-0.0213 -0.08789,-0.12305 0.04232,-0.0858 0.02302,-0.23674 -0.06055,-0.49414 -0.126702,-0.39027 -0.212747,-0.54063 -0.396485,-0.68945 -0.06167,-0.0499 -0.113281,-0.13239 -0.113281,-0.18164 0,-0.0493 -0.05737,-0.14458 -0.126953,-0.21289 -0.06959,-0.0683 -0.1434,-0.19051 -0.166016,-0.27149 -0.02262,-0.081 -0.183353,-0.32422 -0.355468,-0.54101 -0.172116,-0.2168 -0.312359,-0.42144 -0.3125,-0.45313 -1.42e-4,-0.0317 -0.141266,-0.22631 -0.314454,-0.43359 -0.20449,-0.24474 -0.342758,-0.48867 -0.394531,-0.69531 -0.04385,-0.17501 -0.127878,-0.39662 -0.185547,-0.49219 -0.151107,-0.25042 -0.257812,-0.54108 -0.257812,-0.69922 0,-0.1617 -0.265628,-0.63879 -0.429688,-0.77148 -0.148013,-0.11972 -0.397048,-0.74384 -0.503906,-1.26563 -0.04604,-0.22481 -0.111794,-0.49168 -0.146484,-0.59179 -0.03469,-0.10013 -0.08104,-0.33469 -0.101563,-0.52149 -0.02052,-0.1868 -0.105691,-0.58067 -0.191406,-0.875 -0.08572,-0.29433 -0.176328,-0.73525 -0.199219,-0.98047 -0.02289,-0.24526 -0.109324,-0.71217 -0.193359,-1.037106 -0.131754,-0.509458 -0.155401,-0.757756 -0.164063,-1.80664 -0.0077,-0.927679 0.01277,-1.275402 0.08398,-1.460938 0.09947,-0.259127 0.09694,-0.49818 -0.0078,-0.855468 -0.03565,-0.12158 -0.08059,-0.42339 -0.101562,-0.671875 -0.03898,-0.461901 -0.189518,-1.35131 -0.283203,-1.677735 -0.03072,-0.107042 -0.02477,-0.234082 0.01367,-0.308594 0.03595,-0.06968 0.07239,-0.620914 0.08203,-1.224609 0.0096,-0.603693 0.0351,-1.128207 0.05664,-1.166015 0.07205,-0.126456 -0.110168,-1.282493 -0.228515,-1.449219 -0.119214,-0.167947 -0.114871,-0.535035 0.0098,-0.890625 0.0337,-0.09614 0.06055,-0.636897 0.06055,-1.201172 0,-1.004483 -0.0033,-1.027671 -0.160156,-1.1875 -0.20265,-0.206513 -0.202307,-0.348809 0.002,-0.587891 0.22207,-0.259922 0.333728,-1.10515 0.226563,-1.726562 -0.119725,-0.694238 -0.119671,-1.249992 0,-2.119141 0.13844,-1.005466 0.206334,-2.073861 0.205078,-3.21289 -5.27e-4,-0.477857 0.03769,-1.146157 0.08398,-1.484376 0.0463,-0.338217 0.10167,-0.97836 0.125,-1.423828 0.02333,-0.445467 0.08332,-0.963819 0.132813,-1.152343 0.113378,-0.431908 0.123581,-2.757943 0.01563,-3.527344 -0.06484,-0.462124 -0.05901,-0.575985 0.0332,-0.837891 0.05859,-0.166404 0.105468,-0.430873 0.105468,-0.58789 0,-0.157019 0.05724,-0.421245 0.126954,-0.587891 0.15117,-0.361381 0.1626,-0.804914 0.0332,-1.267578 -0.09524,-0.340547 -0.08624,-0.471065 0.06445,-0.982422 0.05511,-0.187019 0.09466,-1.005805 0.123047,-2.501953 0.03951,-2.082561 0.02711,-2.442523 -0.13086,-3.525391 -0.02841,-0.194769 -7.37e-4,-0.334432 0.109375,-0.55664 0.137325,-0.277135 0.148024,-0.390737 0.167969,-1.75586 0.01333,-0.912651 0.05535,-1.643048 0.113281,-1.947265 0.05096,-0.2676 0.106761,-0.907743 0.125,-1.423828 0.01824,-0.516086 0.05249,-1.047841 0.07422,-1.181641 0.05389,-0.331904 0.143237,-2.119856 0.185547,-3.71875 0.01922,-0.726342 0.06376,-1.617297 0.09961,-1.980469 C 4.454365,46.470201 4.513715,44.622186 4.4493,43.943661 4.2995,42.36574 4.254783,42.107031 4.072347,41.754208 3.868924,41.360799 3.734723,40.784556 3.789144,40.533505 c 0.02009,-0.09269 0.126967,-0.252028 0.236328,-0.353515 0.195268,-0.181212 0.199387,-0.196194 0.220703,-0.902344 0.01194,-0.395483 -0.0045,-1.353412 -0.03516,-2.126953 -0.05129,-1.29214 -0.0664,-1.417841 -0.191406,-1.5625 C 3.944769,35.501593 3.743145,35.101079 3.57039,34.699521 3.333505,34.148895 3.243402,33.850219 3.209062,33.48663 3.166502,33.036008 2.982191,32.459434 2.650468,31.73663 2.374545,31.135411 2.328928,29.683132 2.537187,28.193661 c 0.102625,-0.733977 0.124092,-1.107537 0.08984,-1.55664 -0.02478,-0.324943 -0.04124,-0.87274 -0.03516,-1.216797 0.01072,-0.606759 0.01772,-0.631226 0.22461,-0.867188 0.206102,-0.235058 0.672953,-1.331543 0.673828,-1.582031 2.32e-4,-0.06645 0.06082,-0.215392 0.132812,-0.330078 0.13047,-0.207856 0.346692,-0.690437 0.845703,-1.876953 0.260284,-0.618886 0.461345,-0.969203 0.685547,-1.201172 0.06358,-0.06578 0.175695,-0.250278 0.25,-0.410156 0.07431,-0.159877 0.162138,-0.307837 0.195313,-0.330078 0.03317,-0.02224 0.09445,-0.157958 0.136719,-0.300782 0.04227,-0.142824 0.115027,-0.305938 0.160156,-0.363281 0.04513,-0.05734 0.112896,-0.235751 0.152344,-0.396484 0.03945,-0.160734 0.137057,-0.381415 0.216796,-0.488281 0.07974,-0.106867 0.178289,-0.277263 0.21875,-0.378907 0.04046,-0.101644 0.1704,-0.321604 0.289063,-0.490234 0.118663,-0.16863 0.252347,-0.402921 0.296875,-0.519531 0.04453,-0.116609 0.152504,-0.247656 0.240234,-0.291016 0.08773,-0.04336 0.324756,-0.272963 0.525391,-0.511719 0.563965,-0.671118 0.784687,-0.876702 1.033203,-0.96289 0.126057,-0.04372 0.286938,-0.135691 0.357422,-0.203125 0.07048,-0.06743 0.256184,-0.193266 0.414062,-0.279297 0.157879,-0.08603 0.389613,-0.24314 0.513672,-0.34961 0.124058,-0.10647 0.3395,-0.22616 0.480469,-0.267578 0.349487,-0.102683 0.509672,-0.266078 0.599609,-0.609375 0.07494,-0.28604 0.382481,-0.648437 0.550781,-0.648437 0.04568,0 0.216741,0.06578 0.38086,0.144531 l 0.298828,0.142578 0.611328,-0.214844 c 0.612245,-0.215899 0.99982,-0.399959 1.595703,-0.755859 0.176211,-0.105244 0.421575,-0.233872 0.544922,-0.285156 0.123348,-0.05128 0.331672,-0.170988 0.462891,-0.265625 0.196275,-0.141557 0.286276,-0.164031 0.511718,-0.128906 0.287163,0.04474 0.342306,0.0197 1.011719,-0.4667972 0.149423,-0.1085934 0.420901,-0.2434222 0.601563,-0.3007812 0.18066,-0.057359 0.402031,-0.1812198 0.492187,-0.2734375 0.121468,-0.124245 0.277813,-0.1837969 0.607422,-0.2304688 0.244643,-0.034641 0.546574,-0.1190933 0.669922,-0.1894531 0.224934,-0.1283071 0.666948,-0.1550425 1.695312,-0.097656 0.355175,0.01982 0.393296,0.00855 0.544922,-0.1835938 0.08962,-0.1135725 0.251711,-0.2633859 0.361328,-0.3320312 0.195344,-0.1223295 0.202675,-0.1226161 0.394531,0.03125 0.176682,0.1416959 0.241807,0.1543163 0.666016,0.1132812 0.258491,-0.025004 0.788443,-0.055855 1.177734,-0.068359 0.440062,-0.014135 0.76748,-0.058383 0.865235,-0.1171875 0.09176,-0.055198 0.47704,-0.1150717 0.925781,-0.1425781 0.787382,-0.048264 1.419435,-0.1452586 1.986328,-0.3046875 0.324563,-0.091278 0.613688,-0.1566595 1.539063,-0.3515625 0.281936,-0.059382 0.632048,-0.1858816 0.779297,-0.2792969 0.167101,-0.1060107 0.456707,-0.1972207 0.769531,-0.2441406 0.298719,-0.044804 0.590942,-0.1367328 0.724609,-0.2265625 0.197378,-0.1326463 0.301296,-0.147631 0.865235,-0.1308594 0.383207,0.011397 0.746811,0.062186 0.904297,0.1269532 0.303686,0.1248934 1.566445,0.1069473 2.396484,-0.035156 0.264316,-0.045251 0.782301,-0.093345 1.152344,-0.1054687 0.370042,-0.012123 0.831558,-0.070986 1.02539,-0.1308594 0.193832,-0.059873 0.612508,-0.144363 0.929688,-0.1875 0.317178,-0.043137 0.663805,-0.1241111 0.769531,-0.1816406 0.142375,-0.077471 0.491455,-0.1126266 1.345703,-0.1347657 1.474868,-0.038223 1.637072,-0.050235 4.580078,-0.3183593 0.405285,-0.036924 1.256268,-0.088481 1.890625,-0.1152344 0.671375,-0.028315 1.20828,-0.082133 1.283203,-0.1289063 0.07079,-0.044194 0.401836,-0.1029413 0.736328,-0.1289062 0.962829,-0.074739 1.401004,-0.1656435 1.820313,-0.3789063 0.349691,-0.1778547 0.486621,-0.2029692 1.318359,-0.25 1.451994,-0.082103 4.503484,-0.073586 6.082032,0.017578 1.257895,0.072646 1.458602,0.068805 1.623046,-0.023438 0.132431,-0.074286 0.350163,-0.099663 0.742188,-0.089844 0.311168,0.00779 0.96393,-0.052426 1.484375,-0.1367187 0.51101,-0.082765 1.163203,-0.1731146 1.449219,-0.2011719 0.286016,-0.028058 0.560591,-0.086376 0.609375,-0.1289063 0.160822,-0.1402089 1.346269,-0.2294172 2.61914,-0.1972656 2.130083,0.053804 2.714754,0.07992 2.953125,0.1328125 0.126619,0.028096 0.574507,0.011072 0.994141,-0.037109 0.419634,-0.04818 1.013119,-0.079067 1.318359,-0.070312 0.38743,0.011112 0.627187,-0.017727 0.794922,-0.09375 0.132151,-0.059895 0.292839,-0.090594 0.357422,-0.068359 z m -1.033203,8.2519528 c -0.389928,0.01523 -0.998351,0.06619 -1.955078,0.15625 -1.205657,0.113491 -1.40598,0.116072 -1.953125,0.02734 -0.374914,-0.0608 -1.018219,-0.094 -1.667969,-0.08594 -1.68638,0.02089 -2.359626,0.08301 -2.742187,0.25 -0.322854,0.140927 -0.378914,0.142777 -1.216797,0.06836 -0.799514,-0.07101 -0.936593,-0.0642 -1.519531,0.0625 -0.352421,0.0766 -0.800309,0.128974 -0.994141,0.117188 -0.998646,-0.06073 -2.481935,0.06074 -2.767578,0.226562 -0.101942,0.05918 -0.243767,0.05109 -0.589844,-0.03125 -0.250284,-0.05955 -0.816413,-0.124941 -1.259766,-0.146484 -0.443352,-0.02154 -1.044645,-0.07171 -1.335937,-0.111328 -0.433843,-0.05901 -0.592468,-0.0527 -0.871094,0.03516 -0.187076,0.05899 -0.497081,0.107422 -0.689453,0.107422 -0.294624,0 -0.38783,0.03366 -0.597656,0.214843 -0.394569,0.340702 -0.437021,0.353645 -0.771485,0.230469 -0.20967,-0.07722 -0.42362,-0.101868 -0.691406,-0.07617 -1.35545,0.130075 -1.774854,0.186192 -1.884766,0.25 -0.06818,0.03958 -0.552334,0.152927 -1.076171,0.251953 -0.744256,0.140695 -1.239168,0.186414 -2.265625,0.210938 -1.497311,0.03577 -2.776758,0.128697 -3.011719,0.21875 -0.0881,0.03377 -0.506782,0.0391 -0.929688,0.01172 -1.420023,-0.09192 -1.964262,-0.07415 -2.177734,0.06641 -0.246458,0.162289 -0.718108,0.28908 -1.070313,0.289062 -0.151793,-8e-6 -0.448703,0.06054 -0.660156,0.134766 -0.211453,0.07423 -0.691492,0.214692 -1.066406,0.3125 -0.633524,0.165274 -0.790554,0.177734 -2.21875,0.177734 -1.607742,0 -3.074047,0.124693 -3.763672,0.320313 -0.211453,0.05998 -0.702181,0.13665 -1.089844,0.169922 -0.854242,0.07332 -1.420242,0.187397 -1.628906,0.328125 -0.157831,0.106444 -1.545845,0.285397 -2.257812,0.291015 -0.200348,0.0016 -0.434861,0.03149 -0.519532,0.06641 -0.08467,0.03492 -0.439723,0.100394 -0.789062,0.144531 -0.34934,0.04414 -0.797175,0.124941 -0.996094,0.179687 -0.198919,0.05475 -0.591577,0.09961 -0.871094,0.09961 -0.452375,0 -0.522895,0.01685 -0.65039,0.164062 -0.118668,0.137021 -0.244597,0.179411 -0.732422,0.238282 -0.323839,0.03908 -0.739095,0.07042 -0.921875,0.07031 -0.201308,-1.23e-4 -0.389783,0.04391 -0.478516,0.111328 -0.09075,0.06895 -0.280589,0.110548 -0.5,0.111328 -0.271387,9.65e-4 -0.435564,0.05017 -0.701172,0.208985 -0.190651,0.113993 -0.395451,0.207031 -0.455078,0.207031 -0.05963,0 -0.199922,0.09618 -0.3125,0.21289 -0.158869,0.164688 -0.236096,0.199777 -0.345703,0.158204 -0.337058,-0.127845 -0.581007,-0.03581 -1.423828,0.535156 -0.689371,0.467013 -0.884557,0.553575 -1.144531,0.507812 -0.239894,-0.04223 -0.676128,0.183142 -1.033203,0.535157 -0.141745,0.139735 -0.289827,0.203358 -0.560547,0.238281 -0.299045,0.03858 -0.428592,0.10121 -0.703125,0.33789 -0.648816,0.559359 -1.135751,1.162226 -1.40625,1.744141 -0.142698,0.306979 -0.322029,0.641169 -0.400391,0.742188 -0.07836,0.101018 -0.178508,0.272605 -0.220703,0.382812 -0.04219,0.110208 -0.163501,0.254543 -0.269531,0.320313 -0.10603,0.06577 -0.242102,0.21838 -0.302735,0.339843 -0.06063,0.121463 -0.184324,0.318904 -0.27539,0.4375 -0.183002,0.238325 -0.379175,1.008499 -0.378906,1.486329 1.87e-4,0.33233 0.21691,1.100946 0.359374,1.273437 0.224303,0.271579 0.222077,0.664024 -0.0059,1.257813 -0.03247,0.08457 0.04373,0.219237 0.265625,0.476562 0.170446,0.197662 0.337766,0.436185 0.373047,0.529297 0.04198,0.110781 0.0458,0.517691 0.0078,1.177734 -0.04927,0.856177 -0.04223,1.093024 0.05078,1.5625 0.08512,0.429693 0.116133,1.028376 0.138672,2.6875 0.01596,1.174579 0.04656,2.511962 0.06836,2.970703 0.0218,0.458743 0.02885,1.00654 0.01563,1.216797 -0.05805,0.922275 -0.01766,2.824993 0.06641,3.144531 0.04778,0.181585 0.105892,0.330079 0.128907,0.330079 0.05231,0 0.0424,0.33192 -0.01172,0.390625 -0.02192,0.02377 0.0022,0.114289 0.05469,0.201172 0.08519,0.141035 0.08443,0.169459 -0.0078,0.269531 -0.05994,0.06502 -0.07178,0.111328 -0.0293,0.111328 0.04083,0 0.02382,0.05305 -0.03711,0.119141 -0.07943,0.08617 -0.08738,0.12548 -0.0293,0.146484 0.0493,0.01783 0.05522,0.04725 0.01563,0.07422 -0.0353,0.02404 -0.08402,0.198231 -0.107422,0.386718 -0.02341,0.188487 -0.06136,0.375132 -0.08594,0.416016 -0.02458,0.04088 -0.05231,0.919001 -0.06055,1.951172 -0.0082,1.03217 -0.03124,2.779419 -0.05273,3.882812 -0.03462,1.777799 -0.02749,2.059325 0.07227,2.476563 0.106246,0.444348 0.106001,0.49404 0.0039,0.888672 -0.05949,0.229985 -0.107257,0.664868 -0.107422,0.964844 -5.3e-4,0.963298 0.05373,2.444892 0.0918,2.511718 0.02031,0.03564 -0.04624,0.201517 -0.146484,0.369141 -0.16661,0.278583 -0.189659,0.398034 -0.267579,1.382812 -0.04688,0.592543 -0.08456,1.577797 -0.08398,2.189453 10e-4,1.066864 0.0089,1.12688 0.173828,1.482422 0.207846,0.448123 0.218798,0.831695 0.03711,1.263672 -0.09733,0.231418 -0.128301,0.429401 -0.117187,0.763672 0.0083,0.248485 0.01081,0.6699 0.0039,0.9375 -0.08193,3.16233 -0.08192,3.307215 0.02734,3.664063 0.14218,0.464337 0.135781,0.652327 -0.0293,0.894531 -0.154942,0.227328 -0.21975,0.937619 -0.09375,1.023437 0.04009,0.02731 0.113647,0.159169 0.164063,0.292969 0.112968,0.299808 0.05536,0.648596 -0.171875,1.039063 -0.08871,0.152432 -0.16211,0.35526 -0.16211,0.449218 0,0.09396 -0.04396,0.375778 -0.09766,0.626953 -0.05885,0.275255 -0.0937,0.738914 -0.08789,1.167969 0.0053,0.391524 -0.03607,0.993834 -0.0918,1.337891 -0.107513,0.6637 -0.117375,1.129177 -0.06445,2.746094 0.01923,0.587508 0.0046,1.167777 -0.03516,1.390625 -0.03749,0.210257 -0.08301,0.715557 -0.101562,1.125 -0.01855,0.409443 -0.06276,0.826208 -0.09766,0.925781 -0.104079,0.296946 -0.07733,1.30888 0.04492,1.68164 0.147579,0.449996 0.134118,3.153621 -0.01953,3.826172 -0.08534,0.373565 -0.09156,0.6254 -0.0332,1.773438 0.06889,1.355334 0.165258,1.927531 0.402344,2.43164 0.120014,0.255182 0.121117,0.287849 0.02344,0.652344 -0.05952,0.22211 -0.08585,0.475357 -0.0625,0.603516 0.105976,0.581628 0.104412,1.063483 -0.002,1.613281 -0.104066,0.537915 -0.104316,0.605452 -0.0059,1.03125 0.13555,0.586296 0.139639,0.998443 0.01172,1.259766 -0.126937,0.259314 -0.131925,0.647137 -0.01172,0.990234 0.0505,0.144131 0.106882,0.510579 0.125,0.816406 0.04674,0.788957 0.156138,1.65206 0.214843,1.69922 0.102642,0.0824 0.466797,0.62453 0.466797,0.69531 0,0.0405 0.02793,0.0742 0.0625,0.0742 0.03457,0 0.08183,0.0863 0.105469,0.19141 0.139465,0.62037 0.637336,1.35617 1.291016,1.91015 0.0785,0.0665 0.142578,0.19617 0.142578,0.28906 0,0.11235 0.100041,0.27052 0.300781,0.47071 0.165979,0.16553 0.453384,0.4654 0.636719,0.66601 0.183335,0.20061 0.462118,0.42413 0.621094,0.49805 l 0.289062,0.13477 0.355469,-0.23243 c 0.252089,-0.16467 0.370286,-0.20731 0.408203,-0.15039 0.121802,0.18283 0.225734,0.46439 0.1875,0.50586 -0.08486,0.0921 0.558658,0.75392 0.958984,0.98633 0.06672,0.0387 0.355864,0.092 0.642578,0.11914 0.485287,0.0459 0.544869,0.0365 0.875,-0.13867 0.195795,-0.10391 0.406602,-0.17051 0.470704,-0.14844 0.06386,0.022 0.13965,0.0325 0.167968,0.0234 0.02832,-0.009 0.129221,0.13894 0.22461,0.33008 0.196354,0.39347 0.246047,0.40389 0.910156,0.17969 0.378231,-0.12769 0.905922,-0.12688 1.367187,0.002 0.783141,0.21912 0.859565,0.22721 1.214844,0.13476 0.39114,-0.10178 0.545537,-0.082 1.101563,0.13672 0.604377,0.23773 1.002575,0.32097 1.28125,0.26953 0.140968,-0.026 0.278256,-0.0328 0.304687,-0.0156 0.02643,0.0173 0.04883,-0.006 0.04883,-0.0508 0,-0.0622 0.02043,-0.0627 0.08789,-0.002 0.04897,0.0441 0.359574,0.0999 0.689453,0.12305 0.329879,0.0232 0.613238,0.0606 0.630859,0.084 0.03991,0.0531 0.347958,0.068 2.275391,0.11132 0.845811,0.019 1.840896,0.0497 2.210937,0.0684 0.370043,0.0187 0.759509,0.037 0.865235,0.041 0.105727,0.004 1.114441,-0.0118 2.242187,-0.0352 2.221065,-0.0459 2.552908,-0.0956 2.75,-0.42187 0.109394,-0.18111 0.258203,-0.17214 0.414063,0.0273 0.06455,0.0826 0.09504,0.0895 0.117187,0.0254 0.02347,-0.0679 0.05779,-0.0652 0.15625,0.01 0.108209,0.0822 0.176075,0.0772 0.490235,-0.0312 0.351097,-0.12113 0.369917,-0.12116 0.464843,-0.002 0.162298,0.20443 0.523571,0.29189 1.464844,0.35157 0.490801,0.0311 0.92111,0.0755 0.957032,0.0996 0.0656,0.044 1.14611,0.0488 3.052734,0.0137 0.563873,-0.0104 1.185074,0.0128 1.378906,0.0508 0.193832,0.038 0.943552,0.0742 1.666016,0.082 0.722463,0.008 1.544234,0.0353 1.826172,0.0606 0.281936,0.0254 0.685031,0.0228 0.896484,-0.008 0.575209,-0.0818 1.521533,0.0195 1.878906,0.20117 0.253285,0.12877 0.473608,0.16003 1.421875,0.20898 0.616737,0.0318 1.321665,0.087 1.56836,0.12109 0.246694,0.0341 0.87161,0.0546 1.386718,0.0469 0.924639,-0.0137 0.939255,-0.0163 1.150391,-0.20898 v 0.002 c 0.238853,-0.21802 0.377006,-0.22031 1.347656,-0.0215 0.63847,0.13078 1.006301,0.0698 1.341797,-0.22265 l 0.257813,-0.22461 0.429687,0.10742 c 0.922597,0.22962 1.153855,0.26451 1.458985,0.22266 1.336119,-0.18324 5.597082,-0.30023 5.978515,-0.16407 0.23649,0.0844 2.25126,0.0804 2.572266,-0.006 0.15859,-0.0424 0.907272,-0.11174 1.664062,-0.1543 1.440837,-0.081 1.562224,-0.11052 1.949219,-0.46094 0.152878,-0.13843 0.22817,-0.15978 0.447266,-0.125 0.253865,0.0403 1.679118,-0.10358 2.412109,-0.24414 0.193832,-0.0372 1.231756,-0.10085 2.306641,-0.14062 1.321936,-0.0489 2.068258,-0.10477 2.30664,-0.17383 0.193832,-0.0562 0.510423,-0.14962 0.703125,-0.20703 0.192701,-0.0574 0.442205,-0.10352 0.556641,-0.10352 0.114436,0 0.333364,-0.0452 0.484375,-0.0996 0.151011,-0.0544 0.505173,-0.13413 0.787109,-0.17773 0.281937,-0.0436 0.799923,-0.14043 1.152344,-0.21485 0.682502,-0.14413 1.798572,-0.17852 2.236328,-0.0684 0.184203,0.0464 0.28527,0.0391 0.384766,-0.0312 0.224125,-0.15834 1.30467,-0.38311 2.128906,-0.44336 0.427024,-0.0312 0.801486,-0.0758 0.833984,-0.0977 0.0325,-0.0218 0.420223,-0.0741 0.859375,-0.11719 0.439154,-0.0431 0.964038,-0.12505 1.167969,-0.18164 0.266183,-0.0738 0.483712,-0.0881 0.769531,-0.0488 0.218975,0.0301 0.556169,0.0391 0.75,0.0195 0.193832,-0.0196 0.432646,-0.0133 0.53125,0.0137 0.123414,0.0338 0.273062,0.003 0.480469,-0.0977 0.165712,-0.0802 0.476047,-0.1685 0.6875,-0.19727 0.954832,-0.1299 1.337578,-0.21412 1.585938,-0.35156 0.215059,-0.11901 0.372378,-0.14709 0.810546,-0.14063 0.415341,0.006 0.704516,-0.0396 1.220704,-0.1914 0.959197,-0.28195 1.221817,-0.35547 1.476567,-0.41602 0.12335,-0.0293 0.58487,-0.24274 1.02539,-0.47461 0.44053,-0.23188 1.0734,-0.55177 1.4082,-0.71093 0.89335,-0.42469 1.012,-0.49486 1.30469,-0.77344 0.14632,-0.13927 0.35745,-0.30312 0.46875,-0.36524 0.2761,-0.15409 1.43826,-1.32969 1.57031,-1.587885 0.0587,-0.114858 0.14813,-0.260355 0.19922,-0.324219 0.12874,-0.160902 0.4561,-0.850167 0.69336,-1.462891 0.1399,-0.361283 0.18981,-0.588542 0.16992,-0.765625 -0.0155,-0.138316 0.008,-0.36034 0.0527,-0.49414 0.20844,-0.616775 0.48625,-1.277753 0.60351,-1.439453 0.1602,-0.220917 0.17793,-0.965051 0.0332,-1.410157 -0.0585,-0.179841 -0.0977,-0.543718 -0.0977,-0.929687 -3e-5,-0.458099 -0.0338,-0.731516 -0.12305,-0.986328 -0.0847,-0.241619 -0.13731,-0.625295 -0.16601,-1.216797 -0.0475,-0.979697 -0.15883,-1.568411 -0.37696,-1.974609 -0.1291,-0.240408 -0.14707,-0.346442 -0.12109,-0.753907 0.0228,-0.357337 0.008,-0.501908 -0.0644,-0.589843 -0.12612,-0.154298 -0.34585,-0.689638 -0.39063,-0.951172 -0.0196,-0.114685 -0.0514,-0.584227 -0.0703,-1.042969 -0.081,-1.971673 -0.14947,-2.939694 -0.2168,-3.076172 -0.0396,-0.08026 -0.0734,-0.26624 -0.0762,-0.412109 -0.008,-0.415449 -0.14851,-1.188274 -0.23242,-1.279297 -0.0586,-0.06358 -0.0407,-0.159432 0.0801,-0.417969 0.0914,-0.195592 0.15689,-0.459105 0.1582,-0.632812 0.003,-0.447417 0.40419,-2.654662 0.60937,-3.355469 0.0664,-0.226879 0.12251,-0.807781 0.15821,-1.669922 0.0301,-0.726342 0.0726,-1.386337 0.0957,-1.466797 0.0232,-0.08046 -0.004,-0.501875 -0.0606,-0.9375 -0.0563,-0.435625 -0.12014,-1.17675 -0.14257,-1.646484 -0.0224,-0.469735 -0.0659,-0.87069 -0.0957,-0.890625 -0.0297,-0.01994 -0.0532,-0.135826 -0.0527,-0.257813 7.4e-4,-0.167689 0.0161,-0.196014 0.0625,-0.117187 0.052,0.0885 0.0759,0.08002 0.16211,-0.05274 0.0856,-0.131829 0.16034,-0.15625 0.47656,-0.15625 0.33703,0 0.39175,-0.02019 0.53516,-0.205078 0.2815,-0.362902 0.38604,-0.771165 0.34961,-1.375 -0.0179,-0.296913 -0.0785,-0.635165 -0.13477,-0.751953 -0.1456,-0.302109 -0.24295,-1.120881 -0.23828,-2.023437 0.002,-0.426899 -0.0242,-0.861251 -0.0605,-0.964844 -0.0363,-0.103594 -0.0813,-0.425374 -0.0996,-0.716797 -0.0182,-0.291422 -0.0945,-0.757448 -0.16992,-1.035156 -0.1246,-0.458866 -0.13017,-0.54616 -0.0566,-0.947266 0.0445,-0.242753 0.0633,-0.578441 0.043,-0.746094 -0.0204,-0.167652 -0.0502,-0.601673 -0.0684,-0.964843 -0.0181,-0.363172 -0.0648,-1.083524 -0.10156,-1.59961 -0.0368,-0.516085 -0.082,-1.423082 -0.10157,-2.015625 -0.0301,-0.911479 -0.0555,-1.112581 -0.16406,-1.306641 -0.0981,-0.175211 -0.13506,-0.3847 -0.1543,-0.892578 -0.0139,-0.365681 -0.0717,-0.841216 -0.1289,-1.054687 -0.0835,-0.311587 -0.0953,-0.55222 -0.0605,-1.224609 0.0239,-0.460662 0.0579,-1.353605 0.0742,-1.984376 0.0163,-0.630771 0.0338,-1.31904 0.0391,-1.529296 0.005,-0.210257 0.002,-0.569458 -0.008,-0.798828 -0.0247,-0.567457 0.049,-3.225661 0.0918,-3.300782 0.0189,-0.03319 0.0628,-0.306515 0.0977,-0.605468 0.0349,-0.298954 0.11047,-0.69671 0.16797,-0.884766 0.0817,-0.267113 0.0954,-0.471573 0.0606,-0.9375 -0.0246,-0.328029 -0.0581,-2.520038 -0.0742,-4.871094 -0.0161,-2.351055 -0.0308,-4.321563 -0.0332,-4.378906 -0.002,-0.05734 -0.003,-0.354329 0,-0.660156 0.003,-0.305829 -0.0187,-0.740516 -0.0488,-0.964844 -0.0301,-0.224328 -0.0564,-1.260668 -0.0586,-2.302734 -0.004,-1.687817 -0.0162,-1.920055 -0.11915,-2.128907 -0.0898,-0.182226 -0.12562,-0.475123 -0.16015,-1.3125 -0.0285,-0.690491 -0.0793,-1.179872 -0.14258,-1.363281 -0.0543,-0.157392 -0.12961,-0.594849 -0.16601,-0.972656 -0.0807,-0.83704 -0.22327,-1.611768 -0.38477,-2.076172 -0.0665,-0.191143 -0.15571,-0.53249 -0.19727,-0.757813 -0.0496,-0.268688 -0.12782,-0.463226 -0.22851,-0.564453 -0.0845,-0.08489 -0.1543,-0.218177 -0.1543,-0.296875 0,-0.16511 -0.29285,-0.570312 -0.41211,-0.570312 -0.19056,0 -0.31597,-0.278496 -0.32226,-0.714844 -0.005,-0.35081 -0.0382,-0.483518 -0.17957,-0.703031 -0.0958,-0.148692 -0.17578,-0.328531 -0.17578,-0.398438 0,-0.207153 -0.59105,-0.810134 -0.97461,-0.99414 -0.21451,-0.102904 -0.49725,-0.175304 -0.72852,-0.185547 -0.20798,-0.0092 -0.43639,-0.03799 -0.50586,-0.06445 -0.0904,-0.03445 -0.15921,-0.0018 -0.24414,0.115234 -0.0819,0.112863 -0.18394,0.164063 -0.33008,0.164063 -0.17305,0 -0.22656,-0.03751 -0.28906,-0.201172 -0.0989,-0.258926 -0.4203,-0.592536 -0.51172,-0.53125 -0.0392,0.02628 -0.0624,0.0089 -0.0527,-0.03906 0.0117,-0.05766 -0.13368,-0.113135 -0.43164,-0.164062 -0.2467,-0.04217 -0.4914,-0.103751 -0.54297,-0.138672 -0.12719,-0.08611 -0.56444,-0.164234 -1.218751,-0.214844 -0.61299,-0.04741 -0.979885,-0.107666 -1.859375,-0.30664 -0.3348,-0.07574 -0.715279,-0.137403 -0.845703,-0.138672 -0.299406,-0.0029 -0.896262,-0.136853 -0.976562,-0.21875 -0.03348,-0.03415 -0.315691,-0.0625 -0.626953,-0.0625 -0.37905,0 -0.645126,-0.03633 -0.804688,-0.111328 -0.306918,-0.144248 -1.636867,-0.230532 -2.671875,-0.171875 -0.243553,0.0138 -0.502118,-0.02057 -0.705078,-0.0957 -0.280253,-0.103746 -0.488957,-0.112179 -1.666016,-0.07031 -1.068669,0.03801 -1.496807,0.02524 -2.082031,-0.0625 -0.405284,-0.06077 -1.314689,-0.12993 -2.019531,-0.152344 -2.372051,-0.07543 -2.562597,-0.08434 -2.732422,-0.132812 -0.187774,-0.05359 -0.486349,0.08284 -0.683594,0.3125 l -0.11914,0.140625 -0.283203,-0.140625 c -0.231438,-0.113901 -0.420319,-0.13742 -1.052735,-0.138672 -0.437861,-8.66e-4 -0.924476,-0.04336 -1.123047,-0.09766 -0.378306,-0.103451 -1.186734,-0.15761 -3.685547,-0.246094 -1.032229,-0.03655 -1.657427,-0.08688 -1.75,-0.140625 -0.08504,-0.04937 -0.256556,-0.06992 -0.646484,-0.05469 z m 15.699219,8.292969 c 0.349763,0.02956 0.894531,0.179626 0.894531,0.246094 0,0.03316 0.07276,0.06055 0.162109,0.06055 0.08934,0 0.232227,0.04954 0.316407,0.109375 0.139036,0.09882 0.170549,0.09851 0.349609,-0.002 0.108412,-0.06081 0.197266,-0.0909 0.197266,-0.06641 0,0.02449 0.07476,-0.0093 0.166015,-0.07422 0.13122,-0.09326 0.234561,-0.10555 0.496094,-0.06445 0.181875,0.02858 0.421428,0.04399 0.53125,0.03516 0.109822,-0.0088 0.456448,0.07871 0.769531,0.193359 0.64164,0.234981 0.840915,0.267093 2.105469,0.351563 0.974584,0.0651 1.082855,0.09229 1.294922,0.316406 0.144795,0.153024 0.754261,0.3125 1.189453,0.3125 0.313875,0 0.887119,0.212701 0.927734,0.34375 0.01854,0.05983 0.154832,0.390318 0.304688,0.734375 0.149856,0.344057 0.308187,0.751382 0.351562,0.904297 0.04337,0.152914 0.114844,0.339558 0.158204,0.416015 0.04336,0.07646 0.09961,0.232972 0.125,0.347657 0.02539,0.114686 0.21848,0.579383 0.427734,1.03125 0.209254,0.451867 0.378906,0.862542 0.378906,0.914062 0,0.05152 0.07559,0.253925 0.166012,0.449219 0.24221,0.523102 0.44379,1.738075 0.35352,2.126953 -0.0797,0.343194 -0.0874,2.145785 -0.0137,3.212891 0.0403,0.58454 0.0708,0.731163 0.17187,0.8125 0.10701,0.08607 0.11369,0.119096 0.041,0.248047 -0.0553,0.0982 -0.0626,0.174734 -0.0215,0.228515 0.0343,0.04479 0.0634,0.106095 0.0664,0.134766 0.003,0.02867 0.009,0.0588 0.0117,0.06836 0.0533,0.189037 0.0727,0.408823 0.0859,0.957031 0.0162,0.671724 0.12171,1.25 0.22851,1.25 0.0325,0 0.0945,0.126383 0.13672,0.279297 0.0966,0.349727 -0.0107,0.823731 -0.18164,0.808594 -0.22609,-0.01996 -0.24167,0.311293 -0.0508,1.052734 0.16186,0.628688 0.17165,0.725583 0.0996,0.998047 -0.19838,0.750034 -0.21768,1.046178 -0.10938,1.69336 0.0576,0.344056 0.14989,0.797555 0.20508,1.007812 0.0717,0.273095 0.088,0.529943 0.0605,0.902344 -0.052,0.705349 -0.031,1.965021 0.0332,2.050781 0.0734,0.09804 0.20872,1.397343 0.16211,1.556641 -0.0212,0.07251 0.005,0.361492 0.0586,0.642578 0.12373,0.643342 0.12641,1.223682 0.006,1.537109 -0.0515,0.133613 -0.0824,0.256211 -0.0684,0.271485 0.0141,0.01527 0.0397,0.109514 0.0567,0.210937 0.0599,0.358317 0.28886,0.821156 0.4375,0.882813 0.2332,0.09673 0.39153,0.326685 0.3496,0.507812 -0.0615,0.265563 -0.20217,0.419922 -0.38476,0.419922 -0.10616,0 -0.19928,0.05368 -0.24024,0.136719 -0.0976,0.197809 -0.13075,0.679687 -0.0469,0.679687 0.046,0 0.0429,0.03716 -0.01,0.105469 -0.0949,0.123988 -0.0491,0.554458 0.13086,1.216797 0.0675,0.248486 0.16423,0.842455 0.21485,1.320312 0.0506,0.477857 0.12806,0.961487 0.17187,1.076172 0.0737,0.193045 0.11884,1.404153 0.10547,2.816407 -0.0402,4.24551 -0.0277,4.475763 0.24414,4.58789 0.18959,0.07819 0.28516,0.27232 0.28516,0.580078 0,0.190098 -0.044,0.280945 -0.20313,0.416016 -0.20252,0.171926 -0.20321,0.174448 -0.23242,0.943359 -0.0217,0.571437 -0.003,0.874459 0.0723,1.169922 0.0558,0.219419 0.11784,0.759591 0.13867,1.199219 0.0208,0.439628 0.0674,1.050677 0.10351,1.357422 0.0591,0.50204 0.002,1.967707 -0.10742,2.777344 -0.0501,0.368877 -0.22961,1.998862 -0.2832,2.572265 -0.0286,0.305828 -0.081,0.681071 -0.11719,0.833985 -0.0362,0.152913 -0.0868,0.481982 -0.11133,0.730468 -0.0245,0.248486 -0.0893,0.545471 -0.14453,0.660156 -0.0552,0.114686 -0.10404,0.262862 -0.10937,0.330079 -0.005,0.06722 -0.0721,0.195043 -0.14844,0.283203 -0.0764,0.08816 -0.13867,0.207114 -0.13867,0.265625 0,0.05851 -0.0583,0.163084 -0.12891,0.232422 -0.19105,0.187553 -0.25921,0.570713 -0.23242,1.292968 0.0232,0.625006 -0.0404,1.105469 -0.14453,1.105469 -0.0277,0 -0.0545,0.03816 -0.0605,0.08594 -0.006,0.04779 -0.0216,0.184802 -0.0352,0.302734 -0.0313,0.272204 -0.19924,0.625382 -0.32032,0.675781 -0.0523,0.02176 -0.12718,0.21647 -0.16992,0.44336 -0.0419,0.222247 -0.11253,0.450469 -0.1582,0.507812 -0.146592,0.184056 -0.457874,0.793855 -0.501956,0.984375 -0.02349,0.101535 -0.131849,0.274338 -0.240234,0.382813 -0.108385,0.108474 -0.299122,0.415994 -0.423828,0.683593 -0.124705,0.2676 -0.262219,0.532501 -0.306641,0.589844 -0.14706,0.189836 -0.309073,0.858227 -0.328125,1.353516 -0.02264,0.588668 -0.1536,1.020317 -0.33789,1.113281 -0.07481,0.03774 -0.136719,0.101679 -0.136719,0.140625 0,0.03894 -0.07887,0.109768 -0.175781,0.158203 -0.09692,0.04843 -0.25866,0.205174 -0.359375,0.347656 -0.177656,0.251331 -0.182549,0.27692 -0.148438,0.873047 0.04121,0.720178 -0.01,0.912987 -0.289062,1.074219 -0.113067,0.06532 -0.337668,0.262196 -0.498047,0.4375 -0.160378,0.175305 -0.372798,0.372855 -0.472656,0.439453 -0.162743,0.108535 -0.228057,0.224649 -0.392579,0.701172 -0.0264,0.07646 -0.05293,0.257107 -0.06055,0.402344 -0.01085,0.20663 -0.06548,0.312239 -0.248046,0.486328 -0.154561,0.147383 -0.330682,0.450315 -0.521485,0.896484 -0.268814,0.628589 -0.311852,0.691308 -0.658203,0.931641 -0.204105,0.141629 -0.400147,0.295111 -0.435547,0.341797 -0.0354,0.04669 -0.224137,0.209928 -0.417969,0.363281 -0.193831,0.153353 -0.422441,0.362407 -0.509765,0.464844 -0.274064,0.321498 -0.780722,0.592422 -1.128906,0.603515 -0.300232,0.0096 -0.730469,0.211613 -0.730469,0.341797 0,0.03234 -0.169701,0.170073 -0.376953,0.306641 -0.286715,0.18893 -0.44701,0.248047 -0.669922,0.248047 -0.369183,0 -0.580287,0.09918 -0.921875,0.43164 -0.304502,0.296366 -0.254846,0.280948 -0.947266,0.291016 -0.466815,0.0068 -0.538196,0.02584 -0.800781,0.226563 -0.188033,0.143735 -0.456143,0.260049 -0.769531,0.333984 -1.073617,0.253292 -1.894604,0.47258 -1.955078,0.521484 -0.03524,0.0285 -0.204817,0.08918 -0.376954,0.134766 -0.172135,0.04559 -0.427741,0.146792 -0.568359,0.224609 -0.23634,0.130789 -0.285777,0.13514 -0.667969,0.05273 -0.361651,-0.07798 -0.487803,-0.07339 -1.001953,0.03711 -0.323282,0.06948 -0.735798,0.180855 -0.916015,0.248047 -0.256567,0.09566 -0.550858,0.122834 -1.359375,0.126953 -1.047859,0.0053 -1.658546,0.08306 -2.052735,0.261719 -0.190961,0.08655 -0.269842,0.08543 -0.626953,-0.01172 -0.479352,-0.130404 -0.708011,-0.09979 -1.488281,0.195313 -0.476999,0.180404 -0.655133,0.210246 -1.320313,0.224609 -0.422905,0.0091 -1.086945,0.03989 -1.474609,0.06836 -0.643691,0.04727 -0.729326,0.07089 -0.986328,0.265625 l -0.28125,0.212891 -0.166016,-0.216797 c -0.223622,-0.289812 -0.45844,-0.344807 -0.726562,-0.169922 -0.175712,0.11461 -0.410171,0.150231 -1.427735,0.212891 -1.410735,0.08687 -3.569513,0.0204 -3.800781,-0.117188 -0.132931,-0.07908 -0.171091,-0.06479 -0.388672,0.148438 -0.385084,0.377379 -0.885707,0.397309 -1.615234,0.06445 -0.252096,-0.115024 -0.324439,-0.119342 -0.667969,-0.04102 -0.211453,0.04821 -0.78786,0.08874 -1.28125,0.08984 -0.493389,0.0011 -0.99798,0.03477 -1.121094,0.07422 -0.314137,0.100669 -0.694661,0.08784 -1.0625,-0.0332 -0.432404,-0.142291 -0.689265,-0.130444 -1.005859,0.04492 -0.346399,0.191869 -0.996535,0.243709 -1.615234,0.128909 -0.408679,-0.0758 -0.516641,-0.0732 -0.78125,0.0195 -0.312881,0.10964 -0.907103,0.22895 -1.001954,0.20117 -0.02868,-0.008 -0.159438,0.0163 -0.291015,0.0547 -0.131576,0.0384 -0.84362,0.0845 -1.582031,0.10156 -1.584336,0.0366 -1.977998,0.0822 -2.25,0.25977 -0.184859,0.12067 -0.309029,0.12839 -1.441407,0.10156 -1.191219,-0.0282 -2.79428,0.0404 -3.128906,0.13281 -0.32577,0.09 -0.493183,0.10959 -0.994141,0.125 -0.281936,0.009 -0.620768,-0.008 -0.753906,-0.0391 -0.26112,-0.0597 -0.520324,0.0414 -0.755859,0.29688 -0.06861,0.0744 -0.174654,0.13778 -0.236328,0.14062 -0.06167,0.003 -0.174311,0.0195 -0.251953,0.0352 -0.08111,0.0165 -0.327897,-0.0778 -0.578125,-0.22071 -0.342463,-0.19572 -0.524059,-0.25497 -0.851563,-0.27343 -0.936931,-0.0528 -2.03407,-0.16491 -2.285156,-0.23438 -0.304568,-0.0843 -0.617865,-0.12821 -1.298828,-0.17969 -0.262059,-0.0198 -0.694364,-0.094 -0.960938,-0.16601 -0.956198,-0.25817 -1.075325,-0.27904 -1.421875,-0.24024 -0.29277,0.0328 -0.403555,0.0117 -0.667969,-0.13281 -0.174509,-0.09541 -0.417115,-0.197936 -0.539062,-0.226563 -0.121946,-0.02863 -0.335549,-0.116687 -0.474609,-0.195312 -0.155066,-0.08767 -0.391497,-0.145625 -0.611329,-0.152344 -0.544013,-0.01663 -0.783141,-0.09817 -1.044921,-0.353516 -0.297112,-0.289804 -0.552459,-0.370704 -0.660157,-0.210937 -0.04246,0.06298 -0.105872,0.113281 -0.140625,0.113281 -0.147639,0 -0.451106,-0.220321 -0.533203,-0.386719 -0.04883,-0.09896 -0.184842,-0.223911 -0.302734,-0.277343 -0.117891,-0.05343 -0.31973,-0.190861 -0.449219,-0.306641 -0.129489,-0.115781 -0.273544,-0.210938 -0.318359,-0.210938 -0.04481,0 -0.217348,-0.07724 -0.384766,-0.171875 -0.566065,-0.320004 -1.291131,-0.663836 -1.490234,-0.707031 -0.145021,-0.03146 -0.279236,0.0049 -0.5,0.134766 -0.202061,0.118849 -0.358447,0.165475 -0.476563,0.140625 -0.09692,-0.02039 -0.179301,-0.05781 -0.18164,-0.08203 -0.0023,-0.02421 -0.01056,-0.234555 -0.01953,-0.466796 -0.0091,-0.236542 -0.05915,-0.488422 -0.113281,-0.572266 -0.05315,-0.08232 -0.425626,-0.481235 -0.828125,-0.888672 -0.789442,-0.799128 -1.019781,-1.126954 -1.021484,-1.453125 -0.0013,-0.248882 -0.140439,-0.841597 -0.253907,-1.080078 -0.16514,-0.347085 -0.39885,-0.552734 -0.628906,-0.552734 -0.265642,0 -0.848643,-0.326917 -0.804687,-0.451172 0.017,-0.04805 0.127947,-0.144685 0.248047,-0.214844 0.246759,-0.14415 0.328493,-0.388868 0.226562,-0.679687 -0.03622,-0.103345 -0.308951,-0.726456 -0.605469,-1.384766 -0.575137,-1.276888 -0.788779,-1.93799 -0.851562,-2.634766 -0.02252,-0.249871 -0.102608,-0.565011 -0.189453,-0.742187 -0.119349,-0.243484 -0.152409,-0.417968 -0.154297,-0.835938 -0.0032,-0.715265 -0.211396,-2.172405 -0.384766,-2.683593 -0.108192,-0.319008 -0.146598,-0.605365 -0.162109,-1.216797 -0.01115,-0.439628 -0.04566,-1.158028 -0.07617,-1.597657 -0.0485,-0.698821 -0.08007,-0.848723 -0.253906,-1.195312 l -0.199219,-0.396484 0.0957,-0.4375 c 0.06102,-0.277676 0.08106,-0.564654 0.05469,-0.785157 -0.04263,-0.35644 -0.08248,-1.325783 -0.119141,-2.919922 -0.01689,-0.73443 -0.04215,-0.945702 -0.140625,-1.125 -0.115331,-0.209986 -0.117805,-0.24606 -0.02148,-0.746093 0.100353,-0.520961 0.1,-0.528116 -0.05664,-0.925782 -0.134035,-0.340279 -0.155861,-0.50018 -0.148437,-1.060546 0.0048,-0.363171 -0.02062,-0.864796 -0.05664,-1.113282 -0.120308,-0.829824 -0.121637,-1.191489 -0.0039,-1.490234 0.205905,-0.522413 0.21463,-0.862545 0.0293,-1.289063 -0.163345,-0.375915 -0.166488,-0.406468 -0.152344,-1.773437 0.02842,-2.746444 -0.02753,-4.480043 -0.15625,-4.886719 -0.124815,-0.394338 -0.11121,-0.513014 0.125,-1.193359 0.09682,-0.278874 0.09916,-0.41116 0.0332,-1.216797 -0.0547,-0.668173 -0.05483,-1.302838 -0.0039,-2.433594 0.03791,-0.841028 0.09467,-2.295822 0.126953,-3.232422 0.03229,-0.936599 0.08949,-1.889769 0.126953,-2.11914 0.03746,-0.229371 0.09288,-0.983257 0.123047,-1.675782 0.03935,-0.903322 0.0915,-1.405203 0.185547,-1.773437 0.07211,-0.282304 0.176922,-1.029481 0.232421,-1.66211 0.09833,-1.120805 0.113292,-1.187127 0.554688,-2.572265 0.392504,-1.231711 0.656535,-2.266623 0.619141,-2.417969 -0.02268,-0.09181 0.08825,-0.669797 0.207031,-1.082031 0.06715,-0.233064 0.155121,-0.720813 0.195312,-1.083985 0.101102,-0.913564 0.289759,-1.834905 0.439454,-2.140624 0.06912,-0.141173 0.140461,-0.406169 0.15625,-0.587891 0.02198,-0.25295 0.102836,-0.448381 0.347656,-0.833985 0.175881,-0.27702 0.385465,-0.644377 0.464844,-0.816406 0.26852,-0.58193 1.399411,-1.947265 1.613281,-1.947265 0.164573,0 0.620043,-0.463693 0.726562,-0.740235 0.04898,-0.12716 0.236413,-0.379133 0.417969,-0.560547 0.181557,-0.181413 0.370269,-0.415376 0.419922,-0.519531 0.04965,-0.104154 0.318289,-0.438013 0.595703,-0.742187 0.461972,-0.506537 0.530513,-0.557373 0.816406,-0.595703 1.084174,-0.14536 1.091031,-0.14702 1.494141,-0.527344 0.210184,-0.198304 0.426899,-0.432798 0.480469,-0.521485 0.05357,-0.08869 0.282358,-0.306396 0.509765,-0.482421 0.237363,-0.183732 0.490158,-0.452805 0.59375,-0.632813 l 0.181641,-0.314453 0.357422,0.04492 c 0.321215,0.03936 0.376305,0.02449 0.550781,-0.134766 0.296266,-0.270417 0.483468,-0.320312 1.205078,-0.320312 0.365454,0 0.746493,-0.03386 0.845703,-0.07617 0.09921,-0.04231 0.358147,-0.117657 0.574219,-0.167969 0.216072,-0.05031 0.531533,-0.168486 0.703125,-0.261719 0.171591,-0.09323 0.456602,-0.220364 0.632813,-0.283203 0.176209,-0.06284 0.400329,-0.172252 0.498046,-0.242187 0.151833,-0.108667 0.273752,-0.122918 0.837891,-0.0957 l 0.660156,0.0332 0.244141,-0.232422 c 0.281937,-0.268521 0.521163,-0.281578 0.830078,-0.04297 0.144401,0.111536 0.271216,0.143229 0.544922,0.132813 0.196417,-0.0075 0.83452,-0.0241 1.416016,-0.03711 1.070062,-0.02394 1.636345,-0.09936 2.21289,-0.289062 0.394903,-0.12994 1.004747,-0.130706 1.337891,-0.002 0.199302,0.07701 0.322421,0.08135 0.578125,0.02149 0.21084,-0.04936 0.782157,-0.06051 1.636718,-0.0332 1.066411,0.03409 1.362233,0.024 1.570313,-0.05859 0.406859,-0.16148 1.049033,-0.19086 2.587891,-0.113281 1.13338,0.05714 1.485262,0.05413 1.671875,-0.01563 0.130119,-0.04863 0.291521,-0.06401 0.359375,-0.03516 0.06775,0.0288 0.414567,0.05395 0.771484,0.05664 0.502754,0.0038 0.666717,-0.01883 0.728516,-0.09961 0.09293,-0.121463 0.674776,-0.14419 0.740234,-0.0293 0.05534,0.09713 0.353964,0.02527 0.810547,-0.19336 0.398011,-0.190589 0.583737,-0.188797 1.076172,0.01367 0.332995,0.136912 0.823555,0.109912 1.283203,-0.07227 0.440209,-0.174475 1.230884,-0.242913 1.923828,-0.166016 0.547643,0.06077 0.650591,0.05376 0.988281,-0.07226 0.410231,-0.1531 0.811417,-0.145332 1.640625,0.03711 0.360391,0.07929 0.512953,0.07891 1.056641,-0.01172 1.300403,-0.216786 2.246066,-0.277955 3.519531,-0.224609 0.853499,0.03575 1.039365,-0.01027 1.351563,-0.337891 0.191824,-0.201301 0.217565,-0.207316 1.02539,-0.25 0.455672,-0.02408 0.985856,-0.07749 1.179688,-0.11914 0.193832,-0.04165 0.864687,-0.06863 1.490234,-0.06055 1.881974,0.02431 2.139329,0.01807 3.572266,-0.07617 0.757706,-0.04984 1.75279,-0.100546 2.210937,-0.113281 0.64001,-0.01779 0.920184,-0.05652 1.210938,-0.167969 0.34063,-0.130569 0.434004,-0.138008 0.929687,-0.07422 0.302877,0.03898 0.756919,0.06836 1.009766,0.06641 0.252847,-0.0019 0.543717,0.01653 0.646484,0.04102 0.16767,0.03995 0.21787,0.006 0.490235,-0.339844 0.166932,-0.211956 0.331243,-0.386719 0.365234,-0.386719 0.03399,0 0.121536,0.06023 0.193359,0.132813 0.07182,0.07258 0.206678,0.151176 0.300782,0.173828 0.614531,0.147929 0.850073,0.174052 1.61914,0.185547 0.667716,0.01 0.922367,-0.01317 1.146485,-0.103516 0.347828,-0.140213 0.54561,-0.189054 0.808593,-0.203125 0.109123,-0.0058 0.237643,-0.04511 0.28711,-0.08594 0.144962,-0.119669 0.525309,-0.217573 0.765625,-0.197266 z m 1.902344,9.439453 c -0.615206,-0.02977 -1.007813,-0.02221 -1.007813,0.01758 0,0.03581 -0.04965,0.0671 -0.111328,0.07031 -1.15962,0.06036 -1.723501,0.104108 -2.056641,0.158203 -0.222989,0.03621 -0.554033,0.04123 -0.736328,0.01172 -0.524787,-0.08497 -2.682567,-0.09627 -2.96289,-0.01563 -0.138416,0.03982 -0.670631,0.101678 -1.181641,0.138672 -0.52669,0.03813 -1.050044,0.1156 -1.208985,0.177734 -0.21042,0.08226 -0.54627,0.109574 -1.345703,0.113281 -0.585874,0.0027 -1.323446,0.03376 -1.640625,0.06836 -0.317179,0.0346 -0.96759,0.08254 -1.443359,0.105468 -0.475769,0.02293 -1.065804,0.08272 -1.3125,0.134766 -0.246695,0.05205 -0.767308,0.113071 -1.15625,0.134766 -0.431087,0.02405 -1.044408,0.12127 -1.570313,0.25 -0.638153,0.156205 -1.012871,0.209647 -1.439453,0.205078 -0.317178,-0.0034 -0.994849,0.02639 -1.505859,0.06641 -0.51101,0.04002 -1.582164,0.08406 -2.380859,0.0957 -0.896784,0.01307 -1.484209,0.04824 -1.53711,0.09375 -0.113289,0.09747 -0.374706,0.155084 -0.919922,0.201172 -0.487382,0.0412 -0.981581,0.155385 -1.099609,0.253906 -0.04548,0.03796 -0.09184,0.03033 -0.119141,-0.01758 -0.05529,-0.09704 -1.001702,-0.06419 -1.070312,0.03711 -0.02875,0.04245 -0.04823,0.03409 -0.04883,-0.02148 -5.39e-4,-0.05004 -0.02692,-0.07137 -0.06055,-0.04883 -0.0621,0.04163 -1.165019,0.101068 -2.501953,0.136719 -0.947427,0.02526 -1.541836,0.09329 -1.646485,0.1875 -0.04567,0.04111 -0.12555,0.05688 -0.177734,0.03516 -0.05218,-0.02172 -0.110981,-0.01145 -0.130859,0.02344 -0.01988,0.03489 -0.07868,0.04711 -0.13086,0.02539 -0.05218,-0.02172 -0.131894,-0.0061 -0.177734,0.03516 -0.04584,0.04127 -0.163453,0.05839 -0.261719,0.03906 -0.09827,-0.01933 -0.213439,-0.0073 -0.253906,0.02539 -0.08243,0.06659 -2.09792,0.05646 -2.347656,-0.01172 -0.346241,-0.09452 -0.979933,-0.184944 -1.080078,-0.154297 -0.05811,0.01778 -0.465724,0.04953 -0.90625,0.07227 -1.164639,0.06012 -1.455057,0.106714 -1.636719,0.261718 -0.164962,0.140755 -0.879327,0.280286 -1.142578,0.222656 -0.881134,-0.192894 -2.062652,-0.203338 -3.5,-0.03125 -0.631936,0.07566 -3.638893,0.174135 -4.646485,0.152344 -0.428363,-0.0093 -0.719199,0.02874 -1.134765,0.148438 -0.433139,0.124756 -0.6435,0.151453 -0.929688,0.115234 -0.203308,-0.02573 -0.528825,-0.01741 -0.722656,0.01953 -0.193832,0.03694 -0.865333,0.07659 -1.492188,0.08789 l -1.138671,0.02148 -0.527344,0.285157 c -0.28944,0.156983 -0.561416,0.285156 -0.605469,0.285156 -0.04405,0 -0.08008,0.0381 -0.08008,0.08398 0,0.06487 -0.01637,0.06487 -0.07617,0 -0.126928,-0.137684 -0.321282,-0.09683 -0.699219,0.150391 -0.27608,0.18059 -0.385117,0.219155 -0.472656,0.166016 -0.07423,-0.04506 -0.127898,-0.0465 -0.154297,-0.002 -0.06565,0.110798 -0.313446,0.169979 -0.361328,0.08594 -0.03069,-0.05387 -0.07431,-0.04632 -0.148437,0.02344 -0.05817,0.05475 -0.173057,0.09175 -0.253907,0.08398 -0.09497,-0.0091 -0.135145,0.01793 -0.115234,0.07422 0.01695,0.04791 -0.01247,0.10532 -0.06445,0.126954 -0.05204,0.02166 -0.110431,-0.0087 -0.13086,-0.06641 -0.02411,-0.06815 -0.06219,-0.08263 -0.109375,-0.04102 -0.121001,0.106724 -0.746093,0.079 -0.746093,-0.0332 0,-0.05293 -0.0224,-0.09846 -0.04883,-0.101563 -0.347056,-0.04078 -0.439923,-0.02599 -0.515626,0.08789 -0.04646,0.0699 -0.109533,0.111334 -0.138671,0.0918 -0.06081,-0.04077 -0.13086,0.125545 -0.13086,0.310546 0,0.06924 -0.04412,0.144874 -0.09961,0.167969 -0.09178,0.03821 -0.09178,0.05083 0,0.150391 0.116312,0.126169 0.128205,0.212364 0.03711,0.273437 -0.03524,0.02363 -0.06445,-0.0099 -0.06445,-0.07422 0,-0.09754 -0.01696,-0.101746 -0.09961,-0.02734 -0.05447,0.04903 -0.08453,0.130423 -0.06641,0.181641 0.02081,0.05883 -0.01417,0.09375 -0.0957,0.09375 -0.07098,0 -0.202536,0.07964 -0.292968,0.177734 -0.154416,0.167502 -0.160601,0.196565 -0.08984,0.470703 0.05361,0.207714 0.0572,0.347181 0.0098,0.482422 -0.03664,0.10453 -0.0471,0.189453 -0.02344,0.189453 0.02366,0 -0.04915,0.10232 -0.160156,0.226562 -0.111013,0.124243 -0.199868,0.240652 -0.199219,0.259766 6.49e-4,0.01911 -0.01318,0.08328 -0.0293,0.140625 -0.01612,0.05734 -0.132477,0.462715 -0.257812,0.902344 -0.298499,1.047006 -0.343444,1.32195 -0.464844,2.849609 -0.07431,0.935056 -0.08454,1.399864 -0.03906,1.703125 0.06906,0.460501 -0.0046,0.728997 -0.263672,0.951172 -0.100506,0.08619 -0.15587,0.250505 -0.208984,0.625 -0.03967,0.27969 -0.105207,0.604065 -0.144531,0.71875 -0.03932,0.114686 -0.08691,0.355524 -0.107422,0.537109 -0.02325,0.2058 -0.07058,0.330079 -0.123047,0.330079 -0.105611,0 -0.163239,0.311337 -0.162109,0.861328 0.0012,0.592177 0.03916,0.701148 0.283203,0.796875 0.255141,0.100078 0.329504,0.363318 0.210937,0.755859 -0.0875,0.289693 -0.236456,0.359778 -0.472656,0.222656 -0.178454,-0.103599 -0.200813,-0.0861 -0.25,0.183594 -0.02677,0.146778 -0.0036,0.245671 0.08789,0.351563 0.177706,0.205715 0.18544,0.482857 0.02539,0.941406 -0.114964,0.329385 -0.140973,0.581842 -0.162109,1.529297 -0.018,0.806765 -0.05718,1.245768 -0.134766,1.517578 -0.09472,0.331838 -0.105224,0.633778 -0.08203,2.292969 0.0151,1.080548 0.05513,2.009432 0.09375,2.136718 0.05805,0.191319 0.08258,0.867942 0.07617,2.138672 -0.0064,1.257662 0.08205,3.865704 0.136719,4.046875 0.05036,0.166887 0.11922,0.241502 0.267578,0.283203 0.151156,0.04249 0.213131,0.10897 0.251953,0.271485 0.04508,0.188701 0.02369,0.24328 -0.167969,0.451172 -0.248918,0.270011 -0.327883,0.637081 -0.271484,1.248047 0.01888,0.204558 0.06878,0.732247 0.111328,1.171874 0.09118,0.941984 0.09329,1.085049 0.0625,3.126954 -0.02339,1.551429 -5.6e-5,1.831937 0.224609,2.884765 0.06235,0.292144 0.09485,1.041234 0.109375,2.501953 0.01885,1.896131 0.03125,2.10691 0.142579,2.328125 0.09735,0.193449 0.130359,0.44051 0.158203,1.205079 0.0269,0.738688 0.05702,0.980652 0.130859,1.042968 0.05286,0.04461 0.176025,0.19946 0.275391,0.34375 0.165915,0.240929 0.176256,0.281566 0.107421,0.507813 -0.05549,0.182384 -0.05878,0.357712 -0.0078,0.675781 0.120268,0.750227 0.194967,1.382795 0.240234,2.0625 0.05393,0.809779 0.04678,0.768212 0.136719,0.945312 0.04073,0.0802 0.130779,0.363092 0.199219,0.626954 0.06844,0.26386 0.153346,0.572815 0.189453,0.6875 0.03611,0.114686 0.08989,0.292879 0.119141,0.396484 0.02924,0.103606 0.282065,0.457648 0.5625,0.787109 0.280434,0.329462 0.597843,0.745239 0.705078,0.923829 0.107234,0.178589 0.280998,0.372265 0.386718,0.429687 0.105721,0.05742 0.27904,0.171033 0.384766,0.251953 0.105727,0.08092 0.260282,0.169796 0.341797,0.197266 0.08152,0.02747 0.369718,0.203091 0.640625,0.390625 0.991754,0.686539 1.214108,0.755907 2.386719,0.753906 h 0.677734 l 0.322266,0.375 c 0.272708,0.317838 0.366678,0.38276 0.61914,0.423828 0.163973,0.02667 0.325977,0.03019 0.359375,0.0078 0.0334,-0.02239 0.24508,0.05428 0.470704,0.169922 0.225623,0.115635 0.443875,0.208984 0.484374,0.208984 0.0405,0 0.242306,0.0649 0.449219,0.142578 0.206912,0.07767 0.429739,0.152976 0.496094,0.167969 0.06635,0.01499 0.248134,0.07647 0.402344,0.136719 0.416534,0.16273 0.532178,0.139093 0.808593,-0.167969 0.137652,-0.152914 0.302616,-0.279297 0.367188,-0.279297 0.182231,0 0.431772,0.208793 0.603516,0.503906 0.242376,0.416487 0.344281,0.434205 1.496093,0.259766 0.229074,-0.03469 1.021635,-0.05297 1.761719,-0.03906 1.355424,0.02547 2.051543,-0.04759 2.916016,-0.30664 0.193072,-0.05785 0.976687,-0.09451 2.371094,-0.111329 1.145368,-0.01382 2.356605,-0.05757 2.691406,-0.09766 1.212385,-0.145169 2.303088,-0.192085 3.841797,-0.167968 1.241978,0.01947 1.605545,0.0038 1.746093,-0.07227 0.1194,-0.06461 0.456285,-0.100074 1.027344,-0.109375 0.466945,-0.0076 1.05018,-0.04473 1.296875,-0.08203 0.452311,-0.06838 1.204098,-0.07487 1.794922,-0.01563 0.17621,0.01767 0.843399,0.04194 1.482422,0.05469 0.982497,0.0196 1.229443,0.0028 1.601562,-0.107422 0.298208,-0.08829 0.636317,-0.127469 1.048829,-0.123047 0.334799,0.0036 0.638585,0.0056 0.673828,0.0039 0.03524,-0.0017 0.61165,-0.01646 1.28125,-0.0332 0.6696,-0.01674 1.374527,-0.066 1.568359,-0.109374 0.415636,-0.09299 0.95537,-0.175601 2.050781,-0.310547 0.459738,-0.05664 0.924339,-0.15498 1.089844,-0.232422 0.181083,-0.08473 0.596248,-0.168107 1.117188,-0.222657 0.456232,-0.04777 0.942577,-0.129015 1.080078,-0.18164 0.185959,-0.07117 0.686711,-0.09757 1.957031,-0.103516 1.290109,-0.006 1.760784,-0.03124 1.921875,-0.103515 0.117286,-0.05262 0.463911,-0.129488 0.769531,-0.169922 0.447187,-0.05916 0.624957,-0.119157 0.910156,-0.308594 0.495663,-0.329232 0.629986,-0.353473 0.951172,-0.171875 0.191301,0.108161 0.39488,0.155449 0.699219,0.162109 0.414829,0.0091 0.440107,-8.38e-4 0.767578,-0.287109 0.186393,-0.162942 0.39807,-0.296875 0.46875,-0.296875 0.230699,0 0.984073,-0.225038 1.080078,-0.322266 0.05154,-0.05219 0.169469,-0.24412 0.261719,-0.425781 l 0.167969,-0.330078 h 0.443359 c 0.419837,-0.0015 0.473116,-0.02125 1,-0.365234 0.306061,-0.19982 0.613966,-0.363282 0.683594,-0.363282 0.17014,0 0.735535,-0.494534 0.972656,-0.849609 0.10535,-0.157755 0.270767,-0.33856 0.367188,-0.402344 0.218709,-0.144682 0.310022,-0.264055 0.591797,-0.767578 0.123347,-0.220418 0.368711,-0.585647 0.544921,-0.8125 0.17621,-0.226853 0.385034,-0.503776 0.462891,-0.615234 0.07786,-0.111457 0.200543,-0.281381 0.273438,-0.376953 0.269638,-0.35352 0.626722,-1.084918 0.671874,-1.376954 0.0256,-0.165595 0.08766,-0.384324 0.136719,-0.486328 0.04906,-0.102004 0.08767,-0.251711 0.08789,-0.332031 2.17e-4,-0.08032 0.074,-0.291028 0.162109,-0.46875 0.0881,-0.177722 0.232207,-0.468762 0.320313,-0.646484 0.08811,-0.177722 0.160156,-0.403861 0.160156,-0.501953 0,-0.09809 0.116784,-0.438395 0.259766,-0.75586 0.22471,-0.498928 0.261391,-0.65077 0.277343,-1.115234 0.01537,-0.447593 0.04775,-0.581445 0.189453,-0.806641 0.09356,-0.148692 0.169922,-0.306591 0.169922,-0.349609 0,-0.04302 0.05364,-0.187079 0.119141,-0.320313 0.07296,-0.1484 0.101779,-0.294667 0.07422,-0.378906 -0.06809,-0.208154 0.02693,-0.551721 0.259765,-0.945312 0.199674,-0.337533 0.210245,-0.3919 0.230469,-1.13086 0.02238,-0.817565 0.04086,-0.962333 0.16211,-1.27539 0.08721,-0.22518 0.07816,-0.166103 0.175781,-1.214844 0.0507,-0.544717 0.05534,-0.899629 0.01367,-1.078125 -0.03414,-0.146245 -0.0685,-0.608783 -0.07617,-1.029297 -0.01871,-1.025768 -0.02969,-1.232686 -0.07617,-1.355469 -0.02171,-0.05734 -0.05713,-0.324197 -0.07813,-0.591797 -0.021,-0.267599 -0.08803,-0.767271 -0.148438,-1.111328 -0.1059,-0.603224 -0.122734,-1.036559 -0.08398,-2.224609 0.02075,-0.636162 -0.03877,-1.497543 -0.121094,-1.732422 -0.03078,-0.08782 -0.05386,-0.626194 -0.05078,-1.195312 0.0038,-0.708215 -0.02968,-1.252591 -0.107422,-1.726563 -0.07351,-0.448209 -0.10152,-0.852425 -0.07813,-1.146484 0.01988,-0.249889 0.0089,-0.689849 -0.02539,-0.976563 -0.112528,-0.94172 -0.189625,-2.377345 -0.1875,-3.501953 0.0022,-1.177283 -0.03793,-1.409573 -0.320313,-1.902344 -0.130848,-0.228343 -0.164113,-0.370037 -0.152344,-0.625 0.06087,-1.318543 0.03647,-2.42647 -0.05664,-2.623047 -0.05422,-0.114458 -0.148764,-0.406929 -0.210938,-0.648437 -0.07357,-0.285757 -0.221617,-0.597389 -0.423828,-0.894531 -0.193207,-0.283911 -0.3125,-0.530256 -0.3125,-0.648438 0,-0.184725 0.01041,-0.189827 0.347656,-0.18164 0.263368,0.0064 0.364309,-0.01952 0.416016,-0.109376 0.04136,-0.07188 0.04426,-0.133776 0.0078,-0.158203 -0.03301,-0.02213 -0.05849,-0.124631 -0.05664,-0.228515 0.0018,-0.103884 -0.04153,-0.374519 -0.0957,-0.59961 -0.08042,-0.334134 -0.08803,-0.597551 -0.04492,-1.4375 0.02904,-0.565834 0.02999,-1.163337 0.002,-1.328125 -0.02806,-0.164788 -0.07027,-0.597766 -0.09375,-0.960937 -0.02348,-0.363172 -0.06636,-0.752503 -0.0957,-0.867188 -0.02934,-0.114686 -0.07117,-1.431227 -0.0918,-2.925781 -0.02435,-1.76411 -0.06352,-2.798508 -0.111328,-2.947265 -0.05111,-0.159031 -0.05949,-0.565994 -0.0293,-1.332032 0.03289,-0.834609 0.01756,-1.303516 -0.05859,-1.919922 -0.175999,-1.42468 -0.198914,-1.447339 -1.65039,-1.517578 z m -10.455079,6.626953 c 0.14145,0.02738 0.2697,0.115035 0.441407,0.273438 0.28406,0.262052 0.675117,0.404181 0.925781,0.335937 0.09198,-0.02504 0.241365,-0.145281 0.333984,-0.265625 0.146191,-0.189951 0.182899,-0.206509 0.273438,-0.125 0.07239,0.06517 0.103515,0.208546 0.103515,0.464844 0,0.510484 0.07984,0.691817 0.511719,1.179688 0.411254,0.46457 0.375476,0.340089 0.517578,1.783203 0.04024,0.408662 0.09682,0.860964 0.126953,1.005859 0.04278,0.205752 0.03199,0.289856 -0.04883,0.386719 -0.05691,0.06821 -0.10745,0.179751 -0.113281,0.246094 -0.03589,0.408258 -0.113918,0.849609 -0.150391,0.849609 -0.02349,0 -0.159164,0.122383 -0.300781,0.271484 -0.201313,0.211952 -0.289375,0.384981 -0.402344,0.792969 -0.141206,0.50997 -0.309815,0.825017 -0.539062,1.007813 -0.06265,0.04995 -0.113281,0.132508 -0.113281,0.183593 0,0.05109 -0.04304,0.110892 -0.0957,0.132813 -0.05266,0.02192 -0.154054,0.142051 -0.224609,0.267578 -0.07055,0.125526 -0.128234,0.196432 -0.128906,0.158203 -7.58e-4,-0.0432 -0.01957,-0.04152 -0.04883,0.0039 -0.05083,0.07895 -0.476681,0.308594 -0.572266,0.308594 -0.03208,0 -0.115274,0.05667 -0.183594,0.125 -0.06832,0.06832 -0.312984,0.237943 -0.542968,0.376953 -0.229986,0.139011 -0.471638,0.318009 -0.53711,0.396485 -0.06547,0.07848 -0.143046,0.124151 -0.173828,0.103515 -0.03078,-0.02063 -0.07455,0.0125 -0.0957,0.07227 -0.02114,0.05977 -0.07773,0.107422 -0.126953,0.107422 -0.04922,0 -0.196617,0.06417 -0.328125,0.140625 -0.241574,0.140448 -0.281339,0.148096 -0.478516,0.0918 -0.06002,-0.01714 -0.126785,-0.09201 -0.148437,-0.166016 -0.02165,-0.074 -0.08817,-0.134766 -0.148438,-0.134766 -0.06027,0 -0.16811,-0.04434 -0.238281,-0.09766 -0.103529,-0.07866 -0.163616,-0.08033 -0.318359,-0.01172 -0.163444,0.07247 -0.221211,0.06515 -0.402344,-0.05078 -0.116237,-0.07439 -0.268207,-0.256129 -0.337891,-0.404297 -0.06968,-0.148168 -0.165676,-0.269531 -0.214844,-0.269531 -0.04917,0 -0.187171,-0.114696 -0.304687,-0.253906 -0.117515,-0.13921 -0.386202,-0.449183 -0.597656,-0.689453 -0.211453,-0.240272 -0.451228,-0.532901 -0.533203,-0.650391 -0.08197,-0.11749 -0.187799,-0.212891 -0.236328,-0.212891 -0.04853,0 -0.134337,-0.104475 -0.189454,-0.230468 -0.05512,-0.125993 -0.184724,-0.327622 -0.287109,-0.449219 -0.102385,-0.121596 -0.234248,-0.402337 -0.292969,-0.623047 -0.05872,-0.22071 -0.155316,-0.49469 -0.216797,-0.609375 -0.06148,-0.114686 -0.150495,-0.341435 -0.197265,-0.503906 -0.04677,-0.162472 -0.102256,-0.294895 -0.123047,-0.294922 -0.02079,-2.7e-5 -0.04179,-0.07828 -0.04687,-0.173828 -0.0051,-0.09555 0.01535,-0.173828 0.04687,-0.173828 0.03151,0 0.05859,-0.04543 0.05859,-0.09961 0,-0.05418 0.129268,-0.151409 0.287109,-0.216797 0.284814,-0.117989 0.490954,-0.352678 0.671875,-0.761718 0.05073,-0.114686 0.1934,-0.361263 0.316406,-0.548828 0.150817,-0.229972 0.222657,-0.419445 0.222657,-0.580079 0,-0.190543 0.05976,-0.300604 0.292968,-0.550781 0.419545,-0.450063 0.447294,-0.472772 0.835938,-0.683594 0.193832,-0.105146 0.3613,-0.218599 0.373047,-0.251953 0.01175,-0.03335 0.0727,-0.06055 0.134765,-0.06055 0.06206,0 0.196431,-0.07942 0.298828,-0.177734 0.588847,-0.565332 0.524255,-0.544406 1.496094,-0.53125 0.733377,0.0099 0.945875,-0.01077 1.251953,-0.125 0.220826,-0.08241 0.37613,-0.115274 0.517578,-0.08789 z m -20.617187,4.472657 c 0.09737,-0.0079 0.188824,0.01634 0.285156,0.07227 0.0746,0.04331 0.410873,0.08623 0.748047,0.09375 0.587892,0.01312 0.951452,0.119068 1.060547,0.310547 0.02068,0.03629 0.173265,0.08687 0.339844,0.113281 0.166578,0.02642 0.433207,0.103498 0.591796,0.169922 0.15859,0.06642 0.489634,0.142852 0.736329,0.169922 0.256532,0.02815 0.593147,0.12249 0.787109,0.220703 0.351633,0.17805 0.645807,0.210107 1.208984,0.134766 0.326204,-0.04364 0.331195,-0.0396 0.556641,0.246094 0.125401,0.158917 0.227261,0.308312 0.224609,0.332031 -0.02912,0.260518 0.03948,0.448557 0.242188,0.662109 0.274435,0.289114 0.546535,0.362465 0.998047,0.265625 0.325307,-0.06977 0.327152,-0.07 0.544922,0.181641 0.120313,0.139026 0.24584,0.323466 0.277343,0.408203 0.0315,0.08474 0.181024,0.250481 0.332032,0.369141 0.245727,0.193087 0.31268,0.212283 0.642578,0.189453 0.202733,-0.01403 0.36914,-0.0025 0.36914,0.02539 0,0.02787 0.04966,0.0686 0.111328,0.08984 0.06167,0.02124 0.335938,0.273385 0.609376,0.560547 0.273437,0.287161 0.542045,0.521484 0.595703,0.521484 0.05366,0 0.112662,0.04655 0.132812,0.103516 0.02015,0.05696 0.309197,0.279612 0.640625,0.494141 0.331429,0.214528 0.654757,0.462532 0.71875,0.550781 0.064,0.08825 0.220635,0.236573 0.347656,0.330078 0.37545,0.276377 0.52816,0.50072 0.597657,0.876953 0.0337,0.182431 0.506873,0.64068 0.83789,0.810547 0.262123,0.134512 0.339829,0.212894 0.373047,0.376953 0.0231,0.114106 0.024,0.238606 0.0019,0.277344 -0.06649,0.116694 0.156534,0.54309 0.486328,0.927734 0.223498,0.260669 0.307196,0.413041 0.29883,0.542969 -0.01268,0.196936 0.23263,0.584752 0.414061,0.654297 0.06159,0.02361 0.13082,0.117914 0.152344,0.210937 0.02152,0.09302 0.06581,0.169922 0.09961,0.169922 0.0338,0 0.04386,0.06219 0.02149,0.138672 -0.02551,0.08718 0.0087,0.215269 0.09179,0.341797 0.07287,0.111004 0.132813,0.251501 0.132813,0.3125 0,0.061 0.0292,0.111328 0.06445,0.111328 0.03524,0 0.0625,0.08729 0.0625,0.195313 0,0.108021 0.07304,0.422691 0.162109,0.699218 0.08907,0.276527 0.17917,0.648804 0.199219,0.828125 0.04244,0.379553 0.222068,0.84553 0.457031,1.179688 0.134906,0.19186 0.149332,0.245875 0.07617,0.294922 -0.074,0.04961 -0.06943,0.06958 0.02149,0.107422 0.07825,0.03257 0.109375,0.124498 0.109375,0.316406 0,0.148824 -0.02337,0.269531 -0.05274,0.269531 -0.02937,0 -0.05273,0.04813 -0.05273,0.105469 0,0.05734 0.02491,0.103515 0.05664,0.103515 0.03357,0 0.04051,0.457824 0.01563,1.095704 -0.04588,1.176077 0.0029,1.569486 0.222656,1.785156 0.110849,0.108818 0.122169,0.198357 0.101562,0.773437 -0.0128,0.357275 -0.03994,0.67867 -0.06055,0.714844 -0.02061,0.03618 0.0036,0.295255 0.05469,0.576172 0.05112,0.280918 0.104598,0.623544 0.119141,0.759766 0.01454,0.136222 0.05852,0.311287 0.09766,0.390625 0.03914,0.07934 0.07933,0.245341 0.08789,0.367187 0.0086,0.121845 0.03691,0.235442 0.06445,0.253906 0.02754,0.01846 0.05078,0.06529 0.05078,0.103516 0,0.03823 -0.0292,0.05096 -0.06445,0.02734 -0.03524,-0.02363 -0.06445,0.0032 -0.06445,0.06055 0,0.135745 0.109894,0.20842 0.144532,0.0957 0.01632,-0.0531 0.05793,-0.02218 0.107422,0.07813 0.05063,0.102614 0.05565,0.146641 0.01172,0.117187 -0.03876,-0.02598 -0.07031,-0.01673 -0.07031,0.02149 0,0.03823 0.03031,0.08908 0.06641,0.113281 0.0361,0.0242 0.05269,0.128171 0.03711,0.230469 -0.01558,0.102299 -0.03226,0.20961 -0.03516,0.238281 -0.01034,0.102267 -0.124993,0.04915 -0.152343,-0.07031 -0.01532,-0.0669 -0.01701,-0.03987 -0.0059,0.06055 0.01112,0.100417 -0.02228,0.242842 -0.07227,0.314453 -0.04999,0.07161 -0.09068,0.213178 -0.0918,0.316407 -0.0011,0.103576 -0.05335,0.220668 -0.115235,0.259765 -0.06167,0.03897 -0.08965,0.07111 -0.0625,0.07227 0.05794,0.0025 -0.180899,0.531091 -0.265625,0.58789 -0.03175,0.02129 -0.077,0.157002 -0.101562,0.300782 -0.02456,0.143779 -0.131494,0.402191 -0.236328,0.574218 -0.188864,0.309921 -0.1904,0.318084 -0.146485,0.994141 0.04315,0.664353 0.02574,0.787132 -0.169922,1.160156 -0.03008,0.05734 -0.109485,0.233377 -0.177734,0.392579 -0.06825,0.159201 -0.181034,0.323244 -0.25,0.363281 -0.06897,0.04004 -0.162679,0.167056 -0.20703,0.283203 -0.04435,0.116147 -0.09874,0.210937 -0.121095,0.210937 -0.08563,0 -0.190226,0.402546 -0.232422,0.888672 -0.04354,0.50155 -0.04804,0.510883 -0.445311,0.980469 -0.220617,0.260773 -0.698475,0.799961 -1.0625,1.197266 l -0.662111,0.722656 -0.01758,0.486328 c -0.0093,0.2676 -0.02394,0.522994 -0.03125,0.568359 -0.0073,0.04537 -0.216005,0.296178 -0.464844,0.556641 -0.478732,0.501094 -0.675796,0.759569 -0.841795,1.099609 -0.06078,0.12451 -0.25266,0.298269 -0.474611,0.431641 -0.339053,0.203739 -0.379792,0.253647 -0.449219,0.552734 -0.04861,0.209392 -0.151795,0.404583 -0.285156,0.541016 -0.114961,0.117611 -0.259937,0.301783 -0.324219,0.408203 -0.119245,0.197412 -0.5486,0.498663 -0.445312,0.3125 0.04198,-0.07566 0.03309,-0.0759 -0.04883,-0.0039 -0.05516,0.04845 -0.149552,0.06771 -0.208985,0.04297 -0.07606,-0.03166 -0.117589,-0.0021 -0.142578,0.101562 -0.01953,0.08099 -0.0621,0.130593 -0.09375,0.109375 -0.03165,-0.02122 -0.0758,0.05913 -0.09766,0.177735 -0.04528,0.245573 -0.356351,0.553914 -0.775391,0.767578 -0.152294,0.07765 -0.294151,0.188702 -0.314453,0.246093 -0.02497,0.07058 -0.06076,0.08264 -0.111328,0.03711 -0.04642,-0.04179 -0.111582,-0.04397 -0.169922,-0.0039 -0.07994,0.05484 -0.07784,0.0655 0.01172,0.06641 0.0579,5.86e-4 0.120067,0.04311 0.138672,0.0957 0.03544,0.100186 -0.148563,0.121881 -0.214844,0.02539 -0.01973,-0.02872 -0.15173,0.01001 -0.292969,0.08398 -0.141238,0.07402 -0.335147,0.155902 -0.429687,0.181641 -0.09454,0.02574 -0.171875,0.06613 -0.171875,0.0918 0,0.02567 -0.147659,0.108278 -0.328125,0.183594 -0.180466,0.07532 -0.342238,0.176825 -0.359375,0.22461 -0.01714,0.04779 -0.07339,0.08594 -0.125,0.08594 -0.05161,0 -0.133041,0.04494 -0.181641,0.09766 -0.0486,0.05272 -0.216908,0.115226 -0.373047,0.140625 -0.156138,0.0254 -0.451422,0.1579 -0.658203,0.292969 -0.206781,0.135068 -0.496835,0.269293 -0.642578,0.298828 -0.145743,0.02953 -0.346256,0.114721 -0.447266,0.189453 -0.101008,0.07473 -0.314067,0.194691 -0.472656,0.267578 -0.15859,0.07289 -0.387221,0.213473 -0.507812,0.310547 -0.196597,0.158258 -0.281081,0.176124 -0.822266,0.181641 -0.33196,0.0034 -0.623266,0.03757 -0.646484,0.07617 -0.02322,0.0386 -0.165668,0.09131 -0.31836,0.117187 -0.15269,0.02588 -0.42168,0.125047 -0.595703,0.220703 -0.253217,0.139189 -0.408569,0.174189 -0.779297,0.171875 -0.63139,-0.0039 -0.686902,-2.8e-4 -0.6875,0.05469 -2.86e-4,0.0263 -0.155202,0.05282 -0.34375,0.05859 -0.188546,0.0058 -0.434829,0.063 -0.548828,0.126953 -0.114,0.06395 -0.223466,0.100378 -0.242187,0.08008 -0.01872,-0.02031 -0.08378,0.02994 -0.144531,0.111328 -0.129085,0.172923 -0.508824,0.219831 -0.63086,0.07813 -0.04421,-0.05134 -0.148671,-0.09375 -0.230469,-0.09375 -0.0818,0 -0.256969,-0.0813 -0.390625,-0.179687 -0.133656,-0.09839 -0.289421,-0.179603 -0.345703,-0.181641 -0.227089,-0.0082 -0.560165,0.09554 -0.726562,0.226562 -0.215614,0.16978 -0.584196,0.195708 -0.736328,0.05078 -0.06194,-0.059 -0.171703,-0.126271 -0.242188,-0.148438 -0.13352,-0.04199 -1.216135,-0.174318 -1.826172,-0.222656 -0.193832,-0.01536 -0.452824,-0.04942 -0.576172,-0.07617 -0.123347,-0.02676 -0.246376,-0.04378 -0.273437,-0.03711 -0.02706,0.0067 -0.155582,-0.03778 -0.28711,-0.09961 -0.131527,-0.06183 -0.349618,-0.121942 -0.482421,-0.134765 -0.132805,-0.01282 -0.421008,-0.07737 -0.640625,-0.142579 -0.472451,-0.140288 -0.680209,-0.141038 -0.931641,0 -0.263217,0.14765 -0.41137,0.02275 -0.455078,-0.386718 -0.0074,-0.06948 -0.542162,-0.335938 -0.673828,-0.335938 -0.106493,0 -0.690081,-0.41643 -0.837891,-0.597656 -0.182875,-0.224216 -0.989566,-0.623787 -1.667969,-0.826172 -0.17819,-0.05316 -0.724815,-0.317875 -1.214843,-0.58789 -0.490028,-0.270016 -0.927947,-0.490235 -0.972657,-0.490235 -0.04471,0 -0.283579,-0.218728 -0.529297,-0.486328 -0.245717,-0.2676 -0.474836,-0.488281 -0.509765,-0.488281 -0.118937,0 -0.519531,-0.290392 -0.519531,-0.376953 0,-0.04743 -0.07205,-0.12247 -0.160157,-0.166016 -0.08811,-0.04354 -0.160156,-0.111342 -0.160156,-0.150391 0,-0.03905 -0.03216,-0.07031 -0.07227,-0.07031 -0.04011,0 -0.19558,-0.116408 -0.345704,-0.259766 -0.150124,-0.143357 -0.449014,-0.383196 -0.664062,-0.53125 -0.215049,-0.148054 -0.390625,-0.29934 -0.390625,-0.335937 0,-0.0366 -0.204805,-0.27432 -0.455078,-0.529297 -0.295715,-0.301273 -0.5095,-0.589972 -0.609375,-0.824219 -0.08453,-0.19825 -0.154297,-0.387208 -0.154297,-0.419922 0,-0.03271 -0.09249,-0.172633 -0.207031,-0.310547 -0.706336,-0.850505 -0.783674,-0.975761 -0.863282,-1.404296 -0.07289,-0.392375 -0.447526,-1.512306 -0.640625,-1.917969 -0.04549,-0.09557 -0.08181,-0.214932 -0.08203,-0.263672 -6.59e-4,-0.148103 -0.425813,-1.014649 -0.564453,-1.150391 -0.0814,-0.0797 -0.147312,-0.261165 -0.175781,-0.486328 -0.02499,-0.197641 -0.166716,-0.624276 -0.314453,-0.949219 -0.342549,-0.753425 -0.565327,-1.975312 -0.507813,-2.78125 0.08058,-1.129225 -0.0057,-2.999851 -0.179687,-3.892578 -0.173225,-0.888762 -0.04578,-3.16757 0.203125,-3.636719 0.06447,-0.121528 0.135794,-0.361174 0.160156,-0.533203 0.02436,-0.172027 0.138828,-0.547269 0.253906,-0.833984 0.379505,-0.945528 0.675781,-2.022516 0.675781,-2.457031 0,-0.08472 0.106586,-0.38624 0.236329,-0.671875 0.216224,-0.47603 0.237839,-0.577723 0.255859,-1.208985 0.02156,-0.755205 0.08154,-0.903106 0.40625,-0.980468 0.19839,-0.04727 0.382812,-0.29599 0.382812,-0.517578 0,-0.0778 0.02787,-0.140626 0.06055,-0.140626 0.03268,0 0.13431,-0.180576 0.226563,-0.40039 0.09225,-0.219815 0.2067,-0.478648 0.253906,-0.574219 0.04721,-0.09557 0.105218,-0.272299 0.128906,-0.392578 0.02369,-0.120279 0.100675,-0.275808 0.171875,-0.345703 0.0712,-0.0699 0.201314,-0.290984 0.289063,-0.492188 0.09496,-0.217746 0.274281,-0.468853 0.443359,-0.61914 0.156233,-0.138869 0.285156,-0.29424 0.285156,-0.345703 0,-0.139041 0.414567,-0.562554 0.710938,-0.726563 0.142652,-0.07894 0.537914,-0.437387 0.878906,-0.796875 0.340991,-0.359488 0.677563,-0.700141 0.748047,-0.755859 0.07048,-0.05572 0.132313,-0.134472 0.136719,-0.175782 0.0044,-0.04131 0.01121,-0.100827 0.01563,-0.130859 0.0044,-0.03004 0.170673,-0.05469 0.36914,-0.05469 0.33223,0 0.376575,-0.01887 0.560547,-0.244141 0.109901,-0.134568 0.24788,-0.282366 0.306641,-0.330078 0.133367,-0.108289 1.033006,-0.524661 1.601562,-0.740235 0.235268,-0.0892 0.509843,-0.227384 0.609375,-0.30664 0.09953,-0.07926 0.333563,-0.175013 0.519532,-0.212891 0.373865,-0.07615 0.500154,-0.13821 0.871093,-0.429687 0.138535,-0.108858 0.288068,-0.197266 0.333985,-0.197266 0.175505,0 0.410156,-0.168191 0.410156,-0.292969 0,-0.07155 0.06524,-0.155681 0.144531,-0.1875 0.07929,-0.03182 0.144531,-0.08529 0.144531,-0.11914 0,-0.03385 0.236084,-0.05015 0.525391,-0.03711 0.579969,0.02614 0.920939,-0.06213 1.158203,-0.300781 0.125745,-0.126479 0.205054,-0.147764 0.460938,-0.121094 0.213521,0.02226 0.377873,-0.005 0.52539,-0.08594 0.117735,-0.06466 0.429043,-0.14261 0.69336,-0.173828 0.456843,-0.05396 0.567614,-0.08193 0.865234,-0.210938 0.296594,-0.128564 0.730137,-0.227957 1.089844,-0.25 0.252237,-0.01546 0.492406,-0.0833 0.699219,-0.199219 0.269467,-0.151041 0.401044,-0.177403 0.898437,-0.177734 0.664605,-4.43e-4 0.992349,-0.07854 1.158203,-0.277344 0.06361,-0.07624 0.181155,-0.138672 0.261719,-0.138672 0.08056,0 0.164008,-0.03056 0.185547,-0.06836 0.02403,-0.04217 0.09967,-0.02696 0.195312,0.04102 0.112568,0.08001 0.240445,0.100675 0.460938,0.07227 0.167933,-0.02164 0.507211,-0.06113 0.753906,-0.08789 0.246695,-0.02676 0.542594,-0.107434 0.658203,-0.177735 0.120856,-0.07349 0.224894,-0.113217 0.322266,-0.121093 z m -19.94336,6.833984 c 0.164356,-0.01509 0.332538,-0.0049 0.408204,0.03906 0.07821,0.0454 0.112626,0.115297 0.08984,0.179688 -0.02063,0.05832 -0.01123,0.09898 0.01953,0.08984 0.106565,-0.03166 0.34375,0.08949 0.34375,0.175781 0,0.04769 -0.09952,0.13849 -0.220703,0.201172 -0.231298,0.119645 -0.4747,0.108144 -0.550782,-0.02539 -0.02732,-0.04794 -0.05588,-0.05159 -0.07031,-0.0098 -0.04424,0.128252 -0.413302,0.169956 -0.5,0.05664 -0.09389,-0.122717 -0.0388,-0.478132 0.0918,-0.595703 0.06293,-0.05665 0.224316,-0.09624 0.388671,-0.111328 z m 0.208985,0.619141 c -0.05112,0.02219 -0.03558,0.03964 0.03906,0.04297 0.06755,0.003 0.105277,-0.01401 0.08398,-0.03711 -0.02129,-0.0231 -0.07679,-0.02593 -0.123047,-0.0059 z m -0.970703,1.019531 c 0.02982,0.01223 0.06737,0.04217 0.111328,0.08984 0.09711,0.10534 0.181478,0.621259 0.126953,0.77539 -0.05011,0.141652 -0.192021,0.13986 -0.242187,-0.002 -0.02144,-0.0606 -0.05766,-0.279323 -0.08008,-0.486328 -0.03157,-0.291378 -0.0055,-0.413659 0.08398,-0.376953 z M 59.0625,51.208984 c -0.67348,-0.01943 -0.993983,0.06725 -1.152344,0.3125 -0.04957,0.07677 -0.16354,0.138672 -0.255859,0.138672 -0.09103,0 -0.199221,0.05149 -0.242188,0.115235 -0.139345,0.206715 -0.665157,0.110504 -0.921875,-0.167969 -0.06292,-0.06825 -0.171517,-0.08597 -0.353515,-0.05859 -0.144577,0.02175 -0.38958,0.05134 -0.544922,0.06445 -0.193998,0.01638 -0.319357,0.0705 -0.396485,0.173828 -0.06176,0.08273 -0.17634,0.150391 -0.255859,0.150391 -0.07952,0 -0.125378,0.02104 -0.101562,0.04687 0.113102,0.122686 -0.532967,0.27453 -1.367188,0.320313 -0.158589,0.0087 -0.446793,0.06728 -0.640625,0.130859 -0.584515,0.191738 -0.919527,0.244317 -1.123047,0.177734 -0.104456,-0.03417 -0.353463,-0.07743 -0.552734,-0.0957 -0.326879,-0.02997 -0.377981,-0.01453 -0.515625,0.146484 -0.187211,0.219007 -0.479979,0.318431 -0.689453,0.234376 -0.19381,-0.07777 -1.541016,-0.05721 -1.541016,0.02344 0,0.03244 -0.04284,0.05859 -0.0957,0.05859 -0.05286,0 -0.09568,0.02211 -0.0957,0.05078 -2.8e-5,0.02867 -0.101374,0.175973 -0.224609,0.326172 -0.23436,0.285636 -0.210491,0.276354 -1.210938,0.429687 -0.273607,0.04194 -0.872857,0.295281 -0.716797,0.302735 0.03189,0.0015 0.006,0.06356 -0.05664,0.138672 -0.07132,0.08549 -0.103425,0.202206 -0.08398,0.3125 0.02587,0.14678 0.008,0.175781 -0.113281,0.175781 -0.110572,0 -0.180646,0.07933 -0.291016,0.330078 -0.07993,0.181586 -0.328331,0.530454 -0.552734,0.773437 -0.245294,0.265606 -0.423016,0.521649 -0.445313,0.642579 -0.0204,0.110631 -0.05829,0.201172 -0.08398,0.201171 -0.06307,0 -0.417969,0.35982 -0.417969,0.423829 0,0.02801 -0.0224,0.07485 -0.04883,0.103515 -0.02643,0.02867 -0.04829,0.131712 -0.04883,0.230469 -0.0012,0.214168 -0.0558,0.314474 -0.207031,0.375 -0.136739,0.05473 -0.1445,0.253517 -0.01758,0.435547 0.12909,0.185136 0.120868,0.442262 -0.02539,0.802734 -0.111219,0.27412 -0.285734,1.300903 -0.273437,1.607422 0.0027,0.0669 -0.02103,0.123047 -0.05273,0.123047 -0.117377,0 -0.198202,0.584614 -0.1875,1.369141 0.0093,0.683949 0.03079,0.83043 0.132813,0.949218 0.180625,0.210309 0.159011,1.165281 -0.02344,1.042969 -0.03549,-0.02379 -0.08837,5e-5 -0.11914,0.05274 -0.04082,0.06991 -0.05687,0.0487 -0.06055,-0.07813 -0.005,-0.173097 -0.0068,-0.173362 -0.06445,-0.01758 -0.03187,0.08601 -0.09348,0.155665 -0.138672,0.15625 -0.05375,6.96e-4 -0.0599,0.01933 -0.01563,0.05274 0.03722,0.02809 0.07546,0.177239 0.08398,0.330078 0.01889,0.338584 0.08792,0.425285 0.220703,0.28125 0.187622,-0.203521 0.236328,-0.12421 0.236328,0.378906 0,0.452113 0.0129,0.495579 0.160156,0.568359 0.163041,0.08058 0.184011,0.123685 0.259766,0.542969 0.02417,0.1338 0.08787,0.297963 0.142578,0.365235 0.08379,0.103017 0.08728,0.14974 0.01758,0.291015 -0.04958,0.100495 -0.06541,0.245554 -0.03906,0.363281 0.07374,0.329452 0.298207,0.78711 0.386719,0.78711 0.04595,0 0.102127,0.04828 0.123047,0.107422 0.02092,0.05914 0.08409,0.09924 0.142578,0.08789 0.104971,-0.02037 0.156764,0.08784 0.24414,0.517578 0.02643,0.130005 0.07968,0.191407 0.166016,0.191407 0.08524,0 0.126953,0.0469 0.126953,0.142578 0,0.177426 0.173429,0.552734 0.255859,0.552734 0.03367,0 0.08195,0.08627 0.105469,0.191407 0.04839,0.21631 0.417379,0.642578 0.556641,0.642578 0.0505,0 0.106679,0.06268 0.125,0.138672 0.01832,0.076 0.106812,0.166626 0.195312,0.203124 0.0885,0.0365 0.178733,0.13034 0.201172,0.207032 0.02244,0.07669 0.09729,0.157981 0.166016,0.18164 0.06872,0.02366 0.154962,0.103867 0.191406,0.177735 0.03645,0.07387 0.09837,0.134765 0.138672,0.134765 0.110415,0 0.5,0.486693 0.5,0.625 0,0.0665 0.05803,0.201101 0.128906,0.298828 0.107588,0.148367 0.199986,0.184255 0.560547,0.220704 0.835588,0.08447 0.909345,0.106964 0.949219,0.279296 0.02501,0.108069 0.0986,0.172986 0.228515,0.201172 0.105834,0.02296 0.275609,0.104871 0.375,0.181641 0.09939,0.07677 0.242519,0.138672 0.31836,0.138672 0.07584,0 0.215618,0.0912 0.310547,0.201172 0.09493,0.109966 0.276911,0.236347 0.40625,0.28125 0.129338,0.0449 0.270898,0.125312 0.3125,0.179687 0.0416,0.05438 0.170536,0.118856 0.287109,0.142578 0.140002,0.02849 0.278636,0.133703 0.408203,0.308594 0.169069,0.228212 0.225065,0.259265 0.40625,0.234375 0.856772,-0.117699 0.861447,-0.117483 1.056641,0.03906 0.20396,0.163572 0.566418,0.276637 0.894531,0.279296 0.112457,9.12e-4 0.226602,0.04206 0.251953,0.08984 0.02535,0.04779 0.02351,0.06396 -0.0039,0.03711 -0.04932,-0.04822 -0.226563,0.100091 -0.226563,0.189453 0,0.02537 -0.05842,0.125457 -0.128906,0.222656 l -0.128906,0.177734 -0.0039,-0.166015 c -0.0049,-0.148147 -0.01165,-0.143854 -0.0625,0.04102 -0.07495,0.272467 -0.297042,0.44834 -0.574219,0.457032 -0.123348,0.0039 -0.183776,0.02385 -0.134766,0.04492 0.117987,0.05074 0.328125,0.248624 0.328125,0.308594 0,0.02615 -0.05842,0.02976 -0.128906,0.0098 -0.07048,-0.01999 -0.126953,-0.0042 -0.126953,0.03516 0,0.09131 0.414024,0.163615 0.695312,0.121094 0.118841,-0.01796 0.292291,0.0099 0.384766,0.0625 0.09248,0.05256 0.189648,0.0807 0.216797,0.0625 0.02715,-0.0182 0.128274,-0.04771 0.224609,-0.06641 0.09633,-0.01869 0.241975,-0.08001 0.322266,-0.136719 0.155604,-0.109904 0.269531,-0.07968 0.269531,0.07227 0,0.129969 0.202449,0.201753 0.265625,0.09375 0.07158,-0.122374 0.06823,-0.246538 -0.0098,-0.298828 -0.03582,-0.02401 -0.04957,-0.07379 -0.0293,-0.109375 0.02028,-0.03559 0.0094,-0.06445 -0.02539,-0.06445 -0.03487,0 -0.07384,-0.07023 -0.08594,-0.15625 -0.01372,-0.09756 -0.05818,-0.145876 -0.117187,-0.128906 -0.05203,0.01496 -0.145419,0.02466 -0.208984,0.02148 -0.06357,-0.0032 -0.132499,0.03961 -0.152344,0.0957 -0.02406,0.06801 -0.0602,0.08137 -0.109375,0.03711 -0.04895,-0.04407 -0.126832,-0.02356 -0.232422,0.06445 -0.146438,0.122052 -0.149231,0.13335 -0.03125,0.136719 0.124794,0.0036 0.125103,0.007 0.0059,0.08203 -0.09806,0.06175 -0.139201,0.05179 -0.207031,-0.04883 -0.0562,-0.08337 -0.06486,-0.152889 -0.02344,-0.207031 0.03434,-0.04488 0.04825,-0.09858 0.0293,-0.119141 -0.01896,-0.02056 0.03916,-0.0576 0.128906,-0.08203 0.106152,-0.0289 0.162109,-0.09402 0.162109,-0.183594 0,-0.07573 0.03104,-0.136719 0.06836,-0.136719 0.03732,0 0.05075,-0.02828 0.03125,-0.0625 -0.05841,-0.10251 0.153219,-0.149235 0.28125,-0.0625 0.09507,0.0644 0.140756,0.05597 0.226563,-0.03711 0.05905,-0.06405 0.126477,-0.117153 0.150391,-0.119141 0.02392,-0.002 0.763478,-0.01296 1.644531,-0.02344 1.22446,-0.01456 1.675729,0.0038 1.914062,0.07813 0.352159,0.109841 0.526322,0.06385 0.837891,-0.226563 0.101256,-0.09438 0.222149,-0.171875 0.269531,-0.171875 0.04738,0 0.146035,-0.06566 0.21875,-0.144531 0.185731,-0.201469 0.995766,-0.499371 1.871094,-0.689453 0.202642,-0.044 0.368866,-0.101023 0.369141,-0.126953 2.75e-4,-0.02593 0.06356,-0.08154 0.142578,-0.123047 0.07902,-0.04151 0.259423,-0.140452 0.40039,-0.220703 0.140969,-0.08025 0.391365,-0.161055 0.556641,-0.179688 0.308574,-0.03479 0.82633,-0.316493 0.966797,-0.52539 0.06672,-0.09922 0.332401,-0.261831 0.59375,-0.363282 0.09197,-0.0357 0.572144,-0.618107 0.660156,-0.800781 0.03965,-0.08229 0.207139,-0.220546 0.371094,-0.30664 0.164794,-0.08654 0.343194,-0.245067 0.40039,-0.355469 0.05691,-0.10984 0.175567,-0.217043 0.263672,-0.238281 0.295601,-0.07126 0.333725,-0.097 0.296875,-0.201172 -0.02017,-0.05702 -0.01403,-0.103516 0.01367,-0.103516 0.0277,0 0.09879,-0.168606 0.158203,-0.373047 0.05941,-0.204441 0.165955,-0.42701 0.236328,-0.496094 0.07037,-0.06909 0.128907,-0.168339 0.128907,-0.220703 0,-0.05236 0.07206,-0.125772 0.160156,-0.162109 0.08811,-0.03634 0.159514,-0.105565 0.160156,-0.154297 6.41e-4,-0.04873 0.08827,-0.226307 0.19336,-0.394531 0.105085,-0.168225 0.191406,-0.357834 0.191406,-0.421875 0,-0.06404 0.07138,-0.190787 0.160156,-0.28125 0.09278,-0.09455 0.178614,-0.278615 0.201172,-0.431641 0.02159,-0.146419 0.06509,-0.28221 0.0957,-0.302734 0.03061,-0.02052 0.05469,-0.139308 0.05469,-0.263672 0,-0.246081 0.223002,-0.808594 0.320312,-0.808594 0.122477,0 0.220992,-0.327896 0.263672,-0.869141 0.02412,-0.305828 0.06155,-0.636303 0.08203,-0.734374 0.05867,-0.280949 0.05243,-0.621027 -0.01953,-1.072266 -0.03658,-0.229372 -0.06868,-1.104285 -0.07031,-1.945313 -0.0031,-1.588513 -0.03934,-2.00039 -0.208985,-2.28125 -0.0553,-0.09154 -0.122216,-0.281551 -0.146484,-0.421875 -0.02429,-0.140429 -0.104421,-0.302133 -0.179688,-0.359375 -0.121846,-0.09267 -0.136718,-0.17031 -0.136719,-0.710937 0,-0.552067 -0.01275,-0.610861 -0.136718,-0.669922 -0.07494,-0.0357 -0.209936,-0.242342 -0.300782,-0.457031 -0.123769,-0.292496 -0.218701,-0.414704 -0.376953,-0.490235 -0.175804,-0.08391 -0.216501,-0.147465 -0.246093,-0.378906 -0.03965,-0.310096 -0.16164,-0.589844 -0.25586,-0.589844 -0.034,0 -0.06055,-0.03097 -0.06055,-0.06836 0,-0.130509 -0.463509,-1.151126 -0.591797,-1.302734 -0.07114,-0.08407 -0.115253,-0.192457 -0.09766,-0.242188 0.01759,-0.04973 0.03696,-0.121928 0.04492,-0.160156 0.008,-0.03823 0.04316,-0.124506 0.07617,-0.191406 0.04016,-0.0814 0.0352,-0.121094 -0.01172,-0.121094 -0.03856,0 -0.05239,-0.03125 -0.03125,-0.06836 0.05483,-0.09623 -0.216853,-0.153879 -0.527343,-0.113282 -0.223978,0.02928 -0.257905,0.016 -0.22461,-0.07813 0.02829,-0.07997 0.01408,-0.09555 -0.04687,-0.05469 -0.05312,0.03561 -0.06875,0.03156 -0.04297,-0.01367 0.05339,-0.09371 -0.08175,-0.516722 -0.15039,-0.470703 -0.0288,0.01931 -0.06543,-0.005 -0.08008,-0.05274 -0.01926,-0.06269 -0.05606,-0.05234 -0.136719,0.03516 -0.170271,0.184698 -0.496793,0.180316 -0.904297,-0.01367 -0.140969,-0.0671 -0.314282,-0.147706 -0.384766,-0.177735 -0.07048,-0.03003 -0.516419,-0.082 -0.992187,-0.115234 -2.192397,-0.153179 -2.177833,-0.149749 -2.181641,-0.285156 -0.0013,-0.04706 -0.09789,-0.207271 -0.214844,-0.355469 -0.209611,-0.265605 -0.220163,-0.269381 -0.699218,-0.283203 -0.282835,-0.0082 -0.52634,-0.05162 -0.583985,-0.103516 -0.06207,-0.05588 -0.332567,-0.09611 -0.724609,-0.107422 z m 0.0625,1.375 c 0.06167,-0.01748 0.162935,-0.01748 0.224609,0 0.06167,0.01748 0.01202,0.0332 -0.111328,0.0332 -0.123348,0 -0.174955,-0.01571 -0.113281,-0.0332 z m -1.873047,0.02734 c 0.192537,-0.02762 0.245728,-0.02157 0.160156,0.01953 -0.122378,0.05878 -0.532221,0.09917 -0.476562,0.04687 0.01468,-0.01379 0.157816,-0.04366 0.316406,-0.06641 z m -0.537109,0.002 c 0.04036,-0.02748 0.09049,-0.0065 0.109375,0.04687 0.03808,0.107638 -0.133092,0.178169 -0.435547,0.179688 -0.118256,5.94e-4 -0.165035,-0.02365 -0.126953,-0.06445 0.03348,-0.03587 0.132598,-0.07501 0.220703,-0.08789 0.08811,-0.01288 0.192063,-0.04673 0.232422,-0.07422 z m 1.220703,0.02539 c 0.250037,0.0056 0.278421,0.01734 0.148437,0.0625 -0.229808,0.07983 -0.370529,0.07983 -0.416015,0 -0.02449,-0.04298 0.07702,-0.06678 0.267578,-0.0625 z m 3.533203,0.08594 c 0.04626,-0.02008 0.101755,-0.01725 0.123047,0.0059 0.02129,0.0231 -0.01839,0.03817 -0.08594,0.03516 -0.07465,-0.0033 -0.08823,-0.01883 -0.03711,-0.04102 z m -5.722656,0.119141 c 0.03524,0 0.01967,0.02935 -0.0332,0.06641 -0.05286,0.03706 -0.124915,0.06836 -0.160157,0.06836 -0.03524,0 -0.01967,-0.0313 0.0332,-0.06836 0.05286,-0.03706 0.124914,-0.06641 0.160156,-0.06641 z m 8.535156,0.240234 0.152344,0.138672 c 0.08442,0.07605 0.166956,0.146285 0.18164,0.15625 0.01468,0.01 -0.02063,0.01758 -0.07813,0.01758 -0.0575,0 -0.138077,-0.07023 -0.179687,-0.15625 z m -11.400391,0.347657 c 0.132042,-0.02759 0.111206,-0.005 -0.08398,0.09766 -0.257049,0.135171 -0.416015,0.177512 -0.416016,0.109375 0,-0.04642 0.274509,-0.159912 0.5,-0.207031 z m 13.71875,0.0039 c 0.03139,-0.02104 0.102811,0.0372 0.158203,0.128906 0.104046,0.172251 0.04111,0.265764 -0.134765,0.199219 -0.09183,-0.03475 -0.108785,-0.270906 -0.02344,-0.328125 z m -17.798828,0.04492 c 0.04799,0.01735 0.02024,0.04964 -0.06641,0.07422 -0.106581,0.03023 -0.131533,0.02033 -0.08398,-0.03125 0.03724,-0.04039 0.104163,-0.05968 0.15039,-0.04297 z m 2.761719,0.287109 c 0.0257,0.0039 0.02076,0.01752 -0.01367,0.04297 -0.08645,0.06388 -0.507665,0.10837 -0.443359,0.04687 0.01469,-0.01404 0.142235,-0.04666 0.283203,-0.07227 0.09182,-0.01668 0.148128,-0.0215 0.173828,-0.01758 z m -0.767578,0.05273 c 0.243976,-0.007 0.305274,0.02281 0.160156,0.07813 -0.04405,0.01679 -0.152129,0.0085 -0.240234,-0.01953 -0.139375,-0.0443 -0.128989,-0.05256 0.08008,-0.05859 z m -2.578125,0.01758 c 0,0.01606 -0.07553,0.08273 -0.167969,0.148437 -0.09245,0.06571 -0.148923,0.08496 -0.125,0.04297 0.04572,-0.08024 0.292969,-0.241686 0.292969,-0.191407 z m -0.445313,0.253906 c 0.03732,0 0.04912,0.03208 0.02734,0.07031 -0.02178,0.03823 -0.05087,0.06836 -0.06641,0.06836 -0.01554,0 -0.0293,-0.03013 -0.0293,-0.06836 0,-0.03823 0.03104,-0.07031 0.06836,-0.07031 z m -0.289062,0.154297 c 0.01594,0.01729 -0.108049,0.136916 -0.275391,0.265625 -0.167341,0.12871 -0.319916,0.255594 -0.33789,0.283203 -0.01797,0.02761 -0.117283,0.0698 -0.222657,0.09375 -0.173918,0.03953 -0.168217,0.0303 0.06445,-0.107422 0.140967,-0.08344 0.366216,-0.24526 0.5,-0.359375 0.133782,-0.114116 0.255547,-0.193069 0.271484,-0.175781 z m 19.246094,1.5625 c 0.02971,-0.0074 0.04123,0.0834 0.02148,0.273437 -0.03926,0.377829 0.03844,0.463728 0.369141,0.408203 0.180904,-0.03037 0.202086,-0.02231 0.109375,0.03906 -0.20717,0.137151 -0.41219,0.137692 -0.564454,0.0039 -0.13797,-0.121191 -0.141605,-0.148887 -0.06836,-0.414062 0.0549,-0.198786 0.103103,-0.303155 0.132813,-0.310547 z m -21.425782,0.191406 c -0.0018,0.01883 -0.03522,0.08548 -0.09961,0.212891 -0.17605,0.348343 -0.2198,0.395784 -0.160156,0.173828 0.02568,-0.09557 0.104016,-0.237995 0.173828,-0.314453 0.05817,-0.0637 0.08778,-0.09109 0.08594,-0.07227 z m -0.322265,0.650391 c 0.02283,-0.02187 0.02841,0.01537 0.0293,0.09961 0.0011,0.105128 -0.04731,0.247129 -0.109375,0.314453 -0.06206,0.06732 -0.151736,0.250184 -0.199219,0.40625 -0.09454,0.310732 -0.576224,1.412763 -0.582031,1.332031 -0.0052,-0.07214 0.537746,-1.485417 0.728515,-1.896484 0.07108,-0.153157 0.109981,-0.233992 0.132813,-0.255859 z m 23.398437,1.707031 c 0.01121,0.0083 0.01887,0.06203 0.0332,0.167969 0.02875,0.212485 -0.02568,0.296769 -0.103515,0.160156 -0.01977,-0.0347 -0.01258,-0.134202 0.01758,-0.222656 0.02595,-0.07609 0.04152,-0.113779 0.05273,-0.105469 z m -24.412109,1.142578 c 0.01851,0.05018 0.01547,0.111669 -0.0059,0.134766 -0.02129,0.0231 -0.03599,-0.01853 -0.0332,-0.0918 0.0031,-0.08097 0.01861,-0.09842 0.03906,-0.04297 z m -0.06641,0.570312 c 0.0649,0 -0.06396,0.666879 -0.154297,0.798829 -0.09502,0.138786 -0.09471,0.138631 -0.05078,0 0.0242,-0.07637 0.07346,-0.28708 0.109376,-0.46875 0.03592,-0.181671 0.07884,-0.330079 0.0957,-0.330079 z m -0.253907,1.029297 c 0.01851,0.05017 0.01547,0.109717 -0.0059,0.132813 -0.02129,0.0231 -0.03599,-0.01853 -0.0332,-0.0918 0.0031,-0.08097 0.01861,-0.09647 0.03906,-0.04102 z m -0.0293,1.236329 c 0.0041,-0.0103 0.0191,0.03526 0.04687,0.126953 0.06754,0.22296 0.102874,2.038364 0.04102,2.105468 -0.02121,0.02301 -0.03868,-0.361684 -0.03906,-0.855468 -3.88e-4,-0.493786 -0.014,-1.022867 -0.03125,-1.175782 -0.01418,-0.125661 -0.0217,-0.190876 -0.01758,-0.201171 z m 25.660157,1.435546 c 0.01625,0.06763 0.01563,0.161927 -0.002,0.208985 -0.01755,0.04706 -0.0306,-0.0084 -0.0293,-0.123047 0.0013,-0.114686 0.01501,-0.153566 0.03125,-0.08594 z m 0.06445,0.386719 c 0.01851,0.05017 0.01547,0.109717 -0.0059,0.132813 -0.02129,0.0231 -0.03599,-0.01853 -0.0332,-0.0918 0.0031,-0.08097 0.01861,-0.09647 0.03906,-0.04102 z m -35.062501,2.193359 c 0.239346,0.02881 0.358749,0.08548 0.46875,0.222657 0.132017,0.164633 0.13782,0.198763 0.05664,0.332031 -0.06779,0.111278 -0.169236,0.153584 -0.402344,0.169922 -0.171256,0.012 -0.34423,0.05335 -0.384766,0.08984 -0.126933,0.114272 -1.262839,0.161636 -1.355469,0.05664 -0.04405,-0.04993 -0.08008,-0.121073 -0.08008,-0.158203 0,-0.03713 -0.0491,-0.125402 -0.107422,-0.195312 -0.101682,-0.121878 -0.08883,-0.12611 0.304688,-0.126953 0.331019,-7.1e-4 0.484833,-0.04259 0.794922,-0.214844 0.327261,-0.181791 0.432359,-0.208614 0.705078,-0.175782 z m 10.148437,0.529297 c 0.05265,0 0.220232,0.349095 0.185547,0.386719 -0.01079,0.01171 -0.06758,-0.06942 -0.126953,-0.18164 -0.05937,-0.112218 -0.08654,-0.205079 -0.05859,-0.205079 z m -12.21875,0.08789 c 0.09546,-0.0034 0.146112,0.116634 0.04297,0.228516 -0.08498,0.09218 -0.10904,0.09447 -0.173828,0.0098 -0.05884,-0.0769 -0.05237,-0.117498 0.02539,-0.1875 0.03741,-0.03367 0.07365,-0.04964 0.105468,-0.05078 z m 36.462892,0.435547 c 0.0098,-0.0191 0.02528,-0.0063 0.04883,0.0332 0.126468,0.212279 0.06819,0.455622 -0.167969,0.699219 l -0.232422,0.238281 0.167969,-0.292969 c 0.09247,-0.161712 0.169382,-0.396481 0.169922,-0.521484 3.72e-4,-0.08616 0.0039,-0.137154 0.01367,-0.15625 z m -23.767579,0.474609 c 0.01528,-0.01657 0.106385,0.131487 0.201172,0.328125 0.223969,0.464629 0.184882,0.504845 -0.04883,0.05078 -0.09891,-0.192165 -0.167621,-0.362335 -0.152344,-0.378906 z m 22.419922,2.164063 -0.04492,0.173828 c -0.02421,0.09557 -0.05164,0.268126 -0.06055,0.382812 -0.03918,0.504591 -0.03766,0.502546 -0.101562,0.330079 -0.09157,-0.247127 -0.32085,-0.197143 -0.535157,0.117187 -0.101483,0.148847 -0.245585,0.287739 -0.320312,0.308594 -0.08252,0.02303 0.05189,-0.155542 0.34375,-0.455078 0.264316,-0.271268 0.534505,-0.57379 0.599609,-0.673829 z m -37.626953,1.599609 c 0.03524,0.02363 0.06445,0.135617 0.06445,0.248047 0,0.11243 -0.02921,0.203125 -0.06445,0.203125 -0.03524,0 -0.0625,-0.110038 -0.0625,-0.246094 0,-0.147217 0.02436,-0.230642 0.0625,-0.205078 z m 34.728515,1.285156 c 0.0054,0.0026 -0.01401,0.03163 -0.05469,0.08789 -0.04837,0.0669 -0.117496,0.121094 -0.154297,0.121094 -0.0368,0 -0.0557,-0.0088 -0.04102,-0.01953 0.01468,-0.01082 0.08577,-0.06501 0.15625,-0.121094 0.05927,-0.04716 0.08835,-0.071 0.09375,-0.06836 z m -12.15625,1.603516 c 0.174515,0.0041 0.187468,0.01439 0.08008,0.06445 -0.177024,0.08252 -0.289062,0.08252 -0.289062,0 0,-0.03823 0.09444,-0.06714 0.208984,-0.06445 z m 8.046875,0.08984 c -0.0015,0.0092 -0.03822,0.04409 -0.109375,0.111328 -0.154113,0.145622 -0.629885,0.20768 -0.552734,0.07227 0.02178,-0.03823 0.126459,-0.06836 0.232422,-0.06836 0.105964,0 0.255053,-0.03383 0.332031,-0.07422 0.06583,-0.03454 0.09915,-0.05022 0.09766,-0.04102 z m -2.24414,0.484375 c 0.04626,-0.02008 0.101754,-0.01725 0.123046,0.0059 0.02129,0.0231 -0.01643,0.03817 -0.08398,0.03516 -0.07465,-0.0033 -0.09018,-0.01883 -0.03906,-0.04102 z m -27.091797,6.822265 c 0.08614,-0.05775 0.139647,0.09376 0.07617,0.216797 -0.05066,0.0982 -0.06291,0.09473 -0.09375,-0.0332 -0.01947,-0.08078 -0.01192,-0.163818 0.01758,-0.183594 z M 1.841789,92.699248 c 0.123749,-0.05203 0.323801,0.08686 0.267578,0.185547 -0.04919,0.08634 -0.112093,0.07766 -0.255859,-0.03711 -0.116444,-0.09296 -0.117461,-0.103974 -0.011719,-0.148437 z m 0.603516,0.0957 c 0.01851,0.05017 0.01543,0.109715 -0.0059,0.132812 -0.02129,0.0231 -0.03599,-0.01853 -0.0332,-0.0918 0.0031,-0.08097 0.01861,-0.09647 0.03906,-0.04102 z m 96.652343,16.912112 c -0.07564,-0.0221 -0.161582,-0.009 -0.240234,0.0449 -0.134258,0.0926 -0.219652,0.42787 -0.146484,0.57616 0.0799,0.16194 0.06233,0.15979 0.380859,0.0215 0.273524,-0.11871 0.302423,-0.19171 0.183594,-0.4746 -0.03701,-0.0881 -0.102095,-0.14583 -0.177735,-0.16797 z" /></g></svg>
