<?xml version="1.0" encoding="UTF-8" standalone="no"?>
<!-- Created with Inkscape (http://www.inkscape.org/) -->

<svg
   width="297mm"
   height="210mm"
   viewBox="0 0 297 210"
   version="1.1"
   id="svg1"
   inkscape:version="1.3.2 (091e20e, 2023-11-25, custom)"
   sodipodi:docname="popo.svg"
   xmlns:inkscape="http://www.inkscape.org/namespaces/inkscape"
   xmlns:sodipodi="http://sodipodi.sourceforge.net/DTD/sodipodi-0.dtd"
   xmlns="http://www.w3.org/2000/svg"
   xmlns:svg="http://www.w3.org/2000/svg">
  <sodipodi:namedview
     id="namedview1"
     pagecolor="#ffffff"
     bordercolor="#000000"
     borderopacity="0.25"
     inkscape:showpageshadow="2"
     inkscape:pageopacity="0.0"
     inkscape:pagecheckerboard="0"
     inkscape:deskcolor="#d1d1d1"
     inkscape:document-units="mm"
     inkscape:zoom="0.98439254"
     inkscape:cx="617.13186"
     inkscape:cy="572.43425"
     inkscape:window-width="2160"
     inkscape:window-height="1361"
     inkscape:window-x="-9"
     inkscape:window-y="-9"
     inkscape:window-maximized="1"
     inkscape:current-layer="g6" />
  <defs
     id="defs1">
    <inkscape:path-effect
       effect="spiro"
       id="path-effect24"
       is_visible="true"
       lpeversion="1" />
    <inkscape:path-effect
       effect="spiro"
       id="path-effect20"
       is_visible="true"
       lpeversion="1" />
    <inkscape:path-effect
       effect="spiro"
       id="path-effect18"
       is_visible="true"
       lpeversion="1" />
    <inkscape:path-effect
       effect="spiro"
       id="path-effect16"
       is_visible="true"
       lpeversion="1" />
    <inkscape:path-effect
       effect="spiro"
       id="path-effect14"
       is_visible="true"
       lpeversion="1" />
    <inkscape:path-effect
       effect="spiro"
       id="path-effect6"
       is_visible="true"
       lpeversion="1" />
    <inkscape:path-effect
       effect="spiro"
       id="path-effect5"
       is_visible="true"
       lpeversion="1" />
    <inkscape:path-effect
       effect="spiro"
       id="path-effect4"
       is_visible="true"
       lpeversion="1" />
    <inkscape:path-effect
       effect="spiro"
       id="path-effect3"
       is_visible="true"
       lpeversion="1" />
  </defs>
  <g
     inkscape:label="Calque 1"
     inkscape:groupmode="layer"
     id="layer1">
    <g
       id="g6">
      <path
         id="rect1"
         style="display:inline;fill:none;stroke:#000000;stroke-width:0.89;stroke-linejoin:bevel"
         d="M 60.684557,6.9211622 H 247.6883 V 193.92516 H 60.684557 Z" />
      <path
         id="rect2"
         style="display:inline;fill:none;stroke:#000000;stroke-width:0.89;stroke-linejoin:bevel"
         d="m 154.19552,6.4319342 -0.009,0.04444 V 100.41845 l -93.958091,-0.005 0.01137,0.01 h 93.946721 v 94.8371 l 0.005,-94.8371 h 93.94259 l -93.94259,-0.005 z m 86.94664,0.04444 -0.53227,9.8040518 z" />
      <path
         id="path24"
         style="display:inline;fill:none;stroke:#000000;stroke-width:0.89;stroke-linecap:butt;stroke-linejoin:bevel;stroke-dasharray:none;stroke-opacity:1;paint-order:normal"
         d="m 76.744434,6.4763762 -0.611332,6.1381258 -15.893604,-0.337447 15.911513,0.303185 -1.420408,14.116607 -7.298779,73.28131 4.455542,81.959343 -11.647868,0.0589 c 3.887947,0.0982 7.776633,0.16712 11.664921,0.25064 l 0.658875,12.12329 0.269234,-12.10366 c 26.965318,0.5711 53.937722,0.81254 80.908762,0.68006 25.55866,-0.12553 63.08913,-0.9638 88.637,-1.72111 l 0.85418,13.14471 -0.66198,-13.14856 c 1.85421,-0.0622 3.70888,-0.11012 5.56297,-0.1757 l -5.68246,0.10022 -3.96966,-81.168143 2.38641,-83.864127 -157.955734,-3.355351 -6.7516,-0.08604 z"
         sodipodi:nodetypes="cccccccccccscccccccccc" />
      <path
         id="path27"
         style="display:inline;fill:none;stroke:#000000;stroke-width:0.89;stroke-linecap:butt;stroke-linejoin:bevel;stroke-dasharray:none;stroke-opacity:1;paint-order:normal"
         d="m 76.744434,6.4763762 -0.611332,6.1381258 -15.893604,-0.337447 15.911513,0.303185 -1.420408,14.116607 -7.298779,73.28131 4.455542,81.959343 -11.647868,0.0589 c 3.887947,0.0982 7.776633,0.16712 11.664921,0.25064 l 0.658875,12.12329 0.269234,-12.10366 c 26.965318,0.5711 53.937722,0.81254 80.908762,0.68006 25.55866,-0.12553 63.08913,-0.9638 88.637,-1.72111 l 0.85418,13.14471 -0.66198,-13.14856 c 1.85421,-0.0622 3.70888,-0.11012 5.56297,-0.1757 l -5.68246,0.10022 -3.96966,-81.168143 2.38641,-83.864127 -157.955734,-3.355351 -6.7516,-0.08604 z"
         sodipodi:nodetypes="cccccccccccscccccccccc" />
    </g>
  </g>
</svg>
